<?xml version="1.0" standalone="no"?>
<!DOCTYPE svg PUBLIC "-//W3C//DTD SVG 1.1//EN" "http://www.w3.org/Graphics/SVG/1.1/DTD/svg11.dtd" >
<svg xmlns="http://www.w3.org/2000/svg" width="100%" height="100%">
<metadata>
Created by FontXChange 20110222 at Fri Jun  1 16:54:46 2018
 By Suzi Rubino
Copyright (c) 1991 Adobe Systems Incorporated.  All Rights Reserved.Berthold Akzidenz Grotesk is a registered trademark of H. Berthold AG.
</metadata>
<defs>
<font id="AkzidenzGroteskBE-XBdCnIt" horiz-adv-x="500" >
  <font-face 
    font-family="AkzidenzGroteskBE"
    font-weight="700"
    font-stretch="normal"
    units-per-em="1000"
    panose-1="2 0 8 3 0 0 0 0 0 0"
    ascent="800"
    descent="-200"
    x-height="535"
    cap-height="706"
    bbox="-101 -250 1142 896"
    underline-thickness="50"
    underline-position="-100"
    slope="-13"
    stemh="100"
    stemv="156"
    unicode-range="U+0020-FB02"
  />
    <missing-glyph />
    <glyph glyph-name="space" unicode=" " horiz-adv-x="250" 
 />
    <glyph glyph-name="exclam" unicode="!" horiz-adv-x="292" 
d="M225 706h148l-30 -128l-109 -349h-91l49 340zM62 0l35 152h148l-35 -152h-148z" />
    <glyph glyph-name="quotedbl" unicode="&#x22;" horiz-adv-x="396" 
d="M441 669l-53 -261h-31l-55 250c-2 10 -2 21 -2 24c0 46 41 67 75 67c28 0 68 -15 68 -64c0 -6 -1 -11 -2 -16zM232 669l-53 -261h-31l-55 250c-2 10 -2 21 -2 24c0 46 41 67 75 67c28 0 68 -15 68 -64c0 -6 -1 -11 -2 -16z" />
    <glyph glyph-name="numbersign" unicode="#" horiz-adv-x="667" 
d="M532 186l-26 -186h-125l26 186h-99l-26 -186h-123l24 186h-94v123h112l13 96h-100v124h117l25 177h125l-26 -177h100l24 177h125l-24 -177h91v-124h-108l-13 -96h98v-123h-116zM325 309h99l14 96h-99z" />
    <glyph glyph-name="dollar" unicode="$" horiz-adv-x="521" 
d="M357 718l20 91h79l-22 -95c53 -9 141 -23 141 -128c0 -31 -8 -64 -18 -104h-162c4 19 15 60 15 78c0 22 -15 38 -44 38c-21 0 -33 -7 -39 -13c-20 -18 -29 -69 -29 -88c0 -25 9 -36 29 -52c10 -9 16 -13 67 -53c89 -69 119 -92 119 -153c0 -42 -22 -134 -55 -179
c-47 -64 -129 -70 -191 -74l-25 -103h-79l25 107c-50 9 -150 27 -150 139c0 37 11 80 20 115h171c-8 -31 -19 -74 -19 -92c0 -22 9 -46 52 -46c37 0 51 23 55 31c13 23 19 70 19 82c0 26 -13 36 -85 90c-101 75 -122 91 -122 158c0 73 42 155 46 163c40 74 82 83 182 88z
" />
    <glyph glyph-name="percent" unicode="%" horiz-adv-x="792" 
d="M403 560l-37 -155c-22 -90 -37 -151 -151 -151c-84 0 -128 32 -128 94c0 27 6 54 13 81l33 144c18 76 34 142 161 142c75 0 117 -34 117 -95c0 -17 -4 -41 -8 -60zM236 584l-43 -182c-3 -12 -8 -36 -8 -43c0 -18 13 -25 32 -25c26 0 34 10 42 41l46 199c6 28 7 31 7 38
c0 25 -18 25 -26 25c-36 0 -40 -12 -50 -53zM234 0l348 706h79l-348 -706h-79zM801 295l-37 -154c-22 -90 -36 -151 -151 -151c-86 0 -128 33 -128 94c0 27 6 54 13 81l33 143c18 76 34 142 161 142c75 0 117 -34 117 -95c0 -17 -4 -40 -8 -60zM634 319l-43 -182
c-3 -11 -8 -36 -8 -42c0 -18 13 -25 32 -25c26 0 34 10 42 41l46 198c6 28 7 31 7 39c0 24 -18 24 -26 24c-36 0 -40 -12 -50 -53z" />
    <glyph glyph-name="ampersand" unicode="&#x26;" horiz-adv-x="667" 
d="M645 101l-32 -115c-11 0 -21 -1 -31 -1c-92 0 -134 34 -155 52c-49 -23 -100 -47 -175 -47c-117 0 -208 62 -208 176c0 135 122 199 180 230c-8 40 -14 68 -14 104c0 187 154 204 206 204c103 0 160 -54 160 -132c0 -112 -109 -173 -180 -212c11 -37 34 -80 73 -141
c26 38 41 73 52 149h139c-26 -144 -77 -199 -113 -237c17 -14 39 -32 98 -30zM363 462c42 25 78 56 78 107c0 24 -14 38 -31 38c-25 0 -53 -25 -53 -85c0 -20 3 -40 6 -60zM264 282c-31 -28 -57 -63 -57 -105c0 -48 36 -67 83 -67c29 0 43 6 61 13c-43 62 -59 92 -87 159z
" />
    <glyph glyph-name="quoteright" unicode="&#x2019;" horiz-adv-x="250" 
d="M151 554l35 153h151l-35 -153l-122 -155h-65l91 155h-55z" />
    <glyph glyph-name="parenleft" unicode="(" horiz-adv-x="354" 
d="M77 84l107 466c34 146 114 157 217 157c25 0 47 -1 73 -2l-14 -62c-85 2 -107 -8 -125 -86l-138 -593c-4 -19 -8 -38 -8 -57c0 -47 49 -47 98 -45l-15 -64c-94 -1 -217 -2 -217 144c0 46 11 92 22 142z" />
    <glyph glyph-name="parenright" unicode=")" horiz-adv-x="354" 
d="M339 421l-107 -466c-34 -146 -114 -157 -217 -157c-25 0 -47 1 -73 2l14 62c85 -2 107 8 125 86l138 593c4 19 8 38 8 57c0 47 -49 47 -98 45l15 64c94 1 217 2 217 -144c0 -46 -11 -92 -22 -142z" />
    <glyph glyph-name="asterisk" unicode="*" horiz-adv-x="437" 
d="M279 612l57 105h12l40 -118l118 -22c0 -3 1 -9 2 -12l-107 -65l17 -123c-3 -2 -8 -4 -10 -6l-100 79l-111 -54c-2 2 -6 5 -9 6l45 118l-83 92c1 2 2 5 3 7z" />
    <glyph glyph-name="plus" unicode="+" horiz-adv-x="667" 
d="M435 228v-228h-127v228h-229v127h229v228h127v-228h227v-127h-227z" />
    <glyph glyph-name="comma" unicode="," horiz-adv-x="250" 
d="M24 0l35 153h150l-36 -153l-121 -154h-64l91 154h-55z" />
    <glyph glyph-name="hyphen" unicode="-" horiz-adv-x="333" 
d="M70 295l26 115h270l-26 -115h-270z" />
    <glyph glyph-name="period" unicode="." horiz-adv-x="250" 
d="M22 0l35 153h149l-35 -153h-149z" />
    <glyph glyph-name="slash" unicode="/" horiz-adv-x="292" 
d="M7 0l263 706h119l-266 -706h-116z" />
    <glyph glyph-name="zero" unicode="0" horiz-adv-x="521" 
d="M85 276l58 251c21 90 47 125 70 144c47 39 121 48 164 48c88 0 187 -30 187 -149c0 -39 -11 -91 -17 -116l-55 -241c-29 -124 -53 -225 -233 -225c-42 0 -109 9 -149 40c-42 33 -47 78 -47 106c0 40 10 90 22 142zM332 192l77 335c3 10 4 20 4 30c0 24 -11 44 -49 44
c-50 0 -59 -37 -69 -81l-75 -326c-4 -14 -6 -30 -6 -40c0 -45 43 -45 50 -45c46 0 58 38 68 83z" />
    <glyph glyph-name="one" unicode="1" horiz-adv-x="521" 
d="M194 470l33 144c99 15 126 49 150 92h131l-163 -706h-154l120 518c-39 -24 -55 -31 -117 -48z" />
    <glyph glyph-name="two" unicode="2" horiz-adv-x="521" 
d="M273 448h-159c5 19 27 107 30 118c17 59 44 153 226 153c37 0 91 -5 131 -26c24 -13 67 -41 67 -119c0 -47 -21 -122 -27 -143c-26 -78 -57 -100 -97 -127c-21 -15 -129 -83 -152 -99c-51 -37 -58 -54 -67 -78h268l-29 -127h-446c39 207 70 236 245 348
c49 31 94 60 109 81c18 24 34 94 34 124c0 27 -11 48 -48 48c-48 0 -56 -24 -85 -153z" />
    <glyph glyph-name="three" unicode="3" horiz-adv-x="521" 
d="M284 488h-155c26 115 39 159 82 191c37 28 95 41 158 41c88 0 190 -32 190 -135c0 -32 -9 -86 -26 -134c-25 -73 -74 -78 -107 -81c23 -4 77 -13 77 -82c0 -10 -18 -174 -76 -240c-41 -48 -110 -60 -180 -60c-58 0 -99 12 -126 27c-52 29 -66 73 -66 120
c0 34 8 68 16 103h155c-8 -31 -17 -67 -17 -94c0 -42 39 -45 48 -45c45 0 57 34 61 46c7 21 25 101 25 125c0 31 -17 39 -67 39h-50l28 119h57c28 0 57 0 72 29c8 16 23 80 23 106c0 6 0 17 -7 26c-3 4 -13 16 -38 16c-54 0 -61 -36 -77 -117z" />
    <glyph glyph-name="four" unicode="4" horiz-adv-x="521" 
d="M51 269l310 438h207l-102 -442h66l-26 -113h-66l-35 -152h-155l36 152h-262zM313 269l42 177c3 12 31 117 37 138c-8 -19 -80 -126 -91 -142l-119 -173h131z" />
    <glyph glyph-name="five" unicode="5" horiz-adv-x="521" 
d="M110 326l98 381h381l-28 -122h-234l-44 -154c19 20 50 51 114 51c81 0 124 -50 124 -130c0 -62 -27 -184 -55 -246c-13 -30 -51 -118 -211 -118c-52 0 -105 9 -146 41c-11 8 -46 36 -46 106c0 31 7 63 13 93h156c-6 -22 -13 -53 -13 -71c0 -29 19 -48 49 -48
c49 0 58 37 72 99c18 74 23 100 23 121c0 13 -2 21 -5 25c-6 14 -22 24 -43 24c-42 0 -52 -34 -56 -52h-149z" />
    <glyph glyph-name="six" unicode="6" horiz-adv-x="521" 
d="M87 262l55 239c27 114 58 217 239 217c80 0 188 -28 188 -133c0 -29 -7 -57 -13 -84h-149c4 15 12 44 12 56c0 31 -26 41 -47 41c-43 0 -54 -34 -61 -55c-9 -29 -23 -85 -40 -148c18 18 47 47 113 47c32 0 128 -10 128 -125c0 -61 -37 -184 -48 -211
c-17 -39 -52 -117 -204 -117c-40 0 -81 5 -117 23c-51 26 -75 66 -75 128c0 34 7 70 19 122zM307 335c-39 0 -53 -32 -62 -59c-7 -19 -26 -96 -26 -122c0 -41 27 -46 48 -46c40 0 51 24 59 46s32 113 32 140c0 41 -43 41 -51 41z" />
    <glyph glyph-name="seven" unicode="7" horiz-adv-x="521" 
d="M116 491l50 215h445l-28 -121c-48 -66 -102 -140 -165 -262c-76 -150 -98 -234 -122 -323h-179c61 176 115 306 324 587l-164 -2l-22 -94h-139z" />
    <glyph glyph-name="eight" unicode="8" horiz-adv-x="521" 
d="M444 375c2 -1 12 -4 18 -8c32 -18 42 -54 42 -87c0 -40 -27 -147 -44 -185c-24 -51 -70 -107 -191 -107c-82 0 -206 21 -206 158c0 54 24 131 27 139c30 90 73 101 115 111c-46 16 -61 52 -61 92c0 36 19 129 61 174c26 28 76 56 164 56c64 0 109 -16 136 -34
c48 -32 58 -75 58 -114c0 -26 -10 -167 -100 -191c-6 -2 -17 -4 -19 -4zM361 599c-37 0 -47 -24 -56 -49c-7 -23 -17 -65 -17 -83c0 -31 23 -46 54 -46c19 0 35 8 46 24c15 23 26 92 26 111c0 43 -41 43 -53 43zM295 322c-41 0 -50 -34 -56 -56c-7 -25 -25 -94 -25 -115
c0 -8 1 -20 8 -29c10 -15 30 -19 42 -19c45 0 56 38 61 53c6 23 25 106 25 124c0 42 -42 42 -55 42z" />
    <glyph glyph-name="nine" unicode="9" horiz-adv-x="521" 
d="M553 492l-65 -279c-29 -126 -54 -159 -93 -185c-36 -25 -87 -40 -144 -40c-68 0 -190 23 -190 132c0 30 7 60 12 86h150c-12 -37 -30 -97 33 -97c41 0 54 25 65 65c6 19 31 117 37 139c-13 -15 -42 -48 -112 -48c-26 0 -129 8 -129 123c0 28 6 57 12 86
c32 143 59 245 241 245c44 0 89 -9 123 -28c16 -8 69 -37 69 -122c0 -19 -3 -49 -9 -77zM359 599c-44 0 -54 -36 -60 -59c-9 -27 -28 -103 -28 -125c0 -44 42 -44 48 -44c42 0 55 33 60 46c14 36 32 116 32 134c0 25 -13 48 -52 48z" />
    <glyph glyph-name="colon" unicode=":" horiz-adv-x="292" 
d="M62 0l35 153h149l-35 -153h-149zM152 389l35 153h150l-35 -153h-150z" />
    <glyph glyph-name="semicolon" unicode=";" horiz-adv-x="292" 
d="M155 389l35 153h151l-36 -153h-150zM65 0l35 153h151l-35 -153l-121 -155h-65l91 155h-56z" />
    <glyph glyph-name="less" unicode="&#x3c;" horiz-adv-x="667" 
d="M704 136v-139l-667 292v124l667 296v-139l-489 -219z" />
    <glyph glyph-name="equal" unicode="=" horiz-adv-x="667" 
d="M706 251v-127h-667v127h667zM706 459v-127h-667v127h667z" />
    <glyph glyph-name="greater" unicode="&#x3e;" horiz-adv-x="667" 
d="M731 289l-667 -292v139l489 215l-489 219v139l667 -296v-124z" />
    <glyph glyph-name="question" unicode="?" horiz-adv-x="458" 
d="M289 506h-146c27 114 33 140 63 169c40 38 112 45 160 45c61 0 176 -9 176 -127c0 -33 -11 -76 -22 -107c-15 -40 -32 -54 -101 -101c-99 -68 -100 -69 -116 -154h-150c26 115 30 131 72 166c18 15 121 79 139 99c19 21 29 57 29 82c0 22 -13 37 -37 37
c-43 0 -47 -21 -67 -109zM100 0l35 153h150l-36 -153h-149z" />
    <glyph glyph-name="at" unicode="@" horiz-adv-x="896" 
d="M816 101l47 -62c-72 -67 -187 -163 -371 -163c-150 0 -386 83 -386 359c0 264 202 477 460 477c187 0 298 -124 298 -291c0 -183 -113 -355 -238 -355c-75 0 -87 54 -90 69c-33 -41 -73 -68 -126 -68c-79 0 -139 61 -139 167c0 144 92 290 217 290c67 0 92 -40 106 -60
l9 39h91l-34 -159c-10 -50 -27 -133 -27 -163c0 -8 0 -30 19 -30c45 0 128 124 128 266c0 160 -117 216 -223 216c-191 0 -370 -177 -370 -396c0 -220 180 -282 304 -282c128 0 230 54 325 146zM561 350c0 45 -24 84 -68 84c-73 0 -118 -112 -118 -192c0 -86 58 -86 63 -86
c61 0 123 95 123 194z" />
    <glyph glyph-name="A" unicode="A" horiz-adv-x="542" 
d="M-13 0l303 706h275l-51 -706h-168l15 157h-131l-60 -157h-183zM372 278l32 363l-128 -363h96z" />
    <glyph glyph-name="B" unicode="B" horiz-adv-x="542" 
d="M21 0l162 706h203c99 0 216 0 216 -114c0 -39 -16 -105 -23 -126c-19 -56 -47 -76 -124 -88c31 -8 87 -23 87 -90c0 -33 -29 -164 -49 -208c-28 -61 -86 -80 -172 -80h-300zM383 579h-57l-36 -154h61c40 0 65 7 76 54l11 47c1 6 2 12 2 18c0 35 -29 35 -57 35zM329 305
h-67l-41 -181h74c50 0 57 26 66 65l14 60c2 6 3 14 3 22c0 26 -22 34 -49 34z" />
    <glyph glyph-name="C" unicode="C" horiz-adv-x="521" 
d="M584 525l-21 -87h-164l19 83c2 7 3 15 3 23c0 40 -30 45 -53 45c-41 0 -49 -20 -57 -42l-84 -362c-3 -12 -6 -25 -6 -37c0 -35 34 -39 49 -39c44 0 55 30 60 44c12 34 21 75 29 113h175l-25 -102c-31 -127 -75 -178 -248 -178c-45 0 -86 4 -121 18s-91 49 -91 122
c0 11 0 33 16 99l68 297c22 97 49 133 79 155c47 35 126 41 170 41c43 0 97 -6 132 -21c34 -15 76 -46 76 -122c0 -15 -2 -32 -6 -50z" />
    <glyph glyph-name="D" unicode="D" horiz-adv-x="542" 
d="M22 0l163 707h198c125 0 223 -2 223 -120c0 -18 -3 -43 -8 -67l-80 -348c-29 -128 -56 -172 -195 -172h-301zM382 586h-54l-108 -468c59 0 61 0 75 2c15 2 43 6 57 66l78 343c1 6 2 12 2 18c0 33 -21 39 -50 39z" />
    <glyph glyph-name="E" unicode="E" horiz-adv-x="437" 
d="M20 0l163 706h355l-28 -122h-183l-37 -160h174l-27 -120h-175l-41 -180h200l-28 -124h-373z" />
    <glyph glyph-name="F" unicode="F" horiz-adv-x="417" 
d="M185 706h354l-27 -120h-185l-37 -161h178l-28 -121h-178l-70 -304h-170z" />
    <glyph glyph-name="G" unicode="G" horiz-adv-x="542" 
d="M577 531l-17 -74h-164l17 72c1 6 2 13 2 19c0 37 -30 42 -45 42c-47 0 -63 -35 -72 -74l-75 -324c-2 -11 -4 -22 -4 -33c0 -9 1 -19 7 -28c10 -15 31 -20 45 -20c49 0 60 43 66 65c6 20 11 43 20 77h-69l26 114h231l-84 -367h-163l12 51c1 6 3 12 4 17
c-30 -41 -63 -80 -147 -80c-74 0 -124 41 -124 125c0 47 16 114 26 157c17 70 37 154 57 236c28 118 52 214 245 214c62 0 98 -10 120 -18c74 -28 94 -80 94 -116c0 -19 -4 -38 -8 -55z" />
    <glyph glyph-name="H" unicode="H" horiz-adv-x="562" 
d="M184 707h172l-66 -288h117l66 288h172l-164 -707h-171l69 297h-117l-69 -297h-172z" />
    <glyph glyph-name="I" unicode="I" horiz-adv-x="271" 
d="M21 0l163 706h171l-163 -706h-171z" />
    <glyph glyph-name="J" unicode="J" horiz-adv-x="375" 
d="M180 210l111 496h172l-119 -515c-28 -124 -55 -191 -222 -191h-105l29 127h48c57 0 74 27 86 83z" />
    <glyph glyph-name="K" unicode="K" horiz-adv-x="542" 
d="M281 394l198 312h182l-228 -327l87 -379h-175l-67 379l-87 -379h-170l163 706h170z" />
    <glyph glyph-name="L" unicode="L" horiz-adv-x="396" 
d="M185 706h171l-135 -586h181l-28 -120h-352z" />
    <glyph glyph-name="M" unicode="M" horiz-adv-x="771" 
d="M22 0l163 706h236l-7 -199c0 -17 -3 -105 -3 -125c-3 -60 -6 -109 -10 -174c14 33 31 74 50 118c15 36 36 86 46 109l120 271h235l-163 -706h-159l133 524l-235 -524h-143l5 524l-109 -524h-159z" />
    <glyph glyph-name="N" unicode="N" horiz-adv-x="562" 
d="M185 706h166c30 -230 36 -281 51 -438c19 119 24 144 43 234c22 102 24 112 43 204h157l-164 -706h-164l-25 203c-14 114 -16 127 -25 232l-86 -435h-159z" />
    <glyph glyph-name="O" unicode="O" horiz-adv-x="542" 
d="M68 232l65 273c27 115 55 213 250 213c37 0 113 -5 159 -37c48 -34 55 -81 55 -116c0 -46 -15 -109 -26 -155l-56 -238c-33 -138 -91 -187 -247 -187c-93 0 -212 26 -212 159c0 27 7 66 12 88zM323 548c-13 -44 -98 -368 -98 -394c0 -27 19 -41 52 -41c47 0 59 34 75 97
c10 38 54 223 64 265c14 55 15 61 15 71c0 27 -16 45 -49 45c-44 0 -53 -24 -59 -43z" />
    <glyph glyph-name="P" unicode="P" horiz-adv-x="521" 
d="M22 0l163 706h265c42 0 150 -1 150 -112c0 -15 -2 -37 -7 -57l-23 -103c-26 -115 -62 -152 -182 -152h-130l-65 -282h-171zM389 584h-61l-41 -174h67c21 0 43 2 57 39c5 13 22 79 22 101c0 34 -33 34 -44 34z" />
    <glyph glyph-name="Q" unicode="Q" horiz-adv-x="542" 
d="M575 437l-56 -242c-30 -131 -66 -193 -196 -205c-8 -25 -16 -50 -16 -63c0 -26 23 -31 59 -31c14 0 29 1 44 2l-31 -102c-57 0 -119 0 -145 3c-59 7 -82 41 -83 79c0 17 3 27 30 117c-41 12 -123 35 -123 152c0 22 3 46 10 77l62 276c26 116 50 220 254 220
c38 0 107 -6 152 -34c49 -30 59 -75 59 -117c0 -15 0 -43 -20 -132zM349 200l74 317c2 11 5 22 5 33c0 27 -17 44 -52 44c-45 0 -53 -31 -62 -68l-85 -339c-2 -10 -4 -19 -4 -29c0 -35 26 -44 53 -44c51 0 61 42 71 86z" />
    <glyph glyph-name="R" unicode="R" horiz-adv-x="542" 
d="M21 0l163 706h206c100 0 206 0 206 -115c0 -36 -15 -110 -33 -147c-27 -58 -73 -74 -126 -82c27 -5 94 -18 94 -82c0 -14 -3 -28 -7 -51l-22 -107c-3 -15 -13 -65 -13 -77c0 -31 21 -38 31 -42v-6l-148 5c-30 1 -51 12 -51 44c0 5 0 12 7 44l26 126c5 25 7 34 7 43
c0 35 -28 38 -50 38h-49l-69 -297h-172zM328 584l-38 -162h47c36 1 57 1 73 37c10 21 21 84 21 94c0 27 -22 29 -33 30c-10 1 -16 1 -70 1z" />
    <glyph glyph-name="S" unicode="S" horiz-adv-x="521" 
d="M59 243h170c-8 -30 -19 -74 -19 -91c0 -46 42 -46 51 -46c21 0 39 6 51 22c14 18 24 65 24 85c0 24 -10 37 -37 59c-14 11 -21 16 -67 51c-78 58 -103 77 -103 143c0 54 33 152 63 192c18 23 47 60 172 60c127 0 212 -31 212 -132c0 -28 -7 -58 -18 -104h-162
c5 21 15 60 15 76c0 33 -28 40 -45 40c-32 0 -44 -18 -47 -24c-14 -20 -21 -64 -21 -78c0 -32 11 -40 70 -84c129 -97 145 -118 145 -177c0 -14 -2 -28 -5 -42c-25 -140 -79 -205 -250 -205c-92 0 -220 17 -220 138c0 36 11 77 21 117z" />
    <glyph glyph-name="T" unicode="T" horiz-adv-x="417" 
d="M101 584l29 122h418l-28 -122h-118l-135 -584h-172l135 584h-129z" />
    <glyph glyph-name="U" unicode="U" horiz-adv-x="542" 
d="M77 293l98 414h170l-116 -505c-2 -6 -6 -24 -6 -39c0 -29 21 -42 52 -42c49 0 61 42 71 81l116 505h170l-117 -505c-25 -108 -60 -213 -253 -213c-113 0 -213 40 -210 155c1 33 7 72 25 149z" />
    <glyph glyph-name="V" unicode="V" 
d="M130 706h164l-18 -268c-9 -151 -16 -201 -30 -296c29 92 48 148 52 158l150 406h184l-296 -706h-238z" />
    <glyph glyph-name="W" unicode="W" horiz-adv-x="812" 
d="M250 252l183 454h206l-33 -541c9 39 24 106 47 176l120 365h171l-259 -706h-214c6 148 7 178 10 268c2 96 5 138 16 259c-34 -109 -41 -126 -106 -282l-103 -245h-219l63 706h168l-34 -243c-3 -19 -15 -110 -18 -130c-13 -94 -22 -133 -32 -178c17 52 29 84 34 97z" />
    <glyph glyph-name="X" unicode="X" 
d="M193 398l-63 308h169l29 -209l106 209h183l-206 -335l58 -371h-167l-27 266l-126 -266h-182z" />
    <glyph glyph-name="Y" unicode="Y" horiz-adv-x="521" 
d="M320 418l144 288h191l-293 -476l-53 -230h-170l57 244l-67 462h167z" />
    <glyph glyph-name="Z" unicode="Z" horiz-adv-x="479" 
d="M123 583l28 124h425l-30 -131l-352 -446h249l-30 -130h-439l30 130l356 453h-237z" />
    <glyph glyph-name="bracketleft" unicode="[" horiz-adv-x="354" 
d="M218 707h258l-15 -65h-109l-186 -784h108l-14 -62h-258z" />
    <glyph glyph-name="backslash" unicode="\" horiz-adv-x="292" 
d="M265 0h-118l-16 706h116z" />
    <glyph glyph-name="bracketright" unicode="]" horiz-adv-x="354" 
d="M145 707h258l-215 -911h-258l14 62h112l181 784h-107z" />
    <glyph glyph-name="asciicircum" unicode="^" horiz-adv-x="729" 
d="M468 706l194 -395h-138l-110 231l-116 -231h-137l203 395h104z" />
    <glyph glyph-name="underscore" unicode="_" 
d="M480 -75v-50h-520v50h520z" />
    <glyph glyph-name="quoteleft" unicode="&#x2018;" horiz-adv-x="250" 
d="M269 706h64l-91 -153h56l-36 -154h-150l36 154z" />
    <glyph glyph-name="a" unicode="a" horiz-adv-x="479" 
d="M495 369l-71 -308c-1 -8 -3 -16 -3 -24c0 -24 7 -29 15 -37h-182l14 56c-36 -31 -81 -70 -144 -70c-11 0 -106 0 -106 97c0 33 21 127 54 165s81 52 268 106c5 21 12 55 12 63c0 28 -26 30 -43 30c-45 0 -53 -24 -68 -78h-152c23 93 35 124 84 149c37 19 88 28 144 28
c92 0 187 -23 187 -117c0 -20 -4 -40 -9 -60zM284 122l33 129c-36 -11 -82 -25 -101 -40c-26 -21 -33 -78 -33 -88c0 -18 8 -33 35 -33c28 0 49 17 66 32z" />
    <glyph glyph-name="b" unicode="b" 
d="M179 706h162l-52 -227c22 29 55 70 124 70c55 0 112 -30 112 -112c0 -51 -32 -191 -46 -249c-19 -79 -48 -201 -180 -201c-76 0 -99 54 -107 73l-14 -60h-162zM310 152l48 208c7 29 7 36 7 41c0 19 -11 40 -43 40c-10 0 -42 0 -52 -42l-57 -245c-1 -6 -2 -13 -2 -19
c0 -25 17 -40 42 -40c28 0 49 20 57 57z" />
    <glyph glyph-name="c" unicode="c" horiz-adv-x="479" 
d="M315 186h161c-10 -46 -21 -93 -51 -132c-41 -52 -110 -68 -177 -68c-46 0 -195 10 -195 143c0 70 59 282 61 287c41 123 143 132 217 132c114 0 186 -50 186 -136c0 -26 -6 -52 -13 -76h-154c7 27 14 53 14 68c0 21 -14 36 -40 36c-44 0 -56 -32 -65 -70l-50 -214
c-1 -6 -2 -12 -2 -19c0 -15 4 -22 6 -24c7 -11 21 -18 37 -18c45 0 53 36 65 91z" />
    <glyph glyph-name="d" unicode="d" 
d="M382 480l52 226h161l-163 -706h-161l16 65c-23 -28 -60 -74 -129 -74c-28 0 -114 11 -114 109c0 53 57 280 63 297c20 70 48 152 156 152c34 0 98 -13 119 -69zM309 166l48 207c2 9 4 17 4 26c0 24 -13 43 -42 43c-42 0 -52 -41 -58 -69l-46 -200c-3 -12 -7 -32 -7 -43
c0 -30 22 -39 41 -39c43 0 53 45 60 75z" />
    <glyph glyph-name="e" unicode="e" 
d="M317 173h163c-10 -40 -21 -87 -54 -123c-32 -37 -85 -64 -179 -64c-27 0 -102 4 -149 41c-23 18 -44 46 -44 103c0 71 51 268 68 308c18 43 60 111 206 111c64 0 189 -12 189 -131c0 -22 -4 -45 -9 -68c-8 -39 -16 -75 -26 -120h-256c-8 -31 -18 -75 -18 -98
c0 -5 1 -11 3 -16c7 -12 23 -20 44 -20c45 0 51 31 62 77zM248 328h103c4 17 14 59 14 73c0 10 -2 20 -8 27c-10 12 -28 14 -38 14c-49 0 -56 -36 -71 -114z" />
    <glyph glyph-name="f" unicode="f" horiz-adv-x="313" 
d="M173 536l12 52c20 81 31 122 168 122c30 0 60 -1 94 -3l-23 -98c-56 1 -68 -1 -77 -21c-4 -9 -11 -39 -14 -52h70l-23 -96h-70l-101 -440h-160l101 440h-64l22 96h65z" />
    <glyph glyph-name="g" unicode="g" 
d="M256 -76l33 141c-22 -28 -59 -74 -130 -74c-25 0 -54 7 -76 26c-24 22 -33 53 -33 92c0 63 38 209 57 273c28 93 66 166 165 166c78 0 110 -57 110 -77l16 65h161l-125 -542c-20 -84 -32 -137 -72 -178c-44 -45 -110 -58 -173 -58c-40 0 -196 3 -196 133c0 20 4 36 9 54
h159c-10 -40 -10 -44 -10 -51c0 -37 35 -37 45 -37c15 0 44 0 60 67zM312 163l51 222c1 5 2 11 2 16c0 35 -27 41 -43 41c-23 0 -49 -10 -62 -65l-44 -189c-3 -13 -7 -34 -7 -48c0 -41 29 -43 40 -43c38 0 56 34 63 66z" />
    <glyph glyph-name="h" unicode="h" 
d="M182 706h159l-54 -231c24 29 62 70 131 70c55 0 110 -27 110 -101c0 -15 -3 -31 -6 -46l-92 -398h-158l87 377c2 8 3 16 3 24c0 30 -21 42 -42 42c-40 0 -48 -32 -52 -49l-90 -394h-159z" />
    <glyph glyph-name="i" unicode="i" horiz-adv-x="250" 
d="M182 706h158l-27 -120h-159zM19 0l123 536h159l-124 -536h-158z" />
    <glyph glyph-name="j" unicode="j" horiz-adv-x="250" 
d="M156 587l28 120h157l-27 -120h-158zM11 -39l133 575h158l-134 -580c-35 -153 -70 -153 -264 -153l24 105c50 0 71 0 83 53z" />
    <glyph glyph-name="k" unicode="k" 
d="M183 706h159l-86 -372l166 202h179l-208 -231l92 -305h-164l-76 288l-66 -288h-159z" />
    <glyph glyph-name="l" unicode="l" horiz-adv-x="250" 
d="M19 0l163 706h160l-163 -706h-160z" />
    <glyph glyph-name="m" unicode="m" horiz-adv-x="771" 
d="M304 536l-14 -61c49 68 125 73 144 73c37 0 94 -15 101 -74c39 49 94 75 157 75c39 0 110 -14 110 -92c0 -16 -3 -31 -6 -46l-95 -411h-162l88 380c1 7 2 13 2 20c0 21 -11 42 -41 42c-44 0 -54 -43 -58 -61l-88 -381h-163l89 386c2 7 3 13 3 19c0 25 -17 41 -42 41
c-33 0 -52 -24 -60 -59l-89 -387h-160l123 536h161z" />
    <glyph glyph-name="n" unicode="n" 
d="M522 399l-92 -399h-159l86 377c3 12 3 21 3 25c0 38 -33 38 -37 38c-46 0 -57 -48 -60 -64l-87 -376h-156l123 536h157l-13 -53c60 63 125 65 142 65c30 0 100 -10 100 -97c0 -19 -3 -36 -7 -52z" />
    <glyph glyph-name="o" unicode="o" 
d="M313 550c80 0 206 -13 206 -147c0 -56 -43 -234 -58 -280c-19 -56 -50 -135 -210 -135c-120 0 -197 40 -197 145c0 58 45 235 54 263c17 57 51 154 205 154zM313 168l48 214c2 7 3 14 3 21c1 26 -19 40 -43 40c-43 0 -52 -37 -57 -61l-50 -214c-2 -9 -4 -20 -4 -31
c0 -21 12 -41 43 -41c43 0 51 35 60 72z" />
    <glyph glyph-name="p" unicode="p" 
d="M524 376l-52 -226c-24 -105 -69 -162 -156 -162c-61 0 -104 30 -116 73c-2 5 -1 19 -3 11l-61 -265h-161l168 729h161l-18 -68c28 35 64 80 138 80c61 0 108 -36 108 -108c0 -21 -3 -41 -8 -64zM312 151l48 209c4 17 8 33 8 45c0 27 -17 41 -41 41c-40 0 -51 -30 -55 -49
l-51 -221c-3 -13 -6 -30 -6 -40c0 -30 22 -42 42 -42c27 0 46 17 55 57z" />
    <glyph glyph-name="q" unicode="q" 
d="M225 -196l58 250c-18 -22 -53 -66 -124 -66c-8 0 -47 0 -78 22c-30 22 -37 51 -37 82c0 56 29 178 44 240c27 110 53 217 175 217c93 0 113 -58 116 -77l15 64h160l-169 -732h-160zM308 165l45 193c2 12 7 31 7 45c0 5 -1 13 -4 20c-10 21 -36 21 -40 21
c-40 0 -52 -42 -59 -69c-14 -49 -21 -75 -30 -115c-7 -28 -23 -104 -23 -126c0 -29 18 -43 41 -43c41 0 54 34 63 74z" />
    <glyph glyph-name="r" unicode="r" horiz-adv-x="333" 
d="M302 536l-25 -107c44 84 77 103 161 116l-40 -149c-11 1 -22 1 -33 1c-88 0 -104 -38 -127 -136l-60 -261h-158l124 536h158z" />
    <glyph glyph-name="s" unicode="s" horiz-adv-x="458" 
d="M39 183h154c-5 -16 -11 -35 -11 -53c0 -28 23 -34 40 -34c5 0 18 0 29 7c19 13 23 40 23 54c0 20 -8 28 -20 38c-15 13 -100 74 -102 76c-37 29 -59 58 -59 99c0 31 15 77 27 99c29 52 97 79 184 79c105 0 186 -41 186 -123c0 -19 -4 -37 -8 -55h-151c3 10 9 32 9 43
c0 4 -1 30 -40 30c-48 0 -48 -50 -48 -52c0 -19 11 -29 31 -44c1 -1 50 -35 56 -40c68 -47 102 -71 102 -129c0 -33 -14 -93 -41 -126c-26 -32 -81 -63 -175 -63c-76 0 -109 14 -124 21c-51 23 -74 55 -74 107c0 25 6 45 12 66z" />
    <glyph glyph-name="t" unicode="t" horiz-adv-x="313" 
d="M168 536l39 171h157l-40 -171h71l-23 -96h-70l-65 -279c-2 -9 -4 -22 -4 -31c0 -28 20 -28 65 -28l-23 -102c-140 0 -213 0 -213 80c0 17 3 30 9 52l74 308h-64l22 96h65z" />
    <glyph glyph-name="u" unicode="u" 
d="M140 536h162l-81 -350c-6 -25 -9 -39 -9 -51c0 -27 19 -39 38 -39c43 0 56 51 64 86l81 354h161l-124 -536h-160l12 56c-25 -26 -64 -66 -136 -66c-39 0 -105 14 -105 97c0 10 1 31 8 60z" />
    <glyph glyph-name="v" unicode="v" horiz-adv-x="437" 
d="M94 536h155c-6 -73 -11 -143 -16 -211c-11 -144 -12 -161 -22 -238c28 94 44 146 70 217c24 65 64 167 89 232h166l-239 -536h-215z" />
    <glyph glyph-name="w" unicode="w" horiz-adv-x="729" 
d="M103 0l-7 536h154c-4 -72 -4 -79 -7 -148c-5 -97 -6 -122 -19 -262l39 124l103 286h180c-6 -101 -6 -108 -9 -191c-4 -77 -5 -102 -17 -219c10 39 19 76 37 124l106 286h167l-242 -536h-172c0 185 2 229 13 400c-20 -66 -26 -80 -68 -190c-37 -93 -64 -162 -82 -210h-176
z" />
    <glyph glyph-name="x" unicode="x" horiz-adv-x="458" 
d="M177 286l-72 250h158l30 -146l84 146h166l-181 -269l72 -267h-156l-34 156l-93 -156h-175z" />
    <glyph glyph-name="y" unicode="y" horiz-adv-x="437" 
d="M95 535h159l-44 -471c11 52 13 58 29 104l125 367h173l-217 -495c-89 -201 -122 -236 -307 -236c-23 0 -47 1 -71 1l22 118c101 -2 113 -1 115 71z" />
    <glyph glyph-name="z" unicode="z" horiz-adv-x="417" 
d="M94 436l23 100h370l-23 -98l-265 -330h206l-25 -108h-398l23 102l270 334h-181z" />
    <glyph glyph-name="braceleft" unicode="{" horiz-adv-x="396" 
d="M91 210v86c51 9 84 16 84 144v68c0 67 0 113 36 152c41 46 97 46 182 47v-73c-85 0 -85 -38 -85 -121v-59c0 -90 0 -183 -110 -198v-6c110 -15 110 -109 110 -196v-70c0 -72 1 -112 85 -112v-73c-85 1 -141 1 -182 47c-36 39 -36 83 -36 155v53c0 78 0 149 -84 156z" />
    <glyph glyph-name="bar" unicode="|" horiz-adv-x="229" 
d="M225 750v-1000h-127v1000h127z" />
    <glyph glyph-name="braceright" unicode="}" horiz-adv-x="396" 
d="M395 296v-86c-51 -10 -84 -16 -84 -144v-68c0 -67 0 -113 -36 -152c-42 -46 -97 -46 -182 -47v73c85 0 85 38 85 121v59c0 90 0 183 110 198v6c-110 15 -110 109 -110 195v71c0 72 -1 112 -85 112v73c85 -1 140 -1 182 -47c36 -39 36 -83 36 -155v-53
c0 -78 0 -149 84 -156z" />
    <glyph glyph-name="asciitilde" unicode="~" horiz-adv-x="729" 
d="M621 387l52 -104c-71 -77 -130 -84 -156 -84c-13 0 -42 0 -105 32c-52 26 -75 37 -102 37c-43 0 -59 -18 -105 -70l-55 103c24 33 69 94 155 94c39 0 58 -9 140 -46c20 -10 50 -23 76 -23c44 0 79 38 100 61z" />
    <glyph glyph-name="exclamdown" unicode="&#xa1;" horiz-adv-x="292" 
d="M147 553l36 153h148l-36 -153h-148zM49 127l109 349h92l-51 -340l-31 -136h-148z" />
    <glyph glyph-name="cent" unicode="&#xa2;" horiz-adv-x="479" 
d="M145 -142l31 135c-44 10 -123 38 -123 136c0 70 58 279 61 287c38 115 118 123 189 130l26 109h78l-27 -113c46 -8 137 -25 137 -134c0 -28 -7 -52 -13 -72h-154c7 27 14 53 14 68c0 23 -15 36 -39 36c-35 0 -53 -15 -66 -70l-50 -214c-1 -6 -2 -12 -2 -19
c0 -15 4 -22 6 -24c7 -11 21 -18 37 -18c45 0 53 36 65 91h161c-12 -53 -26 -118 -75 -157c-33 -26 -102 -47 -149 -43l-30 -128h-77z" />
    <glyph glyph-name="sterling" unicode="&#xa3;" horiz-adv-x="646" 
d="M112 367h124c-12 47 -21 85 -21 131c0 171 105 221 234 221c58 0 107 -10 141 -30c37 -21 59 -55 59 -107c0 -34 -9 -71 -20 -114h-152c7 29 18 73 18 88c0 27 -13 47 -51 47c-39 0 -51 -27 -55 -38c-16 -37 -20 -87 -20 -110c0 -29 5 -58 11 -88h199l-13 -57h-177
c4 -22 8 -43 8 -67c0 -40 -12 -70 -26 -104c11 -7 24 -16 43 -16c43 0 51 33 71 113h156c-36 -156 -56 -248 -184 -248c-76 0 -115 39 -141 65c-20 -21 -64 -65 -153 -65c-98 0 -145 57 -145 121c0 65 49 133 141 133c55 0 82 -17 113 -37c2 42 -2 60 -18 105h-155zM253 116
c-18 22 -43 50 -87 50c-36 0 -56 -23 -56 -51c0 -40 40 -49 59 -49c42 0 68 30 84 50z" />
    <glyph glyph-name="fraction" unicode="&#x2044;" horiz-adv-x="125" 
d="M-100 0l348 706h79l-348 -706h-79z" />
    <glyph glyph-name="yen" unicode="&#xa5;" horiz-adv-x="521" 
d="M655 707l-169 -274h74l-23 -94h-110l-37 -62h130l-20 -94h-150l-41 -183h-170l42 183h-147l24 94h132l-8 62h-110l23 94h74l-40 274h167l23 -292l145 292h191z" />
    <glyph glyph-name="florin" unicode="&#x192;" horiz-adv-x="333" 
d="M182 536l13 52c20 80 30 122 168 122c31 0 63 -1 94 -3l-23 -98c-22 1 -56 1 -68 -8c-9 -7 -12 -17 -24 -65h70l-23 -96h-70l-116 -494c-20 -83 -35 -122 -167 -122c-32 0 -64 1 -95 3l23 98c67 -2 72 1 83 38c42 148 81 331 113 477h-65l23 96h64z" />
    <glyph glyph-name="section" unicode="&#xa7;" horiz-adv-x="458" 
d="M22 96l78 81c27 -29 72 -77 128 -77c21 0 43 8 43 28c0 17 -10 26 -46 53c-93 70 -138 104 -138 176c0 87 63 115 92 129c-15 15 -43 42 -43 92c0 76 65 141 185 141c112 0 170 -59 196 -85l-74 -79c-33 30 -67 58 -114 58c-9 0 -40 0 -40 -27c0 -16 7 -21 61 -60
c86 -63 128 -94 128 -164c0 -84 -61 -119 -93 -137c18 -22 39 -48 39 -93c0 -68 -48 -144 -185 -144c-134 0 -197 83 -217 108zM224 448c-8 -8 -25 -24 -25 -48c0 -25 18 -40 29 -49c1 -1 95 -71 112 -85c14 12 29 25 29 47c0 26 -13 36 -65 74c-27 20 -54 41 -80 61z" />
    <glyph glyph-name="currency" unicode="&#xa4;" horiz-adv-x="667" 
d="M713 571l-82 -80c19 -31 43 -72 43 -151c0 -81 -26 -125 -43 -153l81 -82l-96 -95l-80 82c-24 -14 -74 -42 -150 -42c-79 0 -122 26 -152 43l-81 -81l-95 95l82 81c-18 29 -43 70 -43 152c0 81 25 121 42 151l-79 80l94 95l80 -80c25 15 72 43 152 43
c81 0 122 -25 151 -43l80 80zM549 340c0 106 -85 165 -163 165c-80 0 -164 -59 -164 -166s88 -165 164 -165c95 0 163 74 163 166z" />
    <glyph glyph-name="quotesingle" unicode="'" horiz-adv-x="208" 
d="M241 669l-53 -261h-31l-55 250c-2 10 -2 21 -2 24c0 46 41 67 75 67c28 0 68 -15 68 -64c0 -6 -1 -11 -2 -16z" />
    <glyph glyph-name="quotedblleft" unicode="&#x201c;" horiz-adv-x="437" 
d="M344 550l119 157h67l-91 -157h55l-35 -150h-149zM143 550l116 157h69l-89 -157h53l-35 -150h-149z" />
    <glyph glyph-name="guillemotleft" unicode="&#xab;" horiz-adv-x="437" 
d="M281 350l191 132l-34 -145l-81 -57l55 -57l-30 -127l-130 127zM82 351l190 130l-33 -143l-83 -57l56 -58l-29 -125l-131 125z" />
    <glyph glyph-name="guilsinglleft" unicode="&#x2039;" horiz-adv-x="229" 
d="M47 220l31 128l190 132l-34 -146l-84 -55l59 -59l-30 -125z" />
    <glyph glyph-name="guilsinglright" unicode="&#x203a;" horiz-adv-x="229" 
d="M221 227l-190 -132l33 146l84 56l-57 57l29 126l131 -126z" />
    <glyph glyph-name="fi" unicode="&#xfb01;" horiz-adv-x="562" 
d="M173 536l12 52c20 80 30 122 167 122c32 0 63 -1 95 -3l-23 -98c-56 1 -68 -1 -77 -21c-4 -9 -11 -39 -14 -52h70l-23 -96h-70l-101 -440h-160l101 440h-64l22 96h65zM494 706h159l-28 -120h-159zM331 0l124 536h159l-124 -536h-159z" />
    <glyph glyph-name="fl" unicode="&#xfb02;" horiz-adv-x="562" 
d="M173 536l12 52c20 80 30 122 167 122c32 0 63 -1 95 -3l-23 -98c-56 1 -68 -1 -77 -21c-4 -9 -11 -39 -14 -52h70l-23 -96h-70l-101 -440h-160l101 440h-64l22 96h65zM332 0l163 706h160l-163 -706h-160z" />
    <glyph glyph-name="endash" unicode="&#x2013;" horiz-adv-x="521" 
d="M73 295l26 115h453l-26 -115h-453z" />
    <glyph glyph-name="dagger" unicode="&#x2020;" horiz-adv-x="437" 
d="M230 536l39 171h156l-39 -171h126l-29 -129h-127l-94 -407h-160l98 407h-123l29 129h124z" />
    <glyph glyph-name="daggerdbl" unicode="&#x2021;" horiz-adv-x="458" 
d="M278 0h-151l37 156h-129l29 121h128l42 177h-128l28 122h128l31 130h151l-31 -130h123l-28 -122h-122l-43 -177h123l-28 -121h-122z" />
    <glyph glyph-name="periodcentered" unicode="&#xb7;" horiz-adv-x="250" 
d="M82 274l35 153h150l-36 -153h-149z" />
    <glyph glyph-name="paragraph" unicode="&#xb6;" horiz-adv-x="667" 
d="M355 706h250v-78h-36v-795h-84v795h-118v-795h-84v459c-34 9 -154 41 -154 199c0 33 5 105 66 161c53 50 114 54 160 54z" />
    <glyph glyph-name="bullet" unicode="&#x2022;" horiz-adv-x="333" 
d="M374 352c0 -86 -60 -155 -152 -155c-99 0 -158 80 -158 155c0 83 67 156 157 156c78 0 153 -57 153 -156z" />
    <glyph glyph-name="quotesinglbase" unicode="&#x201a;" horiz-adv-x="250" 
d="M18 0l36 153h151l-36 -153l-122 -155h-64l91 155h-56z" />
    <glyph glyph-name="quotedblbase" unicode="&#x201e;" horiz-adv-x="437" 
d="M10 0l35 153h149l-35 -153l-118 -154h-66l90 154h-55zM212 0l36 153h148l-35 -153l-116 -154h-68l88 154h-53z" />
    <glyph glyph-name="quotedblright" unicode="&#x201d;" horiz-adv-x="437" 
d="M385 707h149l-35 -152l-116 -155h-69l90 155h-54zM148 555l35 152h150l-35 -152l-120 -155h-66l91 155h-55z" />
    <glyph glyph-name="guillemotright" unicode="&#xbb;" horiz-adv-x="437" 
d="M97 356l29 128l131 -128l-30 -128l-190 -131l33 143l82 60zM296 356l29 125l131 -125l-30 -128l-189 -130l33 143l83 57z" />
    <glyph glyph-name="ellipsis" unicode="&#x2026;" horiz-adv-x="1000" 
d="M64 0l35 153h149l-35 -153h-149zM397 0l35 153h149l-35 -153h-149zM730 0l35 153h150l-36 -153h-149z" />
    <glyph glyph-name="perthousand" unicode="&#x2030;" horiz-adv-x="1125" 
d="M403 560l-37 -155c-22 -90 -37 -151 -151 -151c-84 0 -128 32 -128 94c0 27 6 54 13 81l33 144c18 76 34 142 161 142c75 0 117 -34 117 -95c0 -17 -4 -41 -8 -60zM236 584l-43 -182c-3 -12 -8 -36 -8 -43c0 -18 13 -25 32 -25c26 0 34 10 42 41l46 199c6 28 7 31 7 38
c0 25 -18 25 -26 25c-36 0 -40 -12 -50 -53zM234 0l348 706h79l-348 -706h-79zM801 295l-37 -154c-22 -90 -36 -151 -151 -151c-86 0 -128 33 -128 94c0 27 6 54 13 81l33 143c18 76 34 142 161 142c75 0 117 -34 117 -95c0 -17 -4 -40 -8 -60zM634 319l-43 -182
c-3 -11 -8 -36 -8 -42c0 -18 13 -25 32 -25c26 0 34 10 42 41l46 198c6 28 7 31 7 39c0 24 -18 24 -26 24c-36 0 -40 -12 -50 -53zM1134 295l-37 -154c-22 -90 -36 -151 -151 -151c-86 0 -128 33 -128 94c0 27 6 54 13 81l33 143c18 76 34 142 161 142c75 0 117 -34 117 -95
c0 -17 -4 -40 -8 -60zM967 319l-43 -182c-3 -11 -8 -36 -8 -42c0 -18 13 -25 32 -25c26 0 34 10 42 41l46 198c6 28 7 31 7 39c0 24 -18 24 -26 24c-36 0 -40 -12 -50 -53z" />
    <glyph glyph-name="questiondown" unicode="&#xbf;" horiz-adv-x="458" 
d="M277 201h146c-27 -115 -33 -140 -63 -169c-41 -39 -118 -45 -160 -45c-63 0 -176 10 -176 127c0 32 11 76 22 106c15 41 32 55 101 102c99 68 100 69 116 154h150c-26 -115 -30 -131 -72 -166c-18 -16 -121 -79 -139 -99c-19 -21 -29 -57 -29 -82c0 -23 13 -37 37 -37
c43 0 47 21 67 109zM467 707l-36 -153h-150l36 153h150z" />
    <glyph glyph-name="grave" unicode="`" horiz-adv-x="250" 
d="M-16 730h168l95 -124h-122z" />
    <glyph glyph-name="acute" unicode="&#xb4;" horiz-adv-x="250" 
d="M-4 605l93 125h166l-138 -125h-121z" />
    <glyph glyph-name="circumflex" unicode="&#x2c6;" horiz-adv-x="250" 
d="M94 730h126l71 -125h-105l-37 62l-67 -62h-122z" />
    <glyph glyph-name="tilde" unicode="&#x2dc;" horiz-adv-x="250" 
d="M6 615h-44c5 39 15 117 105 117c23 0 46 -7 65 -14c22 -8 50 -18 68 -18c29 0 37 16 43 29h45c-7 -39 -21 -119 -108 -119c-23 0 -46 7 -66 15c-22 8 -53 20 -68 20c-26 0 -35 -19 -40 -30z" />
    <glyph glyph-name="macron" unicode="&#xaf;" horiz-adv-x="250" 
d="M-27 691h324l-19 -87h-325z" />
    <glyph glyph-name="breve" unicode="&#x2d8;" horiz-adv-x="250" 
d="M201 727h70c-9 -46 -53 -122 -163 -122c-77 0 -128 46 -128 98c0 9 2 16 3 24h68c1 -17 2 -43 62 -43c62 0 77 16 88 43z" />
    <glyph glyph-name="dotaccent" unicode="&#x2d9;" horiz-adv-x="250" 
d="M70 729h138l-28 -125h-139z" />
    <glyph glyph-name="dieresis" unicode="&#xa8;" horiz-adv-x="250" 
d="M151 604l28 125h140l-28 -125h-140zM-41 729h139l-29 -125h-138z" />
    <glyph glyph-name="ring" unicode="&#x2da;" horiz-adv-x="250" 
d="M126 587c-57 0 -106 33 -106 87c2 57 43 86 102 86c57 0 104 -25 107 -87c0 -62 -57 -86 -103 -86zM171 673c0 18 -8 47 -46 47s-48 -29 -48 -47s10 -48 48 -48c37 0 46 34 46 48z" />
    <glyph glyph-name="cedilla" unicode="&#xb8;" horiz-adv-x="250" 
d="M123 0h82l-47 -56c22 -3 72 -8 72 -66c0 -43 -34 -96 -120 -96c-40 0 -64 12 -91 25v46c19 -7 38 -15 59 -15c41 0 51 32 51 46c0 20 -17 36 -40 36c-7 0 -13 -1 -19 -2c-1 7 -3 19 -4 26z" />
    <glyph glyph-name="hungarumlaut" unicode="&#x2dd;" horiz-adv-x="250" 
d="M14 606h-115l94 119h159zM211 606h-117l94 119h163z" />
    <glyph glyph-name="ogonek" unicode="&#x2db;" horiz-adv-x="250" 
d="M90 0h100c-24 -27 -43 -48 -43 -67c0 -20 27 -21 41 -21c12 0 21 1 30 2l-25 -104c-13 -1 -26 -3 -44 -3c-30 0 -117 1 -117 75c0 38 17 61 58 118z" />
    <glyph glyph-name="caron" unicode="&#x2c7;" horiz-adv-x="250" 
d="M-40 730h105l38 -61l66 61h122l-133 -124h-127z" />
    <glyph glyph-name="emdash" unicode="&#x2014;" horiz-adv-x="583" 
d="M73 295l27 114h513l-26 -114h-514z" />
    <glyph glyph-name="AE" unicode="&#xc6;" horiz-adv-x="792" 
d="M-10 0l409 706h494l-29 -122h-182l-38 -163h172l-28 -121h-172l-41 -178h200l-28 -122h-370l46 196h-137l-103 -196h-193zM451 318l73 312l-172 -312h99z" />
    <glyph glyph-name="ordfeminine" unicode="&#xaa;" horiz-adv-x="313" 
d="M390 604l-44 -192c-1 -5 -2 -10 -2 -15c0 -14 3 -17 11 -24h-118l7 32c-21 -18 -48 -41 -86 -41c-6 0 -67 0 -67 61c0 24 13 81 34 105c22 26 81 44 166 66c6 29 7 33 7 38c0 11 -7 17 -25 17c-12 0 -33 0 -41 -48h-97c15 57 17 64 29 77c22 24 67 35 113 35
c51 0 79 -12 94 -23c24 -17 24 -39 24 -50c0 -13 -3 -26 -5 -38zM256 451l20 77c-22 -6 -49 -14 -60 -23c-15 -12 -20 -46 -20 -54c0 -12 7 -19 21 -19c15 0 26 8 39 19z" />
    <glyph glyph-name="Lslash" unicode="&#x141;" horiz-adv-x="396" 
d="M40 305l63 45l82 356h171l-48 -209l127 91l-32 -139l-127 -91l-55 -238h181l-28 -120h-352l49 211l-63 -45z" />
    <glyph glyph-name="Oslash" unicode="&#xd8;" horiz-adv-x="542" 
d="M11 43l52 56c-3 15 -5 27 -5 45c0 39 7 67 27 159c18 78 37 155 59 232c27 91 53 184 236 184c128 0 167 -36 193 -61l38 40l42 -40l-55 -59c2 -11 3 -18 3 -28c0 -25 -6 -68 -36 -195c-20 -86 -38 -153 -52 -203c-28 -104 -59 -185 -232 -185c-126 0 -159 28 -190 55
l-38 -39zM238 290l199 219c2 12 3 24 3 36c0 54 -53 54 -59 54c-59 0 -73 -50 -103 -158c-14 -53 -30 -111 -40 -151zM415 399l-195 -214c-1 -7 -2 -15 -2 -22c0 -42 33 -54 58 -54c53 0 70 44 90 110c4 13 9 31 49 180z" />
    <glyph glyph-name="OE" unicode="&#x152;" horiz-adv-x="708" 
d="M303 0l10 43c-21 -23 -49 -55 -123 -55c-79 0 -138 32 -138 131c0 70 58 296 79 377c41 155 71 223 195 223c81 0 110 -28 132 -48l8 35h350l-28 -122h-179l-37 -161h168l-28 -123h-169l-40 -177h194l-28 -123h-366zM367 274l52 226c4 20 9 42 9 60c0 32 -22 44 -49 44
c-50 0 -58 -30 -92 -168c-14 -56 -61 -251 -61 -293c0 -33 26 -43 44 -43c57 0 66 40 97 174z" />
    <glyph glyph-name="ordmasculine" unicode="&#xba;" horiz-adv-x="313" 
d="M264 715c41 0 130 -4 130 -92c0 -33 -28 -157 -42 -192c-11 -24 -33 -68 -126 -68c-66 0 -123 19 -123 91c0 36 27 146 33 164c11 38 33 97 128 97zM263 477l30 133c1 4 2 8 2 13c0 20 -18 23 -26 23c-25 0 -30 -22 -33 -37l-31 -133c-2 -6 -3 -12 -3 -19
c0 -13 6 -24 25 -24c26 0 30 20 36 44z" />
    <glyph glyph-name="ae" unicode="&#xe6;" horiz-adv-x="729" 
d="M237 365h-153c18 74 25 100 48 127c42 49 125 57 170 57c52 0 105 -14 134 -55c41 53 112 55 141 55c66 0 104 -20 112 -25c48 -27 59 -72 59 -107c0 -39 -13 -97 -32 -179h-252c-7 -30 -18 -76 -18 -102c0 -37 26 -39 40 -39c44 0 53 37 63 80h163
c-14 -53 -29 -111 -79 -148c-35 -26 -92 -42 -154 -42c-40 0 -133 7 -161 75c-16 -22 -55 -76 -169 -76c-26 0 -130 4 -130 106c0 36 17 95 29 121c28 60 67 72 150 97l133 40c5 20 12 50 12 59c0 27 -19 38 -41 38c-41 0 -48 -24 -65 -82zM485 332h97c4 18 14 57 14 71
c0 29 -19 39 -43 39c-22 0 -38 -11 -46 -27c-5 -11 -18 -66 -22 -83zM277 118l30 130c-80 -27 -95 -31 -111 -59c-9 -17 -17 -48 -17 -63c0 -25 14 -38 37 -38c30 0 47 16 61 30z" />
    <glyph glyph-name="dotlessi" unicode="&#x131;" horiz-adv-x="250" 
d="M19 0l123 536h160l-124 -536h-159z" />
    <glyph glyph-name="lslash" unicode="&#x142;" horiz-adv-x="250" 
d="M59 352l49 33l74 321h160l-45 -195l48 32l-28 -121l-48 -32l-90 -390h-160l61 263l-48 -33z" />
    <glyph glyph-name="oslash" unicode="&#xf8;" 
d="M456 519l44 51l37 -30l-42 -50c15 -22 26 -38 26 -81c0 -62 -38 -209 -58 -271c-28 -93 -71 -151 -214 -151c-39 0 -102 5 -150 38l-40 -47l-36 31l44 52c-8 14 -16 31 -16 70c0 58 38 203 57 261c35 108 86 157 208 157c49 0 98 -6 140 -30zM255 381l-50 -160l167 199
c-5 10 -14 29 -48 29c-48 0 -64 -51 -69 -68zM371 344l-179 -211c2 -12 6 -46 53 -46c30 0 50 15 66 54c15 36 61 204 60 203z" />
    <glyph glyph-name="oe" unicode="&#x153;" horiz-adv-x="750" 
d="M574 174h162c-11 -44 -24 -91 -56 -126c-31 -36 -81 -60 -167 -60c-56 0 -105 11 -134 58c-18 -18 -59 -59 -155 -59c-45 0 -85 11 -115 30c-38 25 -55 60 -55 111c0 71 55 274 60 290c11 35 43 133 206 133c92 0 121 -38 135 -56c14 12 25 23 49 34c33 15 71 20 106 20
c93 0 167 -40 167 -128c0 -31 -4 -48 -35 -185h-252c-8 -34 -21 -87 -21 -102c0 -24 19 -36 41 -36c47 0 54 34 64 76zM510 330h99c6 25 14 60 14 75c0 37 -31 39 -41 39c-50 0 -58 -46 -72 -114zM307 152l50 212c3 16 6 29 6 41c0 37 -32 37 -43 37c-39 0 -52 -32 -62 -78
l-46 -197c-4 -17 -4 -27 -4 -31c0 -28 22 -39 42 -39c45 0 53 36 57 55z" />
    <glyph glyph-name="germandbls" unicode="&#xdf;" horiz-adv-x="521" 
d="M18 0l127 548c23 103 57 171 224 171c97 0 196 -28 196 -118c0 -26 -10 -74 -13 -85c-17 -74 -32 -111 -94 -124c-5 -1 -11 -2 -15 -3c3 -1 10 -3 16 -5c36 -13 59 -41 59 -80c0 -32 -32 -174 -51 -223c-27 -64 -81 -87 -161 -87c-33 0 -68 3 -102 6l20 86
c13 -1 26 -3 40 -3c45 0 50 22 65 86l22 95c3 16 5 28 7 38c6 43 -23 50 -67 51l22 98c38 -1 59 -1 74 18s27 90 27 107c0 14 -3 36 -48 36c-38 0 -51 -18 -61 -64l-127 -548h-160z" />
    <glyph glyph-name="brokenbar" unicode="&#xa6;" horiz-adv-x="229" 
d="M98 -175v350h127v-350h-127zM225 325h-127v350h127v-350z" />
    <glyph glyph-name="Ograve" unicode="&#xd2;" horiz-adv-x="542" 
d="M68 232l65 273c27 115 55 213 250 213c37 0 113 -5 159 -37c48 -34 55 -81 55 -116c0 -46 -15 -109 -26 -155l-56 -238c-33 -138 -91 -187 -247 -187c-93 0 -212 26 -212 159c0 27 7 66 12 88zM323 548c-13 -44 -98 -368 -98 -394c0 -27 19 -41 52 -41c47 0 59 34 75 97
c10 38 54 223 64 265c14 55 15 61 15 71c0 27 -16 45 -49 45c-44 0 -53 -24 -59 -43zM239 877h169l93 -123h-121z" />
    <glyph glyph-name="Ccedilla" unicode="&#xc7;" horiz-adv-x="521" 
d="M534 267l-25 -103c-31 -128 -76 -170 -216 -177l-36 -43c22 -3 72 -9 72 -66c0 -43 -34 -96 -120 -96c-41 0 -64 12 -91 25v46c19 -7 38 -15 59 -15c41 0 51 32 51 46c0 20 -17 36 -40 36c-7 0 -13 -1 -19 -2c-1 7 -3 19 -4 26l44 44c-122 13 -160 81 -160 138
c0 11 0 33 16 99l68 298c27 116 63 195 249 195c161 0 208 -60 208 -143c0 -15 -2 -32 -6 -50l-21 -87h-164l19 83c2 7 3 15 3 23c0 40 -30 45 -53 45c-12 0 -47 0 -57 -42l-84 -362c-3 -12 -6 -25 -6 -36c0 -40 40 -40 49 -40c54 0 62 34 89 158h175z" />
    <glyph glyph-name="multiply" unicode="&#xd7;" horiz-adv-x="667" 
d="M652 110l-89 -91l-183 182l-182 -182l-90 91l182 181l-182 183l90 88l182 -180l183 180l89 -88l-181 -183z" />
    <glyph glyph-name="Ntilde" unicode="&#xd1;" horiz-adv-x="562" 
d="M185 706h166c30 -230 36 -281 51 -438c19 119 24 144 43 234c22 102 24 112 43 204h157l-164 -706h-164l-25 203c-14 114 -16 127 -25 232l-86 -435h-159zM321 763h-46c6 41 18 117 105 117c25 0 48 -8 65 -14c22 -8 51 -19 68 -19c30 0 37 16 44 30h45
c-7 -38 -21 -119 -107 -119c-26 0 -50 8 -68 15c-22 9 -50 20 -66 20c-29 0 -35 -17 -40 -30z" />
    <glyph glyph-name="Otilde" unicode="&#xd5;" horiz-adv-x="542" 
d="M68 232l65 273c27 115 55 213 250 213c37 0 113 -5 159 -37c48 -34 55 -81 55 -116c0 -46 -15 -109 -26 -155l-56 -238c-33 -138 -91 -187 -247 -187c-93 0 -212 26 -212 159c0 27 7 66 12 88zM323 548c-13 -44 -98 -368 -98 -394c0 -27 19 -41 52 -41c47 0 59 34 75 97
c10 38 54 223 64 265c14 55 15 61 15 71c0 27 -16 45 -49 45c-44 0 -53 -24 -59 -43zM316 763h-46c6 41 18 117 105 117c25 0 48 -8 65 -14c22 -8 51 -19 68 -19c30 0 37 16 44 30h45c-7 -38 -21 -119 -107 -119c-26 0 -50 8 -68 15c-22 9 -50 20 -66 20
c-29 0 -35 -17 -40 -30z" />
    <glyph glyph-name="mu" unicode="&#x3bc;" 
d="M271 0l13 56c-29 -44 -43 -59 -68 -59c-17 0 -26 8 -35 16l-48 -206h-161l168 729h161l-80 -350c-5 -22 -9 -40 -9 -51c0 -26 19 -39 38 -39c41 0 55 47 64 86l81 354h161l-124 -536h-161z" />
    <glyph glyph-name="Oacute" unicode="&#xd3;" horiz-adv-x="542" 
d="M68 232l65 273c27 115 55 213 250 213c37 0 113 -5 159 -37c48 -34 55 -81 55 -116c0 -46 -15 -109 -26 -155l-56 -238c-33 -138 -91 -187 -247 -187c-93 0 -212 26 -212 159c0 27 7 66 12 88zM323 548c-13 -44 -98 -368 -98 -394c0 -27 19 -41 52 -41c47 0 59 34 75 97
c10 38 54 223 64 265c14 55 15 61 15 71c0 27 -16 45 -49 45c-44 0 -53 -24 -59 -43zM340 754l93 124h166l-137 -124h-122z" />
    <glyph glyph-name="thorn" unicode="&#xfe;" 
d="M524 376l-52 -226c-24 -104 -68 -162 -156 -162c-62 0 -104 30 -116 73c-2 5 -1 19 -3 11l-61 -265h-161l208 899h161l-58 -239c28 35 64 80 138 80c60 0 108 -35 108 -108c0 -15 -2 -37 -8 -63zM312 150l48 209c4 17 8 33 8 45c0 27 -17 41 -41 41
c-40 0 -51 -30 -55 -49l-51 -221c-3 -12 -6 -29 -6 -39c0 -30 22 -42 42 -42c27 0 46 17 55 56z" />
    <glyph glyph-name="eth" unicode="&#xf0;" 
d="M546 655l-57 -17c16 -29 37 -84 37 -153c0 -66 -19 -202 -57 -334c-21 -73 -46 -163 -218 -163c-114 0 -198 36 -198 144c0 58 45 237 54 264c11 37 48 156 182 156c21 0 72 -5 98 -40c-2 30 -6 50 -27 91l-119 -34l-22 59l109 31c-16 23 -17 26 -24 34l125 39
c4 -6 24 -31 27 -37l67 20zM312 168l50 214c2 7 3 14 3 21c0 26 -20 40 -44 40c-44 0 -52 -37 -58 -61l-49 -214c-3 -9 -5 -20 -5 -31c0 -21 12 -41 44 -41c42 0 51 35 59 72z" />
    <glyph glyph-name="Igrave" unicode="&#xcc;" horiz-adv-x="271" 
d="M21 0l163 706h171l-163 -706h-171zM103 877h169l93 -123h-121z" />
    <glyph glyph-name="Ocircumflex" unicode="&#xd4;" horiz-adv-x="542" 
d="M68 232l65 273c27 115 55 213 250 213c37 0 113 -5 159 -37c48 -34 55 -81 55 -116c0 -46 -15 -109 -26 -155l-56 -238c-33 -138 -91 -187 -247 -187c-93 0 -212 26 -212 159c0 27 7 66 12 88zM323 548c-13 -44 -98 -368 -98 -394c0 -27 19 -41 52 -41c47 0 59 34 75 97
c10 38 54 223 64 265c14 55 15 61 15 71c0 27 -16 45 -49 45c-44 0 -53 -24 -59 -43zM383 878h127l71 -125h-105l-37 62l-66 -62h-123z" />
    <glyph glyph-name="Eacute" unicode="&#xc9;" horiz-adv-x="437" 
d="M20 0l163 706h355l-28 -122h-183l-37 -160h174l-27 -120h-175l-41 -180h200l-28 -124h-373zM288 754l93 124h166l-137 -124h-122z" />
    <glyph glyph-name="Edieresis" unicode="&#xcb;" horiz-adv-x="437" 
d="M20 0l163 706h355l-28 -122h-183l-37 -160h174l-27 -120h-175l-41 -180h200l-28 -124h-373zM406 751l29 125h140l-30 -125h-139zM214 876h139l-29 -125h-139z" />
    <glyph glyph-name="Aacute" unicode="&#xc1;" horiz-adv-x="542" 
d="M-13 0l303 706h275l-51 -706h-168l15 157h-131l-60 -157h-183zM372 278l32 363l-128 -363h96zM345 754l93 124h166l-137 -124h-122z" />
    <glyph glyph-name="Zcaron" unicode="&#x17d;" horiz-adv-x="479" 
d="M123 583l28 124h425l-30 -131l-352 -446h249l-30 -130h-439l30 130l356 453h-237zM241 878h105l37 -61l67 61h121l-132 -124h-126z" />
    <glyph glyph-name="ccedilla" unicode="&#xe7;" horiz-adv-x="479" 
d="M315 187h161c-22 -102 -47 -187 -204 -200l-36 -43c22 -3 72 -8 72 -66c0 -43 -34 -96 -120 -96c-41 0 -64 12 -91 25v46c19 -7 38 -15 59 -15c41 0 51 32 51 46c0 20 -17 36 -40 36c-7 0 -13 -1 -19 -2c-1 7 -3 19 -4 26l47 47c-35 7 -138 26 -138 139
c0 70 59 281 61 286c41 123 143 132 218 132c111 0 185 -48 185 -136c0 -26 -6 -51 -13 -76h-154c7 27 14 53 14 68c0 22 -14 36 -40 36c-44 0 -56 -32 -65 -70l-50 -214c-1 -6 -2 -12 -2 -18c0 -15 4 -22 6 -25c7 -11 21 -18 37 -18c45 0 53 36 65 92z" />
    <glyph glyph-name="logicalnot" unicode="&#xac;" horiz-adv-x="667" 
d="M574 0v227h-539v127h666v-354h-127z" />
    <glyph glyph-name="Atilde" unicode="&#xc3;" horiz-adv-x="542" 
d="M-13 0l303 706h275l-51 -706h-168l15 157h-131l-60 -157h-183zM372 278l32 363l-128 -363h96zM321 763h-46c6 41 18 117 105 117c25 0 48 -8 65 -14c22 -8 51 -19 68 -19c30 0 37 16 44 30h45c-7 -38 -21 -119 -107 -119c-26 0 -50 8 -68 15c-22 9 -50 20 -66 20
c-29 0 -35 -17 -40 -30z" />
    <glyph glyph-name="Thorn" unicode="&#xde;" horiz-adv-x="521" 
d="M22 0l163 707l172 4l-28 -122h94c41 0 150 0 150 -112c0 -15 -2 -37 -7 -58l-23 -103c-6 -28 -21 -74 -36 -98c-19 -28 -53 -54 -147 -54h-130l-37 -164h-171zM362 467h-61l-41 -175h67c21 0 43 2 57 39c4 13 22 80 22 102c0 33 -28 33 -44 34z" />
    <glyph glyph-name="onequarter" unicode="&#xbc;" horiz-adv-x="792" 
d="M256 265h-98l73 320c-29 -16 -39 -19 -73 -29l22 94c38 4 75 19 95 57h84zM216 0l348 707h79l-348 -707h-79zM462 93l17 77l193 272h131l-63 -274h41l-16 -73h-41l-23 -95h-100l23 93h-162zM565 170h78l17 74c14 57 24 93 30 115c-30 -48 -34 -54 -63 -97z" />
    <glyph glyph-name="Acircumflex" unicode="&#xc2;" horiz-adv-x="542" 
d="M-13 0l303 706h275l-51 -706h-168l15 157h-131l-60 -157h-183zM372 278l32 363l-128 -363h96zM388 878h127l71 -125h-105l-37 62l-66 -62h-123z" />
    <glyph glyph-name="Odieresis" unicode="&#xd6;" horiz-adv-x="542" 
d="M68 232l65 273c27 115 55 213 250 213c37 0 113 -5 159 -37c48 -34 55 -81 55 -116c0 -46 -15 -109 -26 -155l-56 -238c-33 -138 -91 -187 -247 -187c-93 0 -212 26 -212 159c0 27 7 66 12 88zM323 548c-13 -44 -98 -368 -98 -394c0 -27 19 -41 52 -41c47 0 59 34 75 97
c10 38 54 223 64 265c14 55 15 61 15 71c0 27 -16 45 -49 45c-44 0 -53 -24 -59 -43zM465 751l29 125h140l-30 -125h-139zM273 876h139l-29 -125h-139z" />
    <glyph glyph-name="threequarters" unicode="&#xbe;" horiz-adv-x="792" 
d="M245 0l348 707h79l-348 -707h-79zM462 93l17 77l193 272h131l-64 -274h42l-17 -73h-40l-23 -95h-101l23 93h-161zM565 170h78l17 74c14 58 23 93 30 115c-30 -48 -34 -53 -63 -97zM229 570h-99c23 97 34 145 155 145c58 0 121 -21 121 -85c0 -21 -7 -57 -16 -84
c-4 -12 -15 -43 -54 -49c-2 -1 -3 -1 -4 -1l4 -1c4 -1 35 -10 35 -49c0 -13 -12 -93 -36 -134c-25 -42 -68 -54 -128 -54c-68 0 -122 24 -122 92c0 23 5 45 10 66h99c-10 -42 -11 -47 -11 -59c0 -23 17 -27 34 -27c16 0 28 5 36 27c4 11 15 62 15 78c0 22 -9 22 -72 22
l18 77c61 0 63 0 73 8c15 13 21 67 21 74c0 25 -22 25 -28 25c-35 0 -40 -16 -51 -71z" />
    <glyph glyph-name="Ucircumflex" unicode="&#xdb;" horiz-adv-x="542" 
d="M77 293l98 414h170l-116 -505c-2 -6 -6 -24 -6 -39c0 -29 21 -42 52 -42c49 0 61 42 71 81l116 505h170l-117 -505c-25 -108 -60 -213 -253 -213c-113 0 -213 40 -210 155c1 33 7 72 25 149zM378 878h127l71 -125h-105l-37 62l-66 -62h-123z" />
    <glyph glyph-name="Ugrave" unicode="&#xd9;" horiz-adv-x="542" 
d="M77 293l98 414h170l-116 -505c-2 -6 -6 -24 -6 -39c0 -29 21 -42 52 -42c49 0 61 42 71 81l116 505h170l-117 -505c-25 -108 -60 -213 -253 -213c-113 0 -213 40 -210 155c1 33 7 72 25 149zM239 877h169l93 -123h-121z" />
    <glyph glyph-name="Udieresis" unicode="&#xdc;" horiz-adv-x="542" 
d="M77 293l98 414h170l-116 -505c-2 -6 -6 -24 -6 -39c0 -29 21 -42 52 -42c49 0 61 42 71 81l116 505h170l-117 -505c-25 -108 -60 -213 -253 -213c-113 0 -213 40 -210 155c1 33 7 72 25 149zM454 751l29 125h140l-30 -125h-139zM262 876h139l-29 -125h-139z" />
    <glyph glyph-name="Iacute" unicode="&#xcd;" horiz-adv-x="271" 
d="M21 0l163 706h171l-163 -706h-171zM199 754l93 124h166l-137 -124h-122z" />
    <glyph glyph-name="Agrave" unicode="&#xc0;" horiz-adv-x="542" 
d="M-13 0l303 706h275l-51 -706h-168l15 157h-131l-60 -157h-183zM372 278l32 363l-128 -363h96zM249 877h169l93 -123h-121z" />
    <glyph glyph-name="degree" unicode="&#xb0;" horiz-adv-x="354" 
d="M269 745c99 0 172 -80 172 -173s-76 -172 -172 -172c-95 0 -172 78 -172 172c0 93 73 173 172 173zM270 630c-30 0 -56 -24 -56 -56c0 -30 25 -55 56 -55c30 0 55 24 55 55c0 33 -26 56 -55 56z" />
    <glyph glyph-name="onehalf" unicode="&#xbd;" horiz-adv-x="792" 
d="M256 265h-99l74 319c-29 -15 -39 -19 -74 -28l22 94c38 4 76 19 95 56h85zM203 0l348 706h80l-349 -706h-79zM743 0h-280c13 100 42 142 88 176c20 15 119 76 130 91c13 17 22 66 22 78c0 26 -20 26 -28 26c-31 0 -36 -20 -52 -94h-101c23 111 35 171 156 171
c49 0 129 -7 129 -89c0 -22 -6 -71 -25 -113c-18 -39 -39 -51 -88 -81c-74 -45 -87 -55 -100 -83h168z" />
    <glyph glyph-name="minus" unicode="&#x2212;" horiz-adv-x="667" 
d="M704 354v-127h-667v127h667z" />
    <glyph glyph-name="Yacute" unicode="&#xdd;" horiz-adv-x="521" 
d="M320 418l144 288h191l-293 -476l-53 -230h-170l57 244l-67 462h167zM324 754l93 124h166l-137 -124h-122z" />
    <glyph glyph-name="twosuperior" unicode="&#xb2;" horiz-adv-x="333" 
d="M346 265h-280c13 100 42 142 88 176c20 15 119 76 130 91c13 17 22 66 22 78c0 26 -20 26 -28 26c-31 0 -36 -20 -52 -94h-101c23 111 35 171 156 171c49 0 129 -7 129 -89c0 -22 -6 -71 -25 -113c-18 -39 -39 -51 -88 -81c-74 -45 -87 -55 -100 -83h168z" />
    <glyph glyph-name="Uacute" unicode="&#xda;" horiz-adv-x="542" 
d="M77 293l98 414h170l-116 -505c-2 -6 -6 -24 -6 -39c0 -29 21 -42 52 -42c49 0 61 42 71 81l116 505h170l-117 -505c-25 -108 -60 -213 -253 -213c-113 0 -213 40 -210 155c1 33 7 72 25 149zM335 754l93 124h166l-137 -124h-122z" />
    <glyph glyph-name="registered" unicode="&#xae;" horiz-adv-x="833" 
d="M297 586h163c51 0 83 -2 109 -11c59 -18 81 -71 81 -113c0 -67 -49 -91 -80 -105c27 -17 41 -29 51 -86c9 -59 16 -100 39 -143h-126c-14 27 -17 46 -25 99c-14 90 -14 93 -102 93v-192h-110v458zM407 502v-95h48c43 0 85 0 85 49c0 41 -37 45 -46 45c-8 1 -16 1 -87 1z
M820 352c0 -190 -150 -355 -357 -355c-185 0 -355 145 -355 356c0 205 164 356 355 356c201 0 357 -155 357 -357zM788 352c0 180 -138 325 -325 325c-176 0 -323 -142 -323 -324c0 -183 146 -324 323 -324c189 0 325 150 325 323z" />
    <glyph glyph-name="copyright" unicode="&#xa9;" horiz-adv-x="833" 
d="M820 351c0 -189 -150 -354 -357 -354c-185 0 -355 145 -355 356c0 205 164 356 356 356c200 0 356 -155 356 -358zM788 351c0 181 -138 326 -324 326c-177 0 -324 -143 -324 -324c0 -183 146 -324 324 -324c187 0 324 150 324 322zM581 270l87 -80
c-65 -69 -132 -84 -196 -84c-156 0 -250 105 -250 250c0 126 86 248 250 248c109 0 166 -54 196 -85l-87 -84c-38 37 -70 49 -111 49c-85 0 -124 -65 -124 -129c0 -83 54 -130 127 -130c60 0 91 30 108 45z" />
    <glyph glyph-name="Ecircumflex" unicode="&#xca;" horiz-adv-x="437" 
d="M20 0l163 706h355l-28 -122h-183l-37 -160h174l-27 -120h-175l-41 -180h200l-28 -124h-373zM331 878h127l71 -125h-105l-37 62l-66 -62h-123z" />
    <glyph glyph-name="trademark" unicode="&#x2122;" horiz-adv-x="688" 
d="M766 706v-332h-82l4 177c0 17 1 35 6 68c-5 -18 -9 -39 -14 -54l-56 -191h-75l-59 192c-3 7 -12 43 -14 51c3 -22 6 -44 7 -66l4 -177h-81v332h106l76 -240l71 240h107zM279 639v-265h-84v265h-102v67h286v-67h-100z" />
    <glyph glyph-name="plusminus" unicode="&#xb1;" horiz-adv-x="667" 
d="M445 371v-209h-127v209h-229v127h229v208h127v-208h227v-127h-227zM672 127v-127h-583v127h583z" />
    <glyph glyph-name="Eth" unicode="&#xd0;" horiz-adv-x="542" 
d="M22 0l77 333h-54l24 102h54l62 272h198c125 0 223 -2 223 -120c0 -18 -3 -43 -8 -68l-80 -347c-29 -128 -56 -172 -195 -172h-301zM334 333h-64l-50 -215c43 0 61 0 75 2c15 2 43 6 57 66l78 342c1 6 2 12 2 19c0 33 -21 39 -50 39h-54l-35 -151h65z" />
    <glyph glyph-name="Adieresis" unicode="&#xc4;" horiz-adv-x="542" 
d="M-13 0l303 706h275l-51 -706h-168l15 157h-131l-60 -157h-183zM372 278l32 363l-128 -363h96zM474 751l29 125h140l-30 -125h-139zM282 876h139l-29 -125h-139z" />
    <glyph glyph-name="Aring" unicode="&#xc5;" horiz-adv-x="542" 
d="M-13 0l303 706h275l-51 -706h-168l15 157h-131l-60 -157h-183zM372 278l32 363l-128 -363h96zM451 723c-57 0 -106 33 -106 87c2 57 43 86 102 86c57 0 104 -25 107 -87c0 -62 -57 -86 -103 -86zM496 809c0 18 -8 47 -46 47s-48 -29 -48 -47s10 -48 48 -48
c37 0 46 34 46 48z" />
    <glyph glyph-name="Ydieresis" unicode="&#x178;" horiz-adv-x="521" 
d="M320 418l144 288h191l-293 -476l-53 -230h-170l57 244l-67 462h167zM437 751l29 125h140l-30 -125h-139zM245 876h139l-29 -125h-139z" />
    <glyph glyph-name="divide" unicode="&#xf7;" horiz-adv-x="667" 
d="M451 110c0 -39 -29 -80 -81 -80c-43 0 -80 33 -80 80c0 42 32 81 81 81c46 0 80 -36 80 -81zM451 468c0 -39 -29 -80 -81 -80c-43 0 -80 33 -80 80c0 42 32 81 81 81c46 0 80 -36 80 -81zM704 353v-127h-666v127h666z" />
    <glyph glyph-name="onesuperior" unicode="&#xb9;" horiz-adv-x="333" 
d="M256 265h-98l73 320c-29 -16 -39 -20 -73 -29l22 94c38 4 75 19 95 56h84z" />
    <glyph glyph-name="threesuperior" unicode="&#xb3;" horiz-adv-x="333" 
d="M229 570h-99c23 97 34 145 155 145c58 0 121 -21 121 -85c0 -21 -7 -57 -16 -84c-4 -12 -15 -43 -54 -49c-2 -1 -3 -1 -4 -1l4 -1c4 -1 35 -10 35 -49c0 -13 -12 -93 -36 -134c-25 -42 -68 -54 -128 -54c-68 0 -122 24 -122 92c0 23 5 45 10 66h99
c-10 -42 -11 -47 -11 -59c0 -23 17 -27 34 -27c16 0 28 5 36 27c4 11 15 62 15 78c0 22 -9 22 -72 22l18 77c61 0 63 0 73 8c15 13 21 67 21 74c0 25 -22 25 -28 25c-35 0 -40 -16 -51 -71z" />
    <glyph glyph-name="Egrave" unicode="&#xc8;" horiz-adv-x="437" 
d="M20 0l163 706h355l-28 -122h-183l-37 -160h174l-27 -120h-175l-41 -180h200l-28 -124h-373zM192 877h169l93 -123h-121z" />
    <glyph glyph-name="Idieresis" unicode="&#xcf;" horiz-adv-x="271" 
d="M21 0l163 706h171l-163 -706h-171zM317 751l29 125h140l-30 -125h-139zM125 876h139l-29 -125h-139z" />
    <glyph glyph-name="Scaron" unicode="&#x160;" horiz-adv-x="521" 
d="M59 243h170c-8 -30 -19 -74 -19 -91c0 -46 42 -46 51 -46c21 0 39 6 51 22c14 18 24 65 24 85c0 24 -10 37 -37 59c-14 11 -21 16 -67 51c-78 58 -103 77 -103 143c0 54 33 152 63 192c18 23 47 60 172 60c127 0 212 -31 212 -132c0 -28 -7 -58 -18 -104h-162
c5 21 15 60 15 76c0 33 -28 40 -45 40c-32 0 -44 -18 -47 -24c-14 -20 -21 -64 -21 -78c0 -32 11 -40 70 -84c129 -97 145 -118 145 -177c0 -14 -2 -28 -5 -42c-25 -140 -79 -205 -250 -205c-92 0 -220 17 -220 138c0 36 11 77 21 117zM267 878h105l37 -61l67 61h121
l-132 -124h-126z" />
    <glyph glyph-name="Icircumflex" unicode="&#xce;" horiz-adv-x="271" 
d="M21 0l163 706h171l-163 -706h-171zM242 878h127l71 -125h-105l-37 62l-66 -62h-123z" />
    <glyph glyph-name="aacute" unicode="&#xe1;" horiz-adv-x="479" 
d="M495 369l-71 -308c-1 -8 -3 -16 -3 -24c0 -24 7 -29 15 -37h-182l14 56c-36 -31 -81 -70 -144 -70c-11 0 -106 0 -106 97c0 33 21 127 54 165s81 52 268 106c5 21 12 55 12 63c0 28 -26 30 -43 30c-45 0 -53 -24 -68 -78h-152c23 93 35 124 84 149c37 19 88 28 144 28
c92 0 187 -23 187 -117c0 -20 -4 -40 -9 -60zM284 122l33 129c-36 -11 -82 -25 -101 -40c-26 -21 -33 -78 -33 -88c0 -18 8 -33 35 -33c28 0 49 17 66 32zM267 605l93 125h166l-138 -125h-121z" />
    <glyph glyph-name="acircumflex" unicode="&#xe2;" horiz-adv-x="479" 
d="M495 369l-71 -308c-1 -8 -3 -16 -3 -24c0 -24 7 -29 15 -37h-182l14 56c-36 -31 -81 -70 -144 -70c-11 0 -106 0 -106 97c0 33 21 127 54 165s81 52 268 106c5 21 12 55 12 63c0 28 -26 30 -43 30c-45 0 -53 -24 -68 -78h-152c23 93 35 124 84 149c37 19 88 28 144 28
c92 0 187 -23 187 -117c0 -20 -4 -40 -9 -60zM284 122l33 129c-36 -11 -82 -25 -101 -40c-26 -21 -33 -78 -33 -88c0 -18 8 -33 35 -33c28 0 49 17 66 32zM310 730h126l71 -125h-105l-37 62l-67 -62h-122z" />
    <glyph glyph-name="adieresis" unicode="&#xe4;" horiz-adv-x="479" 
d="M495 369l-71 -308c-1 -8 -3 -16 -3 -24c0 -24 7 -29 15 -37h-182l14 56c-36 -31 -81 -70 -144 -70c-11 0 -106 0 -106 97c0 33 21 127 54 165s81 52 268 106c5 21 12 55 12 63c0 28 -26 30 -43 30c-45 0 -53 -24 -68 -78h-152c23 93 35 124 84 149c37 19 88 28 144 28
c92 0 187 -23 187 -117c0 -20 -4 -40 -9 -60zM284 122l33 129c-36 -11 -82 -25 -101 -40c-26 -21 -33 -78 -33 -88c0 -18 8 -33 35 -33c28 0 49 17 66 32zM381 604l28 125h140l-28 -125h-140zM189 729h139l-29 -125h-138z" />
    <glyph glyph-name="agrave" unicode="&#xe0;" horiz-adv-x="479" 
d="M495 369l-71 -308c-1 -8 -3 -16 -3 -24c0 -24 7 -29 15 -37h-182l14 56c-36 -31 -81 -70 -144 -70c-11 0 -106 0 -106 97c0 33 21 127 54 165s81 52 268 106c5 21 12 55 12 63c0 28 -26 30 -43 30c-45 0 -53 -24 -68 -78h-152c23 93 35 124 84 149c37 19 88 28 144 28
c92 0 187 -23 187 -117c0 -20 -4 -40 -9 -60zM284 122l33 129c-36 -11 -82 -25 -101 -40c-26 -21 -33 -78 -33 -88c0 -18 8 -33 35 -33c28 0 49 17 66 32zM162 730h168l95 -124h-122z" />
    <glyph glyph-name="aring" unicode="&#xe5;" horiz-adv-x="479" 
d="M495 369l-71 -308c-1 -8 -3 -16 -3 -24c0 -24 7 -29 15 -37h-182l14 56c-36 -31 -81 -70 -144 -70c-11 0 -106 0 -106 97c0 33 21 127 54 165s81 52 268 106c5 21 12 55 12 63c0 28 -26 30 -43 30c-45 0 -53 -24 -68 -78h-152c23 93 35 124 84 149c37 19 88 28 144 28
c92 0 187 -23 187 -117c0 -20 -4 -40 -9 -60zM284 122l33 129c-36 -11 -82 -25 -101 -40c-26 -21 -33 -78 -33 -88c0 -18 8 -33 35 -33c28 0 49 17 66 32zM362 587c-57 0 -106 33 -106 87c2 57 43 86 102 86c57 0 104 -25 107 -87c0 -62 -57 -86 -103 -86zM407 673
c0 18 -8 47 -46 47s-48 -29 -48 -47s10 -48 48 -48c37 0 46 34 46 48z" />
    <glyph glyph-name="atilde" unicode="&#xe3;" horiz-adv-x="479" 
d="M495 369l-71 -308c-1 -8 -3 -16 -3 -24c0 -24 7 -29 15 -37h-182l14 56c-36 -31 -81 -70 -144 -70c-11 0 -106 0 -106 97c0 33 21 127 54 165s81 52 268 106c5 21 12 55 12 63c0 28 -26 30 -43 30c-45 0 -53 -24 -68 -78h-152c23 93 35 124 84 149c37 19 88 28 144 28
c92 0 187 -23 187 -117c0 -20 -4 -40 -9 -60zM284 122l33 129c-36 -11 -82 -25 -101 -40c-26 -21 -33 -78 -33 -88c0 -18 8 -33 35 -33c28 0 49 17 66 32zM243 615h-44c5 39 15 117 105 117c23 0 46 -7 65 -14c22 -8 50 -18 68 -18c29 0 37 16 43 29h45
c-7 -39 -21 -119 -108 -119c-23 0 -46 7 -66 15c-22 8 -53 20 -68 20c-26 0 -35 -19 -40 -30z" />
    <glyph glyph-name="eacute" unicode="&#xe9;" 
d="M317 173h163c-10 -40 -21 -87 -54 -123c-32 -37 -85 -64 -179 -64c-27 0 -102 4 -149 41c-23 18 -44 46 -44 103c0 71 51 268 68 308c18 43 60 111 206 111c64 0 189 -12 189 -131c0 -22 -4 -45 -9 -68c-8 -39 -16 -75 -26 -120h-256c-8 -31 -18 -75 -18 -98
c0 -5 1 -11 3 -16c7 -12 23 -20 44 -20c45 0 51 31 62 77zM248 328h103c4 17 14 59 14 73c0 10 -2 20 -8 27c-10 12 -28 14 -38 14c-49 0 -56 -36 -71 -114zM277 605l93 125h166l-138 -125h-121z" />
    <glyph glyph-name="ecircumflex" unicode="&#xea;" 
d="M317 173h163c-10 -40 -21 -87 -54 -123c-32 -37 -85 -64 -179 -64c-27 0 -102 4 -149 41c-23 18 -44 46 -44 103c0 71 51 268 68 308c18 43 60 111 206 111c64 0 189 -12 189 -131c0 -22 -4 -45 -9 -68c-8 -39 -16 -75 -26 -120h-256c-8 -31 -18 -75 -18 -98
c0 -5 1 -11 3 -16c7 -12 23 -20 44 -20c45 0 51 31 62 77zM248 328h103c4 17 14 59 14 73c0 10 -2 20 -8 27c-10 12 -28 14 -38 14c-49 0 -56 -36 -71 -114zM320 730h126l71 -125h-105l-37 62l-67 -62h-122z" />
    <glyph glyph-name="edieresis" unicode="&#xeb;" 
d="M317 173h163c-10 -40 -21 -87 -54 -123c-32 -37 -85 -64 -179 -64c-27 0 -102 4 -149 41c-23 18 -44 46 -44 103c0 71 51 268 68 308c18 43 60 111 206 111c64 0 189 -12 189 -131c0 -22 -4 -45 -9 -68c-8 -39 -16 -75 -26 -120h-256c-8 -31 -18 -75 -18 -98
c0 -5 1 -11 3 -16c7 -12 23 -20 44 -20c45 0 51 31 62 77zM248 328h103c4 17 14 59 14 73c0 10 -2 20 -8 27c-10 12 -28 14 -38 14c-49 0 -56 -36 -71 -114zM396 604l28 125h140l-28 -125h-140zM204 729h139l-29 -125h-138z" />
    <glyph glyph-name="egrave" unicode="&#xe8;" 
d="M317 173h163c-10 -40 -21 -87 -54 -123c-32 -37 -85 -64 -179 -64c-27 0 -102 4 -149 41c-23 18 -44 46 -44 103c0 71 51 268 68 308c18 43 60 111 206 111c64 0 189 -12 189 -131c0 -22 -4 -45 -9 -68c-8 -39 -16 -75 -26 -120h-256c-8 -31 -18 -75 -18 -98
c0 -5 1 -11 3 -16c7 -12 23 -20 44 -20c45 0 51 31 62 77zM248 328h103c4 17 14 59 14 73c0 10 -2 20 -8 27c-10 12 -28 14 -38 14c-49 0 -56 -36 -71 -114zM172 730h168l95 -124h-122z" />
    <glyph glyph-name="iacute" unicode="&#xed;" horiz-adv-x="250" 
d="M19 0l123 536h160l-124 -536h-159zM152 605l93 125h166l-138 -125h-121z" />
    <glyph glyph-name="icircumflex" unicode="&#xee;" horiz-adv-x="250" 
d="M19 0l123 536h160l-124 -536h-159zM195 730h126l71 -125h-105l-37 62l-67 -62h-122z" />
    <glyph glyph-name="idieresis" unicode="&#xef;" horiz-adv-x="250" 
d="M19 0l123 536h160l-124 -536h-159zM271 604l28 125h140l-28 -125h-140zM79 729h139l-29 -125h-138z" />
    <glyph glyph-name="igrave" unicode="&#xec;" horiz-adv-x="250" 
d="M19 0l123 536h160l-124 -536h-159zM47 730h168l95 -124h-122z" />
    <glyph glyph-name="ntilde" unicode="&#xf1;" 
d="M522 399l-92 -399h-159l86 377c3 12 3 21 3 25c0 38 -33 38 -37 38c-46 0 -57 -48 -60 -64l-87 -376h-156l123 536h157l-13 -53c60 63 125 65 142 65c30 0 100 -10 100 -97c0 -19 -3 -36 -7 -52zM253 615h-44c5 39 15 117 105 117c23 0 46 -7 65 -14c22 -8 50 -18 68 -18
c29 0 37 16 43 29h45c-7 -39 -21 -119 -108 -119c-23 0 -46 7 -66 15c-22 8 -53 20 -68 20c-26 0 -35 -19 -40 -30z" />
    <glyph glyph-name="oacute" unicode="&#xf3;" 
d="M313 550c80 0 206 -13 206 -147c0 -56 -43 -234 -58 -280c-19 -56 -50 -135 -210 -135c-120 0 -197 40 -197 145c0 58 45 235 54 263c17 57 51 154 205 154zM313 168l48 214c2 7 3 14 3 21c1 26 -19 40 -43 40c-43 0 -52 -37 -57 -61l-50 -214c-2 -9 -4 -20 -4 -31
c0 -21 12 -41 43 -41c43 0 51 35 60 72zM277 605l93 125h166l-138 -125h-121z" />
    <glyph glyph-name="ocircumflex" unicode="&#xf4;" 
d="M313 550c80 0 206 -13 206 -147c0 -56 -43 -234 -58 -280c-19 -56 -50 -135 -210 -135c-120 0 -197 40 -197 145c0 58 45 235 54 263c17 57 51 154 205 154zM313 168l48 214c2 7 3 14 3 21c1 26 -19 40 -43 40c-43 0 -52 -37 -57 -61l-50 -214c-2 -9 -4 -20 -4 -31
c0 -21 12 -41 43 -41c43 0 51 35 60 72zM320 730h126l71 -125h-105l-37 62l-67 -62h-122z" />
    <glyph glyph-name="odieresis" unicode="&#xf6;" 
d="M313 550c80 0 206 -13 206 -147c0 -56 -43 -234 -58 -280c-19 -56 -50 -135 -210 -135c-120 0 -197 40 -197 145c0 58 45 235 54 263c17 57 51 154 205 154zM313 168l48 214c2 7 3 14 3 21c1 26 -19 40 -43 40c-43 0 -52 -37 -57 -61l-50 -214c-2 -9 -4 -20 -4 -31
c0 -21 12 -41 43 -41c43 0 51 35 60 72zM397 604l28 125h140l-28 -125h-140zM205 729h139l-29 -125h-138z" />
    <glyph glyph-name="ograve" unicode="&#xf2;" 
d="M313 550c80 0 206 -13 206 -147c0 -56 -43 -234 -58 -280c-19 -56 -50 -135 -210 -135c-120 0 -197 40 -197 145c0 58 45 235 54 263c17 57 51 154 205 154zM313 168l48 214c2 7 3 14 3 21c1 26 -19 40 -43 40c-43 0 -52 -37 -57 -61l-50 -214c-2 -9 -4 -20 -4 -31
c0 -21 12 -41 43 -41c43 0 51 35 60 72zM172 730h168l95 -124h-122z" />
    <glyph glyph-name="otilde" unicode="&#xf5;" 
d="M313 550c80 0 206 -13 206 -147c0 -56 -43 -234 -58 -280c-19 -56 -50 -135 -210 -135c-120 0 -197 40 -197 145c0 58 45 235 54 263c17 57 51 154 205 154zM313 168l48 214c2 7 3 14 3 21c1 26 -19 40 -43 40c-43 0 -52 -37 -57 -61l-50 -214c-2 -9 -4 -20 -4 -31
c0 -21 12 -41 43 -41c43 0 51 35 60 72zM253 615h-44c5 39 15 117 105 117c23 0 46 -7 65 -14c22 -8 50 -18 68 -18c29 0 37 16 43 29h45c-7 -39 -21 -119 -108 -119c-23 0 -46 7 -66 15c-22 8 -53 20 -68 20c-26 0 -35 -19 -40 -30z" />
    <glyph glyph-name="scaron" unicode="&#x161;" horiz-adv-x="458" 
d="M39 183h154c-5 -16 -11 -35 -11 -53c0 -28 23 -34 40 -34c5 0 18 0 29 7c19 13 23 40 23 54c0 20 -8 28 -20 38c-15 13 -100 74 -102 76c-37 29 -59 58 -59 99c0 31 15 77 27 99c29 52 97 79 184 79c105 0 186 -41 186 -123c0 -19 -4 -37 -8 -55h-151c3 10 9 32 9 43
c0 4 -1 30 -40 30c-48 0 -48 -50 -48 -52c0 -19 11 -29 31 -44c1 -1 50 -35 56 -40c68 -47 102 -71 102 -129c0 -33 -14 -93 -41 -126c-26 -32 -81 -63 -175 -63c-76 0 -109 14 -124 21c-51 23 -74 55 -74 107c0 25 6 45 12 66zM199 730h105l38 -61l66 61h122l-133 -124
h-127z" />
    <glyph glyph-name="uacute" unicode="&#xfa;" 
d="M140 536h162l-81 -350c-6 -25 -9 -39 -9 -51c0 -27 19 -39 38 -39c43 0 56 51 64 86l81 354h161l-124 -536h-160l12 56c-25 -26 -64 -66 -136 -66c-39 0 -105 14 -105 97c0 10 1 31 8 60zM277 605l93 125h166l-138 -125h-121z" />
    <glyph glyph-name="ucircumflex" unicode="&#xfb;" 
d="M140 536h162l-81 -350c-6 -25 -9 -39 -9 -51c0 -27 19 -39 38 -39c43 0 56 51 64 86l81 354h161l-124 -536h-160l12 56c-25 -26 -64 -66 -136 -66c-39 0 -105 14 -105 97c0 10 1 31 8 60zM320 730h126l71 -125h-105l-37 62l-67 -62h-122z" />
    <glyph glyph-name="udieresis" unicode="&#xfc;" 
d="M140 536h162l-81 -350c-6 -25 -9 -39 -9 -51c0 -27 19 -39 38 -39c43 0 56 51 64 86l81 354h161l-124 -536h-160l12 56c-25 -26 -64 -66 -136 -66c-39 0 -105 14 -105 97c0 10 1 31 8 60zM404 604l28 125h140l-28 -125h-140zM212 729h139l-29 -125h-138z" />
    <glyph glyph-name="ugrave" unicode="&#xf9;" 
d="M140 536h162l-81 -350c-6 -25 -9 -39 -9 -51c0 -27 19 -39 38 -39c43 0 56 51 64 86l81 354h161l-124 -536h-160l12 56c-25 -26 -64 -66 -136 -66c-39 0 -105 14 -105 97c0 10 1 31 8 60zM172 730h168l95 -124h-122z" />
    <glyph glyph-name="yacute" unicode="&#xfd;" horiz-adv-x="437" 
d="M95 535h159l-44 -471c11 52 13 58 29 104l125 367h173l-217 -495c-89 -201 -122 -236 -307 -236c-23 0 -47 1 -71 1l22 118c101 -2 113 -1 115 71zM247 605l93 125h166l-138 -125h-121z" />
    <glyph glyph-name="ydieresis" unicode="&#xff;" horiz-adv-x="437" 
d="M95 535h159l-44 -471c11 52 13 58 29 104l125 367h173l-217 -495c-89 -201 -122 -236 -307 -236c-23 0 -47 1 -71 1l22 118c101 -2 113 -1 115 71zM366 604l28 125h140l-28 -125h-140zM174 729h139l-29 -125h-138z" />
    <glyph glyph-name="zcaron" unicode="&#x17e;" horiz-adv-x="417" 
d="M94 436l23 100h370l-23 -98l-265 -330h206l-25 -108h-398l23 102l270 334h-181zM169 730h105l38 -61l66 61h122l-133 -124h-127z" />
  </font>
</defs>
</svg>
