<?xml version="1.0" standalone="no"?>
<!DOCTYPE svg PUBLIC "-//W3C//DTD SVG 1.1//EN" "http://www.w3.org/Graphics/SVG/1.1/DTD/svg11.dtd" >
<svg xmlns="http://www.w3.org/2000/svg" width="100%" height="100%">
<metadata>
Created by FontXChange 20110222 at Fri Jun  1 16:54:44 2018
 By Suzi Rubino
Copyright (c) 1991 Adobe Systems Incorporated.  All Rights Reserved.Berthold Akzidenz Grotesk is a registered trademark of H. Berthold AG.
</metadata>
<defs>
<font id="AkzidenzGroteskBE-LightCn" horiz-adv-x="313" >
  <font-face 
    font-family="AkzidenzGroteskBE"
    font-weight="200"
    font-stretch="normal"
    units-per-em="1000"
    panose-1="2 0 3 3 0 0 0 0 0 0"
    ascent="800"
    descent="-200"
    x-height="503"
    cap-height="706"
    bbox="-138 -250 856 880"
    underline-thickness="50"
    underline-position="-100"
    stemh="43"
    stemv="43"
    unicode-range="U+0020-FB02"
  />
    <missing-glyph />
    <glyph glyph-name="space" unicode=" " horiz-adv-x="229" 
 />
    <glyph glyph-name="exclam" unicode="!" horiz-adv-x="187" 
d="M91 330v376h49v-384l-12 -136h-27zM92 0v90h45v-90h-45z" />
    <glyph glyph-name="quotedbl" unicode="&#x22;" horiz-adv-x="396" 
d="M320 706l-32 -254h-17l-28 241c0 5 -1 10 -1 14c0 32 24 42 40 42c21 0 42 -15 38 -43zM153 706l-32 -254h-17l-28 241c0 5 -1 9 -1 14c0 32 23 42 40 42c20 0 42 -15 38 -43z" />
    <glyph glyph-name="numbersign" unicode="#" horiz-adv-x="583" 
d="M556 304v-41h-177l-38 -263h-42l38 263h-117l-38 -263h-42l37 263h-171v41h177l15 111h-169v41h175l34 250h43l-33 -250h116l36 250h40l-33 -250h170v-41h-176l-16 -111h171zM226 304h116l16 111h-116z" />
    <glyph glyph-name="dollar" unicode="$" horiz-adv-x="375" 
d="M176 709h29v-36c109 -15 109 -89 109 -171h-47c0 76 0 127 -78 127c-75 0 -75 -60 -75 -90c0 -74 11 -84 126 -194c73 -70 93 -114 93 -182c0 -34 0 -144 -127 -163v-69h-30v68c-44 7 -84 26 -107 65c-22 38 -22 82 -22 149h45c0 -65 0 -84 8 -106c15 -47 59 -63 90 -63
c17 0 36 5 51 14c39 24 45 63 45 101c0 79 -30 106 -119 188c-90 81 -101 120 -101 191c0 117 67 129 110 135v36z" />
    <glyph glyph-name="percent" unicode="%" horiz-adv-x="583" 
d="M20 367v232c0 32 0 109 96 109c88 0 88 -67 88 -114v-228c0 -25 0 -106 -91 -106c-93 0 -93 85 -93 107zM167 366v232c0 33 0 71 -54 71c-55 0 -55 -42 -55 -63v-235c0 -23 0 -74 55 -74c41 0 54 32 54 69zM91 -58l366 843c8 -3 19 -8 26 -12l-367 -843
c-7 4 -18 9 -25 12zM374 103v231c0 32 0 109 96 109c88 0 88 -67 88 -114v-228c0 -25 0 -106 -91 -106c-93 0 -93 85 -93 108zM521 101v233c0 32 0 70 -54 70c-55 0 -55 -42 -55 -63v-235c0 -22 0 -74 55 -74c41 0 54 32 54 69z" />
    <glyph glyph-name="ampersand" unicode="&#x26;" horiz-adv-x="437" 
d="M419 39v-41c-70 0 -90 7 -122 32c-19 -15 -49 -39 -116 -39c-92 0 -149 55 -149 141c0 83 47 141 95 199c-15 44 -34 99 -34 160c0 66 30 119 96 119c48 0 85 -30 85 -87c0 -64 -43 -122 -98 -195c28 -62 62 -133 124 -234c48 65 50 151 48 248h44
c0 -146 -15 -214 -64 -279c13 -11 32 -25 70 -25c7 0 14 0 21 1zM159 374c26 35 72 95 72 147c0 28 -15 51 -45 51c-52 0 -52 -73 -52 -83c0 -20 3 -63 25 -115zM146 285c-31 -38 -70 -92 -70 -147c0 -12 2 -106 109 -106c48 0 69 16 84 28c-51 79 -92 156 -123 225z" />
    <glyph glyph-name="quoteright" unicode="&#x2019;" horiz-adv-x="146" 
d="M51 615v91h45v-91c0 -63 -19 -77 -46 -90v22c20 13 25 24 25 68h-24z" />
    <glyph glyph-name="parenleft" unicode="(" horiz-adv-x="229" 
d="M192 -82v-57c-33 35 -69 73 -106 158c-23 54 -57 156 -57 272c0 61 9 136 40 217c40 105 81 152 122 199v-56c-25 -34 -58 -78 -88 -179c-19 -61 -29 -123 -29 -187c0 -60 13 -136 29 -193c27 -93 64 -141 89 -174z" />
    <glyph glyph-name="parenright" unicode=")" horiz-adv-x="229" 
d="M37 650v58c33 -35 69 -73 106 -159c23 -54 57 -156 57 -271c0 -63 -10 -137 -40 -218c-39 -104 -81 -152 -122 -198v56c25 34 58 78 88 179c19 60 29 123 29 186c0 60 -13 137 -29 193c-27 94 -64 142 -89 174z" />
    <glyph glyph-name="asterisk" unicode="*" horiz-adv-x="271" 
d="M117 706h36v-85l82 27l11 -31l-83 -31l50 -69l-28 -21l-51 69l-45 -69l-30 21l48 71l-81 23l10 33l81 -23v85z" />
    <glyph glyph-name="plus" unicode="+" horiz-adv-x="500" 
d="M468 313v-44h-195v-197h-44v197h-198v44h198v195h44v-195h195z" />
    <glyph glyph-name="comma" unicode="," horiz-adv-x="146" 
d="M51 0v91h45v-91c0 -63 -19 -77 -46 -90v22c20 13 25 24 25 68h-24z" />
    <glyph glyph-name="hyphen" unicode="-" horiz-adv-x="250" 
d="M37 314h177v-43h-177v43z" />
    <glyph glyph-name="period" unicode="." horiz-adv-x="146" 
d="M52 90h44v-90h-44v90z" />
    <glyph glyph-name="slash" unicode="/" 
d="M34 0l200 706h45l-199 -706h-46z" />
    <glyph glyph-name="zero" unicode="0" horiz-adv-x="354" 
d="M36 159v393c0 37 0 157 147 157c38 0 68 -11 90 -27c26 -20 47 -48 47 -141v-390c0 -135 -102 -151 -142 -151c-32 0 -65 9 -89 27c-43 32 -53 81 -53 132zM274 150v409c0 95 -55 105 -93 105c-99 0 -99 -77 -99 -112v-383c0 -35 0 -71 28 -98c21 -21 47 -27 67 -27
c49 0 97 32 97 106z" />
    <glyph glyph-name="one" unicode="1" horiz-adv-x="354" 
d="M50 564v39c69 10 106 52 121 99h45v-702h-50v615c-48 -41 -78 -46 -116 -51z" />
    <glyph glyph-name="two" unicode="2" horiz-adv-x="354" 
d="M54 478v67c0 52 0 162 123 162c20 0 49 -4 76 -24c34 -27 47 -65 47 -139c0 -150 -10 -189 -127 -352c-63 -88 -67 -94 -90 -150h221v-42h-263v51c0 30 76 137 107 181c97 136 107 187 107 296c0 51 0 137 -77 137c-80 0 -80 -82 -80 -139v-48h-44z" />
    <glyph glyph-name="three" unicode="3" horiz-adv-x="354" 
d="M54 498v77c0 36 0 131 121 131c120 0 120 -103 120 -130v-68c0 -92 -61 -114 -101 -129c49 -11 120 -27 120 -153v-75c0 -29 0 -159 -142 -159c-31 0 -82 10 -111 57c-22 35 -23 71 -26 166h44c3 -94 4 -122 23 -148c14 -19 39 -33 74 -33c46 0 94 30 94 111
c0 72 0 111 -8 136c-20 66 -100 71 -144 74v46c85 0 132 44 132 103v59c0 45 -4 101 -78 101s-74 -63 -74 -91v-75h-44z" />
    <glyph glyph-name="four" unicode="4" horiz-adv-x="354" 
d="M19 271l182 430h62v-434h84v-42h-84v-225h-45v225h-199v46zM217 267v369l-153 -369h153z" />
    <glyph glyph-name="five" unicode="5" horiz-adv-x="354" 
d="M60 703h232v-43h-187v-210c19 12 41 27 80 27c117 0 117 -124 117 -160v-132c0 -78 0 -189 -128 -189s-128 103 -128 155v71h44v-55c0 -62 0 -128 80 -128c87 0 87 69 87 146v146c0 32 -2 103 -76 103c-83 0 -84 -70 -84 -97h-37v366z" />
    <glyph glyph-name="six" unicode="6" horiz-adv-x="354" 
d="M48 161v403c0 52 12 86 39 111c10 9 38 36 105 36c52 0 86 -20 102 -41c26 -32 26 -74 26 -151l-45 -1c0 81 0 149 -85 149c-19 0 -43 -5 -62 -20c-34 -27 -34 -65 -34 -91v-170c19 16 51 43 106 43c47 0 81 -22 99 -50c10 -16 20 -32 20 -123v-130
c0 -113 -96 -130 -136 -130c-25 0 -62 5 -92 30c-35 29 -43 69 -43 135zM274 138v146c0 24 0 101 -77 101c-17 0 -35 -4 -52 -13c-25 -13 -52 -35 -52 -102v-104c0 -41 0 -125 89 -125c18 0 41 4 60 19c21 16 32 42 32 78z" />
    <glyph glyph-name="seven" unicode="7" horiz-adv-x="354" 
d="M48 659v43h270v-43c-41 -92 -72 -161 -106 -290c-28 -109 -44 -198 -44 -289v-80h-49v47c0 135 27 249 39 298c36 148 68 216 113 314h-223z" />
    <glyph glyph-name="eight" unicode="8" horiz-adv-x="354" 
d="M51 497v98c0 25 0 118 126 118s129 -82 129 -130v-82c0 -76 -33 -91 -73 -106c54 -20 82 -47 82 -138v-129c0 -21 0 -135 -135 -135c-38 0 -75 12 -100 34c-35 32 -39 76 -39 121v121c0 94 48 113 78 126c-55 25 -68 50 -68 102zM260 506v70c0 38 0 95 -85 95
c-78 0 -78 -57 -78 -79v-95c0 -80 70 -80 80 -80c15 0 83 2 83 89zM269 141v123c0 21 0 108 -89 108c-93 0 -93 -80 -93 -104v-111c0 -39 0 -121 92 -121c90 0 90 83 90 105z" />
    <glyph glyph-name="nine" unicode="9" horiz-adv-x="354" 
d="M34 416v124c0 45 0 90 27 125c26 34 71 48 112 48c22 0 70 -5 102 -37c34 -35 34 -82 34 -129v-400c0 -29 0 -154 -142 -154c-48 0 -95 18 -117 58c-17 32 -17 59 -17 139h46v-54c0 -22 0 -98 86 -98c93 0 97 74 97 105v180c-28 -27 -66 -43 -105 -43
c-38 0 -71 14 -90 32c-33 32 -33 79 -33 104zM263 455v94c0 49 -2 119 -92 119c-34 0 -90 -13 -90 -91v-171c0 -53 32 -82 74 -82c15 0 45 3 70 23c36 28 38 69 38 108z" />
    <glyph glyph-name="colon" unicode=":" horiz-adv-x="187" 
d="M92 455h44v-90h-44v90zM92 90h44v-90h-44v90z" />
    <glyph glyph-name="semicolon" unicode=";" horiz-adv-x="187" 
d="M91 455h46v-91h-46v91zM91 0v91h45v-91c0 -63 -19 -77 -45 -90l-1 22c19 13 26 24 25 68h-24z" />
    <glyph glyph-name="less" unicode="&#x3c;" horiz-adv-x="500" 
d="M500 117v-49l-500 257v59l500 254v-50l-456 -233z" />
    <glyph glyph-name="equal" unicode="=" horiz-adv-x="500" 
d="M500 227v-44h-500v44h500zM500 403v-44h-500v44h500z" />
    <glyph glyph-name="greater" unicode="&#x3e;" horiz-adv-x="500" 
d="M500 325l-500 -257v49l456 238l-456 233v50l500 -254v-59z" />
    <glyph glyph-name="question" unicode="?" horiz-adv-x="354" 
d="M118 482h-46c-1 36 -2 51 -2 70c0 40 0 166 124 166c64 0 95 -39 108 -70c9 -22 16 -49 16 -131c0 -87 -16 -109 -55 -167c-41 -60 -46 -67 -46 -98v-78h-47v82c0 41 8 52 44 106c46 66 57 83 57 146c0 86 -4 168 -79 168s-75 -94 -75 -133c0 -19 1 -40 1 -61zM170 90h47
v-90h-47v90z" />
    <glyph glyph-name="at" unicode="@" horiz-adv-x="896" 
d="M792 59l23 -26c-29 -28 -75 -72 -154 -108c-79 -37 -148 -48 -209 -48c-197 0 -383 116 -383 355c0 244 189 480 461 480c190 0 297 -119 297 -287c0 -176 -110 -353 -228 -353c-13 0 -28 3 -42 11c-37 23 -35 59 -34 88c-24 -32 -73 -97 -154 -97c-27 0 -60 9 -85 35
c-39 39 -42 97 -42 124c0 140 96 281 208 281c84 0 111 -73 121 -102l18 79h53l-32 -145c-13 -60 -30 -134 -30 -177c0 -28 11 -55 40 -55c62 0 168 139 168 311c0 158 -103 250 -266 250c-225 0 -414 -206 -414 -443c0 -213 162 -318 343 -318c61 0 121 12 177 36
c86 35 133 80 164 109zM553 347c0 105 -67 121 -95 121c-101 0 -155 -143 -155 -235c0 -69 38 -112 92 -112c41 0 83 27 112 72c27 40 46 109 46 154z" />
    <glyph glyph-name="A" unicode="A" horiz-adv-x="375" 
d="M153 710h68l128 -710h-52l-36 215h-148l-37 -215h-52zM252 261l-55 327c-2 10 -6 41 -10 67c-1 -10 -2 -19 -3 -29c-2 -10 -3 -21 -5 -32l-58 -333h131z" />
    <glyph glyph-name="B" unicode="B" horiz-adv-x="375" 
d="M60 0v707h127c44 0 122 0 122 -116v-101c0 -84 -40 -97 -84 -107c88 -13 108 -47 108 -131v-120c0 -64 -20 -132 -133 -132h-140zM170 664h-62v-262h48c101 0 104 58 104 99v85c0 63 -24 78 -90 78zM160 359h-51v-316h83c88 0 92 48 92 110v100c0 49 -10 106 -124 106z
" />
    <glyph glyph-name="C" unicode="C" horiz-adv-x="375" 
d="M52 160v383c0 54 0 94 37 130c29 32 66 40 103 40c28 0 56 -6 79 -20c22 -13 55 -41 55 -116v-99h-49c0 108 0 128 -12 151c-13 26 -40 39 -68 39c-70 0 -97 -44 -97 -115v-344c0 -90 0 -174 98 -174c86 0 86 78 86 99v109h50v-109c0 -36 0 -145 -144 -145
c-53 0 -86 21 -107 46c-21 26 -31 55 -31 125z" />
    <glyph glyph-name="D" unicode="D" horiz-adv-x="396" 
d="M60 0v707h60c189 0 222 -87 222 -290v-157c0 -85 -6 -120 -15 -146c-16 -48 -61 -114 -174 -114h-93zM294 256v161c0 70 -4 123 -16 160c-29 84 -101 84 -169 84v-617c64 0 94 0 129 25c27 20 56 52 56 187z" />
    <glyph glyph-name="E" unicode="E" horiz-adv-x="333" 
d="M59 0v706h250v-44h-201v-272h165v-43h-166v-303h201v-44h-249z" />
    <glyph glyph-name="F" unicode="F" 
d="M58 0v706h250v-44h-201v-272h177v-43h-177v-347h-49z" />
    <glyph glyph-name="G" unicode="G" horiz-adv-x="396" 
d="M55 182v371c0 45 0 161 147 161c30 0 61 -7 85 -22c52 -34 52 -93 52 -115v-98h-48v73c0 48 0 120 -92 120c-43 0 -64 -18 -76 -34c-20 -27 -20 -52 -20 -108v-334c0 -55 2 -83 10 -104c14 -40 47 -59 81 -59c43 0 100 41 100 133v113h-104v43h152v-322h-37v56
c-12 -19 -43 -66 -117 -66c-11 0 -72 0 -106 54c-10 15 -27 43 -27 138z" />
    <glyph glyph-name="H" unicode="H" horiz-adv-x="396" 
d="M58 706h49v-314h182v314h49v-706h-49v349h-182v-349h-49v706z" />
    <glyph glyph-name="I" unicode="I" horiz-adv-x="167" 
d="M58 706h51v-706h-51v706z" />
    <glyph glyph-name="J" unicode="J" horiz-adv-x="333" 
d="M228 706h49v-577c0 -28 -2 -139 -124 -139c-34 0 -111 16 -111 131v101h48v-91c0 -21 0 -41 8 -58c10 -24 34 -39 65 -39c8 0 65 3 65 87v585z" />
    <glyph glyph-name="K" unicode="K" horiz-adv-x="354" 
d="M107 360l176 346h55l-150 -281l152 -425h-52l-130 366l-52 -98v-268h-48v706h49v-346z" />
    <glyph glyph-name="L" unicode="L" 
d="M58 0v706h49v-662h184v-44h-233z" />
    <glyph glyph-name="M" unicode="M" horiz-adv-x="500" 
d="M279 262l87 444h71l7 -706h-46l-2 530c0 61 0 68 3 133l-127 -663h-46l-127 666c3 -72 3 -152 3 -228v-438h-48l6 706h72l79 -406c25 -130 27 -144 39 -225c11 87 14 109 29 187z" />
    <glyph glyph-name="N" unicode="N" horiz-adv-x="396" 
d="M289 706h48v-706h-75l-167 675c3 -81 4 -102 4 -173l2 -502h-46v706h72l171 -685c-2 37 -5 98 -5 170z" />
    <glyph glyph-name="O" unicode="O" horiz-adv-x="396" 
d="M55 151v398c0 55 9 87 25 110c27 39 72 55 121 55c45 0 89 -15 114 -52s25 -85 25 -128v-389c0 -29 -3 -67 -23 -97c-17 -26 -55 -57 -121 -57c-141 0 -141 116 -141 160zM293 163v344c0 54 -1 109 -29 138c-16 16 -41 25 -66 25c-27 0 -51 -9 -67 -25
c-29 -28 -29 -72 -29 -86v-389c0 -67 8 -96 38 -118c16 -11 36 -17 58 -17c18 0 34 4 47 12c43 24 48 69 48 116z" />
    <glyph glyph-name="P" unicode="P" horiz-adv-x="375" 
d="M57 707h110c61 0 110 -3 141 -42c23 -29 25 -65 25 -116v-80c0 -36 0 -84 -43 -117c-39 -31 -94 -31 -111 -31h-72v-322h-50v708zM181 665h-75v-302h79c95 0 100 60 100 106v61c0 109 -13 135 -104 135z" />
    <glyph glyph-name="Q" unicode="Q" horiz-adv-x="396" 
d="M54 229v319c0 40 0 168 147 168c139 0 139 -125 139 -156v-391c0 -95 -28 -125 -62 -152l92 -84l-30 -31l-106 95c-15 -3 -26 -5 -40 -5c-42 0 -84 15 -109 48c-30 42 -31 94 -31 189zM292 168v393c0 63 -27 110 -94 110c-96 0 -96 -92 -96 -128v-336
c0 -74 0 -171 92 -171c98 0 98 110 98 132z" />
    <glyph glyph-name="R" unicode="R" horiz-adv-x="375" 
d="M59 0v706h136c54 0 140 -8 140 -123v-110c0 -29 0 -106 -99 -125l130 -348h-52l-129 344h-77v-344h-49zM200 664h-92v-278h89c55 0 86 22 86 75v109c0 81 -35 94 -83 94z" />
    <glyph glyph-name="S" unicode="S" horiz-adv-x="375" 
d="M91 231v-56c0 -53 0 -82 21 -109c23 -29 61 -33 82 -33c70 0 91 42 91 115c0 80 -22 110 -103 190c-79 79 -123 123 -123 222c0 59 9 156 133 156c132 0 132 -96 132 -163v-51h-48v63c0 43 0 109 -83 109c-64 0 -85 -37 -85 -106s14 -98 120 -206
c73 -75 106 -109 106 -205c0 -67 -9 -168 -144 -168c-82 0 -148 42 -148 143v99h49z" />
    <glyph glyph-name="T" unicode="T" 
d="M7 707h298v-45h-126v-662h-49v662h-123v45z" />
    <glyph glyph-name="U" unicode="U" horiz-adv-x="396" 
d="M57 167v540h48v-548c0 -49 0 -125 94 -125c27 0 56 9 73 34c15 20 17 43 17 120v519h49v-566c0 -29 0 -153 -142 -153c-30 0 -65 8 -90 27c-49 37 -49 95 -49 152z" />
    <glyph glyph-name="V" unicode="V" horiz-adv-x="354" 
d="M27 706h51l69 -429c14 -91 16 -101 26 -192c12 93 14 104 31 203l72 418h50l-128 -706h-51z" />
    <glyph glyph-name="W" unicode="W" horiz-adv-x="562" 
d="M21 706h50c28 -175 31 -193 55 -339c28 -170 31 -199 39 -291c9 91 11 102 26 202l66 428h52l68 -433c11 -74 14 -88 25 -191c13 128 15 144 39 291l52 333h49l-115 -706h-53l-66 442c-9 62 -18 124 -25 186c-12 -110 -15 -129 -41 -297c-13 -84 -46 -302 -50 -331h-51z
" />
    <glyph glyph-name="X" unicode="X" horiz-adv-x="354" 
d="M152 389l-99 317h51l60 -205c10 -37 11 -41 16 -67c8 34 10 39 25 88l57 184h51l-107 -318l124 -388h-51l-80 260c-11 34 -14 50 -21 82c-6 -29 -7 -34 -20 -74l-84 -268h-50z" />
    <glyph glyph-name="Y" unicode="Y" horiz-adv-x="354" 
d="M14 706h52l112 -332l113 332h54l-144 -394v-312h-48v312z" />
    <glyph glyph-name="Z" unicode="Z" horiz-adv-x="354" 
d="M69 663v43h249v-33c-110 -290 -133 -351 -236 -629h235v-44h-290v32l234 631h-192z" />
    <glyph glyph-name="bracketleft" unicode="[" horiz-adv-x="229" 
d="M53 707h142v-37h-99v-773h99v-38h-142v848z" />
    <glyph glyph-name="backslash" unicode="\" 
d="M234 0l-200 706h44l202 -706h-46z" />
    <glyph glyph-name="bracketright" unicode="]" horiz-adv-x="229" 
d="M32 670v37h144v-848h-140v38h97v773h-101z" />
    <glyph glyph-name="asciicircum" unicode="^" horiz-adv-x="729" 
d="M392 707l168 -344h-56l-138 288l-141 -288h-55l172 344h50z" />
    <glyph glyph-name="underscore" unicode="_" horiz-adv-x="500" 
d="M510 -75v-50h-520v50h520z" />
    <glyph glyph-name="quoteleft" unicode="&#x2018;" horiz-adv-x="146" 
d="M99 616v-91h-45v91c0 63 19 77 45 90v-22c-19 -13 -25 -25 -24 -68h24z" />
    <glyph glyph-name="a" unicode="a" 
d="M92 348h-43c0 77 0 158 115 158c102 0 102 -79 102 -110v-338c0 -17 15 -18 30 -18v-40c-44 0 -63 6 -72 39c-22 -17 -50 -39 -97 -39c-71 0 -99 56 -99 118c0 96 59 131 111 158c51 27 58 30 84 50v58c0 45 -5 82 -64 82c-67 0 -67 -51 -67 -118zM224 88v191
c-16 -11 -20 -13 -60 -35c-51 -29 -93 -53 -93 -127c0 -40 18 -77 65 -77c44 0 68 26 88 48z" />
    <glyph glyph-name="b" unicode="b" horiz-adv-x="333" 
d="M52 706h42v-246c15 19 38 49 92 49c98 0 98 -98 98 -134v-258c0 -74 -47 -120 -106 -120c-50 0 -72 30 -82 44v-41h-44v706zM242 132v245c0 53 -18 92 -67 92c-39 0 -80 -25 -80 -91v-242c0 -71 46 -101 80 -101c16 0 31 6 42 17c25 24 25 61 25 80z" />
    <glyph glyph-name="c" unicode="c" 
d="M40 144v232c0 25 0 127 115 127c112 0 116 -96 116 -135v-44h-42c0 57 0 70 -6 90c-9 31 -31 52 -66 52c-74 0 -74 -75 -74 -93v-216c0 -53 0 -120 79 -120c70 0 70 64 70 82v73h44v-65c0 -34 0 -130 -122 -130c-61 0 -87 36 -91 42c-22 31 -23 72 -23 105z" />
    <glyph glyph-name="d" unicode="d" horiz-adv-x="333" 
d="M238 706h42v-706h-39v53c-11 -20 -37 -57 -93 -57c-100 0 -100 103 -100 127v252c0 115 71 128 101 128c53 0 74 -28 89 -48v251zM238 107v267c0 13 -13 89 -78 89c-14 0 -70 -4 -70 -88v-244c0 -24 0 -97 69 -97c58 0 79 60 79 73z" />
    <glyph glyph-name="e" unicode="e" 
d="M43 122v263c0 77 41 121 113 121c117 0 117 -96 117 -158v-101h-188v-124c0 -65 33 -85 74 -85c11 0 50 0 65 42c7 17 7 22 7 94h42v-56c0 -76 -42 -119 -116 -119c-24 0 -53 4 -79 28c-28 24 -35 53 -35 95zM230 282v93c0 16 0 93 -72 93c-73 0 -73 -73 -73 -97v-89h145
z" />
    <glyph glyph-name="f" unicode="f" horiz-adv-x="187" 
d="M77 504v101c0 27 0 101 89 101c9 0 17 -1 26 -2v-39c-7 1 -12 1 -17 1c-57 0 -57 -47 -57 -63v-99h62v-41h-64v-463h-42v463h-57v41h60z" />
    <glyph glyph-name="g" unicode="g" horiz-adv-x="333" 
d="M51 140v254c0 52 18 114 103 114c49 0 71 -29 84 -46v43h43v-528c0 -29 0 -73 -39 -106c-23 -21 -54 -29 -85 -29c-44 0 -68 17 -74 21c-33 23 -35 55 -36 86h42c1 -19 2 -66 69 -66c10 0 80 1 80 79v84c-18 -20 -41 -44 -88 -44c-99 0 -99 95 -99 138zM238 118v282
c0 14 -21 70 -76 70c-69 0 -69 -67 -69 -99v-233c0 -32 0 -96 66 -96c58 0 79 61 79 76z" />
    <glyph glyph-name="h" unicode="h" horiz-adv-x="333" 
d="M54 707h43v-243c15 16 40 45 91 45c24 0 47 -8 63 -20c35 -28 35 -68 35 -90v-399h-43v373c0 33 0 94 -66 94c-21 0 -41 -8 -57 -23c-15 -15 -19 -29 -23 -44v-400h-43v707z" />
    <glyph glyph-name="i" unicode="i" horiz-adv-x="146" 
d="M51 562v78h42v-78h-42zM51 0v504h42v-504h-42z" />
    <glyph glyph-name="j" unicode="j" horiz-adv-x="167" 
d="M70 639h42v-78h-42v78zM70 503h42v-534c0 -34 0 -111 -105 -132v43c63 15 63 64 63 112v511z" />
    <glyph glyph-name="k" unicode="k" 
d="M52 706h42v-439l145 237h49l-117 -193l129 -311h-47l-110 266l-48 -79v-187h-43v706z" />
    <glyph glyph-name="l" unicode="l" horiz-adv-x="146" 
d="M52 706h43v-706h-43v706z" />
    <glyph glyph-name="m" unicode="m" horiz-adv-x="521" 
d="M96 503v-42c10 12 41 48 94 48c58 0 76 -40 85 -60c14 20 42 60 102 60c39 0 78 -21 89 -67c5 -19 5 -40 5 -86v-356h-43v360c0 40 0 54 -4 69c-9 34 -40 41 -58 41c-64 0 -83 -62 -83 -63v-407h-43v397c0 10 -1 29 -9 44c-10 17 -31 29 -55 29c-56 0 -81 -52 -81 -55
v-415h-43v503h44z" />
    <glyph glyph-name="n" unicode="n" horiz-adv-x="333" 
d="M97 504v-49c7 12 15 25 35 38c16 10 36 16 58 16c14 0 34 -3 52 -13c43 -25 43 -72 43 -92v-404h-42v403c0 53 -34 69 -62 69c-25 0 -50 -12 -66 -30c-10 -12 -14 -22 -18 -33v-409h-42v504h42z" />
    <glyph glyph-name="o" unicode="o" 
d="M39 121v264c0 101 75 121 120 121c115 0 115 -93 115 -124v-239c0 -40 -3 -70 -22 -98c-32 -47 -86 -47 -97 -47c-9 0 -38 0 -67 17c-43 24 -49 63 -49 106zM231 126v251c0 19 0 87 -71 87c-78 0 -78 -66 -78 -99v-243c0 -17 0 -83 72 -83c41 0 77 21 77 87z" />
    <glyph glyph-name="p" unicode="p" horiz-adv-x="333" 
d="M97 503v-44c11 15 37 49 93 49c51 0 77 -35 87 -66c8 -25 8 -51 8 -84v-244c0 -88 -57 -116 -102 -116c-51 0 -73 27 -86 43v-204h-43v666h43zM242 135v256c0 68 -43 79 -65 79c-56 0 -80 -53 -80 -66v-310c0 -9 22 -57 78 -57c67 0 67 64 67 98z" />
    <glyph glyph-name="q" unicode="q" horiz-adv-x="333" 
d="M49 125v247c0 60 13 84 24 99c28 37 68 38 79 38c55 0 74 -30 84 -46v41h42v-667h-42v210c-8 -13 -31 -50 -91 -50c-13 0 -38 2 -61 22c-31 28 -35 65 -35 106zM236 125v240c0 63 -32 104 -78 104c-28 0 -43 -18 -47 -23c-18 -20 -20 -44 -20 -78v-204c0 -46 0 -64 6 -81
c10 -35 37 -48 60 -48c19 0 38 8 54 25c20 22 23 44 25 65z" />
    <glyph glyph-name="r" unicode="r" horiz-adv-x="208" 
d="M94 503v-88c14 30 33 65 105 101v-57c-40 -11 -69 -22 -104 -104v-355h-42v503h41z" />
    <glyph glyph-name="s" unicode="s" horiz-adv-x="292" 
d="M70 177v-44c0 -31 0 -94 78 -94c39 0 74 16 74 84c0 53 -12 63 -84 124c-57 48 -91 78 -91 150c0 43 11 108 106 108c105 0 105 -81 105 -120v-35h-43c0 77 0 115 -62 115c-63 0 -63 -43 -63 -65c0 -45 2 -59 99 -139c48 -39 76 -63 76 -137c0 -38 -8 -76 -36 -100
c-16 -13 -41 -25 -81 -25c-63 0 -86 26 -93 34c-27 29 -27 67 -27 144h42z" />
    <glyph glyph-name="t" unicode="t" horiz-adv-x="187" 
d="M61 504v128h44v-128h76v-41h-76v-377c0 -27 0 -48 37 -48c11 0 28 1 39 2v-39c-15 -2 -30 -3 -45 -3c-59 0 -74 21 -74 59v406h-54v41h53z" />
    <glyph glyph-name="u" unicode="u" horiz-adv-x="333" 
d="M50 116v388h42v-378c0 -31 4 -92 66 -92c51 0 69 43 78 65v405h43v-503h-43v47c-13 -17 -39 -50 -91 -50c-21 0 -40 6 -55 16c-40 27 -40 76 -40 102z" />
    <glyph glyph-name="v" unicode="v" horiz-adv-x="271" 
d="M208 503h46l-96 -503h-49l-95 503h44l59 -331c10 -57 11 -63 17 -108c6 47 7 52 13 89z" />
    <glyph glyph-name="w" unicode="w" horiz-adv-x="437" 
d="M14 503h43l41 -250c6 -35 20 -119 29 -186c6 45 7 53 19 118l56 318h35l69 -431c4 27 7 54 12 81c2 16 18 98 21 117l42 233h44l-97 -503h-43l-52 321c-6 38 -7 45 -13 99c-7 -49 -8 -55 -13 -83l-60 -337h-44z" />
    <glyph glyph-name="x" unicode="x" 
d="M22 503h45l57 -148c3 -8 18 -46 21 -55c6 18 11 32 19 52l61 151h46l-101 -236l107 -267h-47l-65 170c-10 25 -14 38 -19 60c-6 -21 -8 -25 -23 -64l-64 -166h-47l109 262z" />
    <glyph glyph-name="y" unicode="y" horiz-adv-x="292" 
d="M124 4l-109 500h43l88 -418l89 418h45l-129 -560c-24 -102 -78 -107 -142 -107v42c8 -1 14 -2 22 -2c66 0 78 54 81 69z" />
    <glyph glyph-name="z" unicode="z" horiz-adv-x="292" 
d="M50 461v42h209v-34l-174 -427h174v-42h-223v37l172 424h-158z" />
    <glyph glyph-name="braceleft" unicode="{" horiz-adv-x="354" 
d="M100 267v33c51 7 65 43 65 141v80c0 85 14 174 134 185v-31c-69 -16 -92 -49 -92 -149c0 -163 0 -215 -61 -241v-3c58 -24 61 -78 61 -200c0 -113 0 -169 92 -190v-31c-128 12 -134 112 -134 191v65c0 98 -8 142 -65 150z" />
    <glyph glyph-name="bar" unicode="|" horiz-adv-x="229" 
d="M136 750v-1000h-44v1000h44z" />
    <glyph glyph-name="braceright" unicode="}" horiz-adv-x="354" 
d="M254 300v-33c-51 -8 -65 -43 -65 -141v-80c0 -85 -14 -174 -134 -185v31c69 16 92 49 92 149c0 163 0 215 61 241v3c-58 24 -61 78 -61 200c0 113 0 169 -92 190v31c128 -12 134 -112 134 -191v-65c0 -98 8 -142 65 -150z" />
    <glyph glyph-name="asciitilde" unicode="~" horiz-adv-x="729" 
d="M560 346l25 -39c-52 -70 -94 -75 -118 -75c-23 0 -39 4 -96 32c-55 26 -83 39 -114 39c-41 0 -61 -27 -88 -63l-24 38c14 22 48 75 113 75c34 0 56 -10 116 -37c59 -28 72 -34 92 -34c46 0 73 36 94 64z" />
    <glyph glyph-name="exclamdown" unicode="&#xa1;" horiz-adv-x="187" 
d="M47 618v89h45v-89h-45zM48 385l9 136h26l14 -146v-375h-49v385z" />
    <glyph glyph-name="cent" unicode="&#xa2;" 
d="M167 564v-61c18 -2 50 -5 75 -32c29 -34 29 -70 29 -147h-42c0 57 0 70 -6 90c-9 31 -32 52 -66 52c-74 0 -74 -75 -74 -93v-216c0 -53 0 -120 79 -120c70 0 70 64 70 82v73h44v-65c0 -39 0 -115 -103 -129v-68h-29v68c-104 10 -104 98 -104 146v232c0 99 52 120 98 126
v62h29z" />
    <glyph glyph-name="sterling" unicode="&#xa3;" horiz-adv-x="375" 
d="M29 333h85c-22 42 -31 64 -31 157c0 41 0 83 16 115c11 21 40 59 103 59c47 0 87 -22 104 -63c10 -23 13 -37 13 -148h-45c0 20 0 83 -1 99c-1 14 -5 70 -73 70c-71 0 -71 -68 -71 -107c0 -91 0 -122 39 -182h108v-36h-85c12 -19 30 -47 30 -101c0 -96 -59 -130 -93 -149
c17 -1 103 -8 122 -8c55 0 78 5 100 10v-43c-20 -4 -51 -10 -92 -10c-24 0 -141 10 -167 10c-27 0 -43 -3 -65 -6v49c34 6 73 12 107 47c28 26 41 64 41 102c0 52 -21 80 -36 99h-109v36z" />
    <glyph glyph-name="fraction" unicode="&#x2044;" horiz-adv-x="125" 
d="M-138 -58l367 844c7 -4 18 -9 25 -12l-367 -844c-7 3 -18 8 -25 12z" />
    <glyph glyph-name="yen" unicode="&#xa5;" horiz-adv-x="354" 
d="M66 707l114 -334l118 334h47l-109 -299h86v-43h-102l-15 -43v-17h117v-43h-121v-262h-48v262h-121v43h117v17l-15 43h-102v43h87l-105 299h52z" />
    <glyph glyph-name="florin" unicode="&#x192;" horiz-adv-x="229" 
d="M114 504l12 101c3 26 12 101 102 101c8 0 16 -1 25 -2l-5 -39c-6 1 -11 1 -17 1c-56 0 -62 -47 -64 -63l-12 -99h62l-5 -41h-64l-62 -508c-4 -28 -13 -101 -101 -101c-9 0 -17 1 -25 2l4 39c7 -1 11 -1 17 -1c44 0 60 26 64 63l61 506h-56l5 41h59z" />
    <glyph glyph-name="section" unicode="&#xa7;" horiz-adv-x="375" 
d="M327 596v-81h-44v73c0 28 0 84 -87 84c-76 0 -96 -43 -96 -111c0 -66 36 -86 105 -124c94 -52 138 -76 138 -154c0 -56 -28 -92 -48 -118c32 -33 33 -65 33 -113c0 -24 -2 -58 -18 -87c-26 -45 -74 -60 -123 -60c-142 0 -142 100 -142 156v53h45c0 -36 0 -92 3 -107
c13 -62 81 -62 92 -62c98 0 98 72 98 107c0 71 -8 75 -92 123c-93 52 -146 82 -146 156c0 50 24 85 63 113c-24 19 -53 43 -53 117c0 126 68 153 142 153c130 0 130 -91 130 -118zM135 427c-32 -21 -47 -50 -47 -89c0 -37 16 -59 68 -91c32 -19 83 -47 115 -65
c12 15 28 35 28 82c0 55 -24 80 -53 98c-15 10 -94 54 -111 65z" />
    <glyph glyph-name="currency" unicode="&#xa4;" horiz-adv-x="667" 
d="M597 569l-71 -72c27 -37 56 -76 56 -160s-35 -128 -58 -156l73 -73l-34 -33l-72 72c-29 -22 -72 -56 -157 -56c-88 0 -130 33 -159 57l-73 -72l-33 33l73 72c-28 39 -58 79 -58 156c0 83 33 127 58 161l-71 71l33 33l70 -71c29 22 75 57 160 57c86 0 135 -38 158 -57
l72 71zM537 340c0 129 -101 205 -201 205c-127 0 -207 -97 -207 -204c0 -122 93 -207 206 -207c115 0 202 90 202 206z" />
    <glyph glyph-name="quotesingle" unicode="'" horiz-adv-x="208" 
d="M143 706l-32 -254h-17l-28 241c0 5 -1 9 -1 14c0 33 29 42 41 42c19 0 41 -14 37 -43z" />
    <glyph glyph-name="quotedblleft" unicode="&#x201c;" horiz-adv-x="250" 
d="M88 616v-91h-45v91c0 63 19 77 45 90v-22c-19 -13 -24 -24 -24 -68h24zM197 616v-91h-45v91c0 63 19 77 45 90v-22c-19 -13 -25 -24 -24 -68h24z" />
    <glyph glyph-name="guillemotleft" unicode="&#xab;" horiz-adv-x="375" 
d="M168 293l125 100h59l-122 -100l117 -100h-56zM27 293l125 100h61l-126 -99l122 -101h-60z" />
    <glyph glyph-name="guilsinglleft" unicode="&#x2039;" horiz-adv-x="250" 
d="M35 293l124 100h60l-122 -100l117 -100h-56z" />
    <glyph glyph-name="guilsinglright" unicode="&#x203a;" horiz-adv-x="250" 
d="M34 391h61l120 -99l-125 -101h-63l129 100z" />
    <glyph glyph-name="fi" unicode="&#xfb01;" horiz-adv-x="333" 
d="M77 504v101c0 27 0 101 89 101c9 0 17 -1 26 -2v-39c-6 1 -11 1 -17 1c-57 0 -57 -47 -57 -63v-99h62v-41h-64v-463h-42v463h-57v41h60zM239 562v78h42v-78h-42zM239 0v504h42v-504h-42z" />
    <glyph glyph-name="fl" unicode="&#xfb02;" horiz-adv-x="333" 
d="M77 504v101c0 27 0 101 89 101c9 0 17 -1 25 -2v-39c-6 1 -11 1 -17 1c-56 0 -56 -47 -56 -63v-99h62v-41h-64v-463h-42v463h-57v41h60zM239 706h43v-706h-43v706z" />
    <glyph glyph-name="endash" unicode="&#x2013;" horiz-adv-x="354" 
d="M35 314h284v-43h-284v43z" />
    <glyph glyph-name="dagger" unicode="&#x2020;" 
d="M136 500v207h47v-207h124v-46h-125v-454h-47v454h-122v46h123z" />
    <glyph glyph-name="daggerdbl" unicode="&#x2021;" 
d="M136 536v170h43v-170h124v-44h-124v-279h124v-44h-124v-169h-43v169h-125v44h125v279h-125v44h125z" />
    <glyph glyph-name="periodcentered" unicode="&#xb7;" horiz-adv-x="146" 
d="M50 334h44v-90h-44v90z" />
    <glyph glyph-name="paragraph" unicode="&#xb6;" horiz-adv-x="667" 
d="M494 669v-836h-39v836h-164v-836h-39v505c-33 4 -68 9 -108 46c-35 34 -51 83 -51 132c0 40 10 95 58 140c36 32 82 50 165 50h211v-37h-33z" />
    <glyph glyph-name="bullet" unicode="&#x2022;" horiz-adv-x="333" 
d="M279 354c0 -65 -46 -113 -111 -113c-63 0 -114 48 -114 112c0 62 50 112 113 112c68 0 112 -52 112 -111z" />
    <glyph glyph-name="quotesinglbase" unicode="&#x201a;" horiz-adv-x="146" 
d="M51 0v91h45v-91c0 -63 -19 -77 -46 -90v22c20 13 25 24 25 68h-24z" />
    <glyph glyph-name="quotedblbase" unicode="&#x201e;" horiz-adv-x="250" 
d="M157 0v91h45v-91c0 -63 -19 -77 -46 -90v22c21 14 25 26 25 68h-24zM48 0v91h45v-91c0 -63 -19 -77 -45 -90v22c18 12 25 24 24 68h-24z" />
    <glyph glyph-name="quotedblright" unicode="&#x201d;" horiz-adv-x="250" 
d="M157 615v91h45v-91c0 -63 -19 -77 -46 -90v22c20 13 25 24 25 68h-24zM48 615v91h45v-91c0 -63 -19 -77 -46 -90v22c20 13 25 24 25 68h-24z" />
    <glyph glyph-name="guillemotright" unicode="&#xbb;" horiz-adv-x="375" 
d="M28 391h55l122 -99l-124 -101h-61l124 101zM166 391h61l121 -99l-126 -101h-63l129 100z" />
    <glyph glyph-name="ellipsis" unicode="&#x2026;" horiz-adv-x="1000" 
d="M146 90h44v-90h-44v90zM479 90h44v-90h-44v90zM812 90h44v-90h-44v90z" />
    <glyph glyph-name="perthousand" unicode="&#x2030;" horiz-adv-x="812" 
d="M20 367v232c0 32 0 109 96 109c88 0 88 -67 88 -114v-228c0 -25 0 -106 -91 -106c-93 0 -93 85 -93 107zM167 366v233c0 32 0 70 -54 70c-55 0 -55 -42 -55 -63v-235c0 -22 0 -74 55 -74c41 0 54 32 54 69zM91 -58l366 844c7 -4 19 -9 26 -12l-367 -844
c-7 4 -18 9 -25 12zM374 102v232c0 32 0 109 96 109c88 0 88 -67 88 -114v-228c0 -25 0 -106 -91 -106c-93 0 -93 84 -93 107zM521 101v233c0 32 0 70 -54 70c-55 0 -55 -42 -55 -63v-235c0 -22 0 -74 55 -74c41 0 54 32 54 69zM604 102v232c0 32 0 109 95 109
c88 0 88 -67 88 -114v-228c0 -25 0 -106 -90 -106c-93 0 -93 84 -93 107zM750 101v233c0 32 0 70 -53 70c-55 0 -55 -42 -55 -63v-235c0 -22 0 -74 54 -74c41 0 54 32 54 69z" />
    <glyph glyph-name="questiondown" unicode="&#xbf;" horiz-adv-x="354" 
d="M236 224h46c1 -36 2 -51 2 -70c0 -40 0 -165 -124 -165c-62 0 -94 37 -108 69c-9 22 -16 49 -16 132c0 86 16 108 55 166c41 60 46 67 46 99v78h47v-85c0 -39 -8 -51 -44 -104c-46 -66 -57 -83 -57 -145c0 -86 4 -169 79 -169s75 94 75 133c0 20 -1 41 -1 61zM184 616
h-47v90h47v-90z" />
    <glyph glyph-name="grave" unicode="`" horiz-adv-x="229" 
d="M22 678h97l87 -109h-33z" />
    <glyph glyph-name="acute" unicode="&#xb4;" horiz-adv-x="229" 
d="M25 567l84 109h95l-143 -109h-36z" />
    <glyph glyph-name="circumflex" unicode="&#x2c6;" horiz-adv-x="229" 
d="M92 677h50l72 -108h-39l-58 68l-61 -68h-41z" />
    <glyph glyph-name="tilde" unicode="&#x2dc;" horiz-adv-x="229" 
d="M208 654c5 -4 12 -9 16 -13c-24 -37 -42 -62 -74 -62c-13 0 -72 25 -87 25c-21 0 -33 -14 -43 -26c-5 3 -12 9 -16 13c16 23 38 55 74 55c13 0 27 -4 40 -9c31 -14 35 -15 44 -15c18 0 27 10 46 32z" />
    <glyph glyph-name="macron" unicode="&#xaf;" horiz-adv-x="229" 
d="M20 627h188v-42h-188v42z" />
    <glyph glyph-name="breve" unicode="&#x2d8;" horiz-adv-x="229" 
d="M22 671h23c9 -37 33 -58 71 -58c49 0 62 39 69 58h21c-7 -61 -34 -103 -92 -103c-74 0 -87 74 -92 103z" />
    <glyph glyph-name="dotaccent" unicode="&#x2d9;" horiz-adv-x="229" 
d="M89 663h51v-75h-51v75z" />
    <glyph glyph-name="dieresis" unicode="&#xa8;" horiz-adv-x="229" 
d="M41 662h48v-77h-48v77zM140 662h48v-77h-48v77z" />
    <glyph glyph-name="ring" unicode="&#x2da;" horiz-adv-x="229" 
d="M67 568c-5 5 -19 22 -19 47c0 37 30 67 66 67s66 -30 66 -67c0 -36 -30 -66 -66 -66c-25 0 -42 14 -47 19zM70 615c0 -23 20 -44 44 -44s44 21 44 44c0 24 -20 45 -44 45s-44 -21 -44 -45z" />
    <glyph glyph-name="cedilla" unicode="&#xb8;" horiz-adv-x="229" 
d="M88 -52l4 78h34l-4 -50c38 -12 72 -32 73 -73c0 -26 -19 -63 -71 -63c-37 0 -64 16 -91 31l19 22c19 -10 37 -19 55 -19c24 0 36 17 36 32c0 32 -37 39 -55 42z" />
    <glyph glyph-name="hungarumlaut" unicode="&#x2dd;" horiz-adv-x="229" 
d="M97 568l69 109h84l-115 -109h-38zM-21 568l68 109h84l-115 -109h-37z" />
    <glyph glyph-name="ogonek" unicode="&#x2db;" horiz-adv-x="229" 
d="M119 12h44c-26 -27 -58 -62 -58 -91c0 -27 21 -27 66 -27v-45c-54 0 -59 0 -72 4c-31 8 -42 33 -42 57c0 37 19 57 62 102z" />
    <glyph glyph-name="caron" unicode="&#x2c7;" horiz-adv-x="229" 
d="M15 679h39l58 -67l61 68h41l-77 -109h-50z" />
    <glyph glyph-name="emdash" unicode="&#x2014;" horiz-adv-x="479" 
d="M34 271v42h411v-42h-411z" />
    <glyph glyph-name="AE" unicode="&#xc6;" horiz-adv-x="500" 
d="M22 0l180 706h261v-43h-159v-273h146v-44h-146v-302h176v-44h-224v306h-108l-75 -306h-51zM256 663h-18l-80 -316h98v316z" />
    <glyph glyph-name="ordfeminine" unicode="&#xaa;" horiz-adv-x="187" 
d="M176 449v-28c-36 -3 -43 8 -49 17c-11 -7 -28 -18 -51 -18c-36 0 -60 29 -60 70c0 56 36 76 51 85c20 11 50 28 60 35c0 54 0 73 -33 73c-34 0 -34 -27 -35 -66h-31c0 41 -1 96 68 96c64 0 64 -48 64 -76v-176c0 -10 5 -11 16 -12zM127 474v98c-55 -28 -77 -39 -77 -81
c0 -26 16 -40 33 -40c21 0 37 16 44 23z" />
    <glyph glyph-name="Lslash" unicode="&#x141;" 
d="M59 335v372h49v-300l128 189v-68l-129 -191v-292h184v-45h-233v266l-58 -85v69z" />
    <glyph glyph-name="Oslash" unicode="&#xd8;" horiz-adv-x="396" 
d="M54 147v356c0 77 0 110 19 146c30 55 87 70 127 70c16 0 33 -2 49 -8c46 -15 61 -42 71 -59l28 65l27 -13l-40 -94c3 -17 5 -27 5 -51v-405c0 -29 0 -162 -145 -162c-66 0 -89 27 -106 45l-28 -67c-7 4 -19 9 -26 12l36 84c-8 17 -17 36 -17 81zM102 138l188 443
c-3 21 -6 43 -22 63c-20 25 -51 31 -71 31c-28 0 -54 -12 -70 -32c-25 -29 -25 -69 -25 -99v-406zM292 162v346l-180 -416c5 -15 19 -55 85 -55c77 0 95 53 95 125z" />
    <glyph glyph-name="OE" unicode="&#x152;" horiz-adv-x="542" 
d="M50 138v407c0 73 13 114 51 142c22 17 50 27 90 27c57 0 83 -24 100 -40v33h231v-44h-184v-276h163v-42h-162v-302h184v-43h-231v40c-15 -18 -41 -50 -109 -50c-92 0 -133 61 -133 148zM292 141v377c0 58 0 154 -103 154c-70 0 -92 -52 -92 -102v-407c0 -30 0 -57 10 -79
c14 -31 45 -52 82 -52c35 0 103 21 103 109z" />
    <glyph glyph-name="ordmasculine" unicode="&#xba;" horiz-adv-x="187" 
d="M22 500v132c0 21 0 83 71 83c70 0 70 -62 70 -76v-139c0 -24 0 -81 -73 -81c-68 0 -68 55 -68 81zM130 500v132c0 22 0 51 -38 51c-39 0 -39 -34 -39 -51v-132c0 -15 0 -49 38 -49c39 0 39 30 39 49z" />
    <glyph glyph-name="ae" unicode="&#xe6;" horiz-adv-x="500" 
d="M460 364v-107h-190v-104c0 -27 1 -47 6 -63c13 -41 46 -52 68 -52c18 0 42 7 57 25c17 21 17 33 17 110h43c0 -50 -1 -66 -4 -87c-12 -62 -64 -88 -110 -88c-64 0 -86 30 -106 62c-43 -60 -94 -62 -108 -62c-23 0 -47 7 -64 21c-30 23 -39 63 -39 98c0 81 38 121 105 154
c43 22 52 27 92 53v78c0 8 0 31 -14 46c-15 16 -40 17 -48 17c-16 0 -37 -5 -50 -18c-19 -21 -19 -52 -19 -97h-43c0 55 0 96 30 126c6 6 28 28 84 28c58 0 79 -27 89 -40c11 14 34 41 91 41c113 0 113 -91 113 -141zM418 293v88c0 19 -1 45 -19 64c-14 15 -37 20 -54 20
c-19 0 -42 -6 -58 -25c-13 -17 -17 -37 -17 -77v-70h148zM228 101v181c-20 -16 -25 -18 -69 -42c-31 -16 -87 -46 -87 -122c0 -23 7 -47 19 -61c12 -13 31 -19 51 -19c54 0 73 38 86 63z" />
    <glyph glyph-name="dotlessi" unicode="&#x131;" horiz-adv-x="146" 
d="M52 0v504h43v-504h-43z" />
    <glyph glyph-name="lslash" unicode="&#x142;" horiz-adv-x="146" 
d="M52 706h43v-250l51 84v-67l-51 -84v-389h-42v323l-53 -84v65l52 85v317z" />
    <glyph glyph-name="oslash" unicode="&#xf8;" 
d="M254 463l22 41c5 -2 13 -7 18 -9l-29 -56c5 -18 8 -27 8 -53v-266c0 -76 -43 -122 -122 -122c-44 0 -72 17 -91 40l-21 -42c-5 3 -13 7 -17 9l27 53c-6 19 -11 36 -11 59v253c0 59 17 135 122 135c61 0 81 -24 94 -42zM81 122l146 287c-5 20 -14 55 -70 55
c-76 0 -76 -70 -76 -96v-246zM231 152v217l-146 -283c4 -12 16 -48 70 -48c76 0 76 65 76 114z" />
    <glyph glyph-name="oe" unicode="&#x153;" horiz-adv-x="500" 
d="M42 129v228c0 50 0 79 21 106c10 15 39 41 95 41c60 0 82 -29 97 -49c11 17 34 50 97 50c34 0 63 -11 83 -33c27 -32 27 -72 27 -124v-93h-188v-99c0 -43 0 -119 75 -119c10 0 20 1 29 5c20 8 41 25 41 74v53h43c0 -66 0 -91 -12 -116c-18 -39 -55 -57 -98 -57
c-71 0 -90 36 -101 58c-25 -38 -57 -58 -101 -58c-108 0 -108 94 -108 133zM419 291v82c0 35 -5 93 -69 93c-38 0 -77 -24 -77 -92v-83h146zM231 135v241c0 62 -28 89 -73 89c-12 0 -26 -2 -40 -10c-34 -20 -34 -54 -34 -79v-220c0 -55 0 -119 71 -119c76 0 76 76 76 98z
" />
    <glyph glyph-name="germandbls" unicode="&#xdf;" horiz-adv-x="354" 
d="M54 0v577c0 67 13 137 127 137c28 0 62 -7 85 -32c7 -8 23 -24 23 -70v-80c0 -73 -41 -87 -71 -97c72 -27 88 -56 88 -131v-221c0 -61 -31 -91 -86 -91c-16 0 -71 0 -71 69v79h30v-65c0 -36 24 -43 40 -43c43 0 44 47 44 59v184c0 78 -5 128 -104 135v43
c79 3 87 47 87 93c0 62 0 75 -3 86c-11 41 -55 42 -66 42c-80 0 -80 -59 -80 -105v-569h-43z" />
    <glyph glyph-name="brokenbar" unicode="&#xa6;" horiz-adv-x="229" 
d="M93 -175v350h44v-350h-44zM137 325h-44v350h44v-350z" />
    <glyph glyph-name="Ograve" unicode="&#xd2;" horiz-adv-x="396" 
d="M55 151v398c0 55 9 87 25 110c27 39 72 55 121 55c45 0 89 -15 114 -52s25 -85 25 -128v-389c0 -29 -3 -67 -23 -97c-17 -26 -55 -57 -121 -57c-141 0 -141 116 -141 160zM293 163v344c0 54 -1 109 -29 138c-16 16 -41 25 -66 25c-27 0 -51 -9 -67 -25
c-29 -28 -29 -72 -29 -86v-389c0 -67 8 -96 38 -118c16 -11 36 -17 58 -17c18 0 34 4 47 12c43 24 48 69 48 116zM70 880h97l88 -108h-32z" />
    <glyph glyph-name="Ccedilla" unicode="&#xc7;" horiz-adv-x="375" 
d="M334 243v-109c0 -62 -13 -137 -133 -145c0 -4 -1 -10 -1 -14c38 -11 72 -32 72 -73c0 -25 -19 -62 -70 -62c-37 0 -65 16 -91 31c5 6 13 16 19 22c18 -10 36 -19 54 -19c24 0 36 16 36 32c0 31 -36 38 -54 41l2 43c-116 16 -116 122 -116 170v383c0 53 0 94 36 131
c28 28 65 39 105 39c30 0 57 -7 78 -20c31 -19 55 -51 55 -116v-99h-49c0 108 0 128 -12 151c-13 26 -40 39 -72 39c-66 0 -93 -44 -93 -110v-349c0 -91 0 -174 98 -174c86 0 86 78 86 95v113h50z" />
    <glyph glyph-name="multiply" unicode="&#xd7;" horiz-adv-x="500" 
d="M283 292l151 -153l-31 -32l-153 154l-153 -154l-31 32l152 153l-152 153l31 31l153 -152l153 152l31 -31z" />
    <glyph glyph-name="Ntilde" unicode="&#xd1;" horiz-adv-x="396" 
d="M289 706h48v-706h-75l-167 675c3 -81 4 -102 4 -173l2 -502h-46v706h72l171 -685c-2 37 -5 98 -5 170zM294 855c4 -4 11 -9 16 -13c-25 -37 -42 -62 -74 -62c-13 0 -73 25 -88 25c-21 0 -33 -14 -43 -26c-5 3 -12 9 -16 13c16 23 39 55 74 55c14 0 27 -4 41 -9
c31 -14 34 -15 43 -15c19 0 27 10 47 32z" />
    <glyph glyph-name="Otilde" unicode="&#xd5;" horiz-adv-x="396" 
d="M55 151v398c0 55 9 87 25 110c27 39 72 55 121 55c45 0 89 -15 114 -52s25 -85 25 -128v-389c0 -29 -3 -67 -23 -97c-17 -26 -55 -57 -121 -57c-141 0 -141 116 -141 160zM293 163v344c0 54 -1 109 -29 138c-16 16 -41 25 -66 25c-27 0 -51 -9 -67 -25
c-29 -28 -29 -72 -29 -86v-389c0 -67 8 -96 38 -118c16 -11 36 -17 58 -17c18 0 34 4 47 12c43 24 48 69 48 116zM294 855c4 -4 11 -9 16 -13c-25 -37 -42 -62 -74 -62c-13 0 -73 25 -88 25c-21 0 -33 -14 -43 -26c-5 3 -12 9 -16 13c16 23 39 55 74 55c14 0 27 -4 41 -9
c31 -14 34 -15 43 -15c19 0 27 10 47 32z" />
    <glyph glyph-name="mu" unicode="&#x3bc;" horiz-adv-x="333" 
d="M50 504h42v-379c0 -21 0 -91 66 -91c51 0 69 43 78 65v405h43v-504h-43v48c-23 -30 -47 -50 -83 -50s-47 12 -61 28v-189h-42v667z" />
    <glyph glyph-name="Oacute" unicode="&#xd3;" horiz-adv-x="396" 
d="M55 151v398c0 55 9 87 25 110c27 39 72 55 121 55c45 0 89 -15 114 -52s25 -85 25 -128v-389c0 -29 -3 -67 -23 -97c-17 -26 -55 -57 -121 -57c-141 0 -141 116 -141 160zM293 163v344c0 54 -1 109 -29 138c-16 16 -41 25 -66 25c-27 0 -51 -9 -67 -25
c-29 -28 -29 -72 -29 -86v-389c0 -67 8 -96 38 -118c16 -11 36 -17 58 -17c18 0 34 4 47 12c43 24 48 69 48 116zM137 769l84 109h94l-141 -109h-37z" />
    <glyph glyph-name="thorn" unicode="&#xfe;" horiz-adv-x="333" 
d="M285 358v-244c0 -88 -57 -116 -101 -116c-52 0 -74 27 -87 43v-204h-43v870h41v-251c15 19 41 52 95 52c51 0 77 -35 87 -66c8 -25 8 -50 8 -84zM242 135v256c0 68 -43 79 -65 79c-56 0 -80 -53 -80 -66v-310c0 -9 23 -57 78 -57c67 0 67 64 67 98z" />
    <glyph glyph-name="eth" unicode="&#xf0;" 
d="M287 633l-57 -21c19 -33 45 -76 45 -224l-1 -245c0 -41 -3 -70 -21 -98c-22 -31 -59 -47 -98 -47c-9 0 -38 0 -67 17c-43 24 -49 63 -49 106v264c0 121 110 121 117 121c43 0 61 -21 77 -41c-4 47 -7 81 -39 133l-103 -39l-14 31l96 37c-29 34 -52 53 -69 66l35 18
c36 -31 47 -43 70 -70l65 24zM231 126v251c0 19 0 87 -71 87c-78 0 -78 -67 -78 -99v-243c0 -17 0 -83 72 -83c42 0 77 21 77 87z" />
    <glyph glyph-name="Igrave" unicode="&#xcc;" horiz-adv-x="167" 
d="M58 706h51v-706h-51v706zM-45 880h97l88 -108h-32z" />
    <glyph glyph-name="Ocircumflex" unicode="&#xd4;" horiz-adv-x="396" 
d="M55 151v398c0 55 9 87 25 110c27 39 72 55 121 55c45 0 89 -15 114 -52s25 -85 25 -128v-389c0 -29 -3 -67 -23 -97c-17 -26 -55 -57 -121 -57c-141 0 -141 116 -141 160zM293 163v344c0 54 -1 109 -29 138c-16 16 -41 25 -66 25c-27 0 -51 -9 -67 -25
c-29 -28 -29 -72 -29 -86v-389c0 -67 8 -96 38 -118c16 -11 36 -17 58 -17c18 0 34 4 47 12c43 24 48 69 48 116zM95 769l78 109h50l73 -108h-40l-58 68l-61 -69h-42z" />
    <glyph glyph-name="Eacute" unicode="&#xc9;" horiz-adv-x="333" 
d="M59 0v706h250v-44h-201v-272h165v-43h-166v-303h201v-44h-249zM121 769l84 109h94l-141 -109h-37z" />
    <glyph glyph-name="Edieresis" unicode="&#xcb;" horiz-adv-x="333" 
d="M59 0v706h250v-44h-201v-272h165v-43h-166v-303h201v-44h-249zM226 865h52v-76h-52v76zM78 865h52v-76h-52v76z" />
    <glyph glyph-name="Aacute" unicode="&#xc1;" horiz-adv-x="375" 
d="M153 710h68l128 -710h-52l-36 215h-148l-37 -215h-52zM252 261l-55 327c-2 10 -6 41 -10 67c-1 -10 -2 -19 -3 -29c-2 -10 -3 -21 -5 -32l-58 -333h131zM126 769l84 109h94l-141 -109h-37z" />
    <glyph glyph-name="Zcaron" unicode="&#x17d;" horiz-adv-x="354" 
d="M69 663v43h249v-33c-110 -290 -133 -351 -236 -629h235v-44h-290v32l234 631h-192zM191 809l62 69h40l-77 -109h-50l-72 108h39z" />
    <glyph glyph-name="ccedilla" unicode="&#xe7;" 
d="M276 192v-65c0 -39 0 -117 -105 -129c-1 -6 -2 -16 -2 -22c38 -12 72 -32 72 -73c0 -26 -19 -63 -70 -63c-37 0 -65 16 -91 31c5 6 13 16 19 22c18 -10 37 -19 54 -19c24 0 36 17 36 32c0 32 -36 39 -54 42l3 50c-98 14 -98 99 -98 146v232c0 26 0 127 116 127
c56 0 79 -26 86 -32c29 -34 29 -70 29 -147h-42c0 57 0 70 -6 90c-9 31 -31 52 -66 52c-74 0 -74 -75 -74 -93v-216c0 -53 0 -120 79 -120c70 0 70 64 70 82v73h44z" />
    <glyph glyph-name="logicalnot" unicode="&#xac;" horiz-adv-x="667" 
d="M623 1v268h-623v45h667v-313h-44z" />
    <glyph glyph-name="Atilde" unicode="&#xc3;" horiz-adv-x="375" 
d="M153 710h68l128 -710h-52l-36 215h-148l-37 -215h-52zM252 261l-55 327c-2 10 -6 41 -10 67c-1 -10 -2 -19 -3 -29c-2 -10 -3 -21 -5 -32l-58 -333h131zM283 855c4 -4 11 -9 16 -13c-25 -37 -42 -62 -74 -62c-13 0 -73 25 -88 25c-21 0 -33 -14 -43 -26
c-5 3 -12 9 -16 13c16 23 39 55 74 55c14 0 27 -4 41 -9c31 -14 34 -15 43 -15c19 0 27 10 47 32z" />
    <glyph glyph-name="Thorn" unicode="&#xde;" horiz-adv-x="375" 
d="M179 204h-72v-204h-50v707h49v-118h61c61 0 110 -3 141 -42c25 -31 25 -72 25 -116v-79c0 -48 0 -148 -154 -148zM181 547h-75v-301h79c95 0 100 60 100 106v60c0 109 -13 135 -104 135z" />
    <glyph glyph-name="onequarter" unicode="&#xbc;" horiz-adv-x="583" 
d="M43 610v35c38 10 57 22 69 62h34v-442h-39v372c-13 -10 -28 -21 -64 -27zM92 -59l366 844c7 -3 18 -8 26 -11l-368 -844c-7 3 -18 8 -24 11zM372 174l112 267h47v-274h52v-36h-52v-131h-37v131h-122v43zM404 167h90v221z" />
    <glyph glyph-name="Acircumflex" unicode="&#xc2;" horiz-adv-x="375" 
d="M153 710h68l128 -710h-52l-36 215h-148l-37 -215h-52zM252 261l-55 327c-2 10 -6 41 -10 67c-1 -10 -2 -19 -3 -29c-2 -10 -3 -21 -5 -32l-58 -333h131zM84 769l78 109h50l73 -108h-40l-58 68l-61 -69h-42z" />
    <glyph glyph-name="Odieresis" unicode="&#xd6;" horiz-adv-x="396" 
d="M55 151v398c0 55 9 87 25 110c27 39 72 55 121 55c45 0 89 -15 114 -52s25 -85 25 -128v-389c0 -29 -3 -67 -23 -97c-17 -26 -55 -57 -121 -57c-141 0 -141 116 -141 160zM293 163v344c0 54 -1 109 -29 138c-16 16 -41 25 -66 25c-27 0 -51 -9 -67 -25
c-29 -28 -29 -72 -29 -86v-389c0 -67 8 -96 38 -118c16 -11 36 -17 58 -17c18 0 34 4 47 12c43 24 48 69 48 116zM245 865h52v-76h-52v76zM97 865h52v-76h-52v76z" />
    <glyph glyph-name="threequarters" unicode="&#xbe;" horiz-adv-x="583" 
d="M78 623l-2 -50h-36c1 70 1 76 6 91c10 29 37 45 73 45c78 0 78 -64 78 -94c0 -53 0 -90 -52 -112c57 -21 60 -60 60 -100c0 -65 0 -144 -90 -144c-96 0 -93 87 -91 147h36c1 -68 2 -112 54 -112c54 0 54 56 54 73c0 55 0 61 -4 73c-12 40 -60 42 -85 43v37
c70 3 81 32 81 72c0 56 0 81 -42 81c-39 0 -40 -30 -40 -50zM112 -59l366 845c8 -4 19 -9 26 -12l-368 -844c-6 3 -17 8 -24 11zM371 174l113 267h47v-274h52v-36h-52v-131h-37v131h-123v43zM404 167h90v221z" />
    <glyph glyph-name="Ucircumflex" unicode="&#xdb;" horiz-adv-x="396" 
d="M57 167v540h48v-548c0 -49 0 -125 94 -125c27 0 56 9 73 34c15 20 17 43 17 120v519h49v-566c0 -29 0 -153 -142 -153c-30 0 -65 8 -90 27c-49 37 -49 95 -49 152zM95 769l78 109h50l73 -108h-40l-58 68l-61 -69h-42z" />
    <glyph glyph-name="Ugrave" unicode="&#xd9;" horiz-adv-x="396" 
d="M57 167v540h48v-548c0 -49 0 -125 94 -125c27 0 56 9 73 34c15 20 17 43 17 120v519h49v-566c0 -29 0 -153 -142 -153c-30 0 -65 8 -90 27c-49 37 -49 95 -49 152zM70 880h97l88 -108h-32z" />
    <glyph glyph-name="Udieresis" unicode="&#xdc;" horiz-adv-x="396" 
d="M57 167v540h48v-548c0 -49 0 -125 94 -125c27 0 56 9 73 34c15 20 17 43 17 120v519h49v-566c0 -29 0 -153 -142 -153c-30 0 -65 8 -90 27c-49 37 -49 95 -49 152zM245 865h52v-76h-52v76zM97 865h52v-76h-52v76z" />
    <glyph glyph-name="Iacute" unicode="&#xcd;" horiz-adv-x="167" 
d="M58 706h51v-706h-51v706zM22 769l84 109h94l-141 -109h-37z" />
    <glyph glyph-name="Agrave" unicode="&#xc0;" horiz-adv-x="375" 
d="M153 710h68l128 -710h-52l-36 215h-148l-37 -215h-52zM252 261l-55 327c-2 10 -6 41 -10 67c-1 -10 -2 -19 -3 -29c-2 -10 -3 -21 -5 -32l-58 -333h131zM59 880h97l88 -108h-32z" />
    <glyph glyph-name="degree" unicode="&#xb0;" horiz-adv-x="354" 
d="M177 744c79 0 142 -64 142 -142s-63 -142 -142 -142c-78 0 -142 64 -142 142c0 79 64 142 142 142zM177 699c-53 0 -97 -43 -97 -97c0 -55 44 -98 97 -98s98 43 98 98c0 54 -44 97 -98 97z" />
    <glyph glyph-name="onehalf" unicode="&#xbd;" horiz-adv-x="583" 
d="M43 610v36c38 10 57 21 69 61h34v-442h-39v372c-13 -10 -28 -21 -64 -27zM83 -58l366 844c7 -3 19 -9 26 -12l-368 -844c-6 3 -17 8 -24 12zM425 348v-54h-36v54c0 23 0 97 80 97s80 -75 80 -102c0 -102 -5 -119 -87 -235c-36 -51 -38 -57 -44 -73h131v-35h-170
c0 35 0 39 4 48c11 26 12 29 49 81c63 90 80 114 80 196c0 37 0 83 -43 83c-44 0 -44 -46 -44 -60z" />
    <glyph glyph-name="minus" unicode="&#x2212;" horiz-adv-x="500" 
d="M500 315v-46h-500v46h500z" />
    <glyph glyph-name="Yacute" unicode="&#xdd;" horiz-adv-x="354" 
d="M14 706h52l112 -332l113 332h54l-144 -394v-312h-48v312zM116 769l84 109h94l-141 -109h-37z" />
    <glyph glyph-name="twosuperior" unicode="&#xb2;" horiz-adv-x="229" 
d="M71 613v-54h-36v54c0 23 0 97 80 97s80 -75 80 -102c0 -102 -5 -119 -87 -235c-36 -51 -38 -57 -44 -73h131v-35h-170c0 35 0 39 4 48c11 26 12 29 49 81c63 90 80 114 80 196c0 37 0 83 -43 83c-44 0 -44 -46 -44 -60z" />
    <glyph glyph-name="Uacute" unicode="&#xda;" horiz-adv-x="396" 
d="M57 167v540h48v-548c0 -49 0 -125 94 -125c27 0 56 9 73 34c15 20 17 43 17 120v519h49v-566c0 -29 0 -153 -142 -153c-30 0 -65 8 -90 27c-49 37 -49 95 -49 152zM137 769l84 109h94l-141 -109h-37z" />
    <glyph glyph-name="registered" unicode="&#xae;" horiz-adv-x="833" 
d="M282 574h128c51 0 76 0 102 -11c38 -15 63 -52 63 -95c0 -53 -35 -99 -105 -108c62 -19 72 -64 77 -102c10 -66 13 -87 31 -124h-58c-3 7 -6 14 -11 30c-3 14 -14 86 -17 102c-17 79 -66 79 -160 79v-211h-50v440zM333 535v-149h83c29 0 108 0 108 76c0 28 -13 54 -40 65
c-18 8 -37 8 -81 8h-70zM773 351c0 -189 -151 -354 -357 -354c-185 0 -355 145 -355 356c0 205 164 356 355 356c200 0 357 -155 357 -358zM741 351c0 181 -139 326 -325 326c-176 0 -323 -142 -323 -324c0 -183 147 -324 324 -324c186 0 324 149 324 322z" />
    <glyph glyph-name="copyright" unicode="&#xa9;" horiz-adv-x="833" 
d="M574 250l33 -27c-43 -59 -111 -96 -184 -96c-122 0 -227 94 -227 226c0 137 106 230 227 230c107 0 161 -66 184 -94l-33 -30c-24 28 -66 80 -149 80c-96 0 -183 -75 -183 -185c0 -106 86 -183 181 -183c85 0 126 49 151 79zM772 351c0 -191 -152 -354 -355 -354
c-185 0 -356 144 -356 357c0 200 158 355 357 355c195 0 354 -151 354 -358zM740 352c0 181 -138 325 -322 325s-325 -147 -325 -323c0 -186 148 -325 324 -325c184 0 323 146 323 323z" />
    <glyph glyph-name="Ecircumflex" unicode="&#xca;" horiz-adv-x="333" 
d="M59 0v706h250v-44h-201v-272h165v-43h-166v-303h201v-44h-249zM74 769l78 109h50l73 -108h-40l-58 68l-61 -69h-42z" />
    <glyph glyph-name="trademark" unicode="&#x2122;" horiz-adv-x="687" 
d="M609 706v-331h-39v225l1 67l-93 -292h-35l-93 292l2 -67v-225h-38v331h59l89 -278l88 278h59zM178 670v-295h-40v295h-110v36h257v-36h-107z" />
    <glyph glyph-name="plusminus" unicode="&#xb1;" horiz-adv-x="500" 
d="M275 340v-197h-46v197h-198v45h198v197h46v-197h195v-45h-195zM470 46v-46h-439v46h439z" />
    <glyph glyph-name="Eth" unicode="&#xd0;" horiz-adv-x="396" 
d="M60 412v294h82c193 0 199 -147 199 -293v-161c0 -99 -3 -252 -198 -252h-83v370h-60v42h60zM293 251v167c0 138 -18 168 -27 184c-36 59 -96 59 -157 59v-249h110v-42h-110v-325c71 0 117 0 153 50c19 27 31 67 31 156z" />
    <glyph glyph-name="Adieresis" unicode="&#xc4;" horiz-adv-x="375" 
d="M153 710h68l128 -710h-52l-36 215h-148l-37 -215h-52zM252 261l-55 327c-2 10 -6 41 -10 67c-1 -10 -2 -19 -3 -29c-2 -10 -3 -21 -5 -32l-58 -333h131zM235 865h52v-76h-52v76zM87 865h52v-76h-52v76z" />
    <glyph glyph-name="Aring" unicode="&#xc5;" horiz-adv-x="375" 
d="M153 710h68l128 -710h-52l-36 215h-148l-37 -215h-52zM252 261l-55 327c-2 10 -6 41 -10 67c-1 -10 -2 -19 -3 -29c-2 -10 -3 -21 -5 -32l-58 -333h131zM140 767c-5 5 -19 22 -19 47c0 36 30 66 66 66s66 -30 66 -66s-30 -66 -66 -66c-25 0 -42 14 -47 19zM143 814
c0 -24 20 -44 44 -44s44 20 44 44s-20 44 -44 44s-44 -20 -44 -44z" />
    <glyph glyph-name="Ydieresis" unicode="&#x178;" horiz-adv-x="354" 
d="M14 706h52l112 -332l113 332h54l-144 -394v-312h-48v312zM226 865h52v-76h-52v76zM78 865h52v-76h-52v76z" />
    <glyph glyph-name="divide" unicode="&#xf7;" horiz-adv-x="500" 
d="M291 170c0 -21 -16 -39 -39 -39s-39 18 -39 39s16 39 38 39c24 0 40 -18 40 -39zM291 412c0 -21 -16 -39 -39 -39s-39 18 -39 39s16 39 38 39c24 0 40 -18 40 -39zM500 314v-46h-500v46h500z" />
    <glyph glyph-name="onesuperior" unicode="&#xb9;" horiz-adv-x="229" 
d="M43 610v35c38 10 57 22 69 62h34v-442h-39v372c-13 -10 -28 -21 -64 -27z" />
    <glyph glyph-name="threesuperior" unicode="&#xb3;" horiz-adv-x="229" 
d="M78 623l-2 -50h-36c1 70 1 76 6 91c10 29 37 45 73 45c78 0 78 -64 78 -94c0 -53 0 -90 -52 -112c57 -21 60 -60 60 -100c0 -65 0 -144 -90 -144c-96 0 -93 87 -91 147h36c1 -68 2 -112 54 -112c54 0 54 56 54 73c0 55 0 61 -4 73c-12 40 -60 42 -85 43v37
c70 3 81 32 81 72c0 56 0 81 -42 81c-39 0 -40 -30 -40 -50z" />
    <glyph glyph-name="Egrave" unicode="&#xc8;" horiz-adv-x="333" 
d="M59 0v706h250v-44h-201v-272h165v-43h-166v-303h201v-44h-249zM39 880h97l88 -108h-32z" />
    <glyph glyph-name="Idieresis" unicode="&#xcf;" horiz-adv-x="167" 
d="M58 706h51v-706h-51v706zM132 865h52v-76h-52v76zM-16 865h52v-76h-52v76z" />
    <glyph glyph-name="Scaron" unicode="&#x160;" horiz-adv-x="375" 
d="M91 231v-56c0 -53 0 -82 21 -109c23 -29 61 -33 82 -33c70 0 91 42 91 115c0 80 -22 110 -103 190c-79 79 -123 123 -123 222c0 59 9 156 133 156c132 0 132 -96 132 -163v-51h-48v63c0 43 0 109 -83 109c-64 0 -85 -37 -85 -106s14 -98 120 -206
c73 -75 106 -109 106 -205c0 -67 -9 -168 -144 -168c-82 0 -148 42 -148 143v99h49zM191 809l62 69h40l-77 -109h-50l-72 108h39z" />
    <glyph glyph-name="Icircumflex" unicode="&#xce;" horiz-adv-x="167" 
d="M58 706h51v-706h-51v706zM-20 769l78 109h50l73 -108h-40l-58 68l-61 -69h-42z" />
    <glyph glyph-name="aacute" unicode="&#xe1;" 
d="M92 348h-43c0 77 0 158 115 158c102 0 102 -79 102 -110v-338c0 -17 15 -18 30 -18v-40c-44 0 -63 6 -72 39c-22 -17 -50 -39 -97 -39c-71 0 -99 56 -99 118c0 96 59 131 111 158c51 27 58 30 84 50v58c0 45 -5 82 -64 82c-67 0 -67 -51 -67 -118zM224 88v191
c-16 -11 -20 -13 -60 -35c-51 -29 -93 -53 -93 -127c0 -40 18 -77 65 -77c44 0 68 26 88 48zM105 567l84 109h95l-143 -109h-36z" />
    <glyph glyph-name="acircumflex" unicode="&#xe2;" 
d="M92 348h-43c0 77 0 158 115 158c102 0 102 -79 102 -110v-338c0 -17 15 -18 30 -18v-40c-44 0 -63 6 -72 39c-22 -17 -50 -39 -97 -39c-71 0 -99 56 -99 118c0 96 59 131 111 158c51 27 58 30 84 50v58c0 45 -5 82 -64 82c-67 0 -67 -51 -67 -118zM224 88v191
c-16 -11 -20 -13 -60 -35c-51 -29 -93 -53 -93 -127c0 -40 18 -77 65 -77c44 0 68 26 88 48zM142 677h50l72 -108h-39l-58 68l-61 -68h-41z" />
    <glyph glyph-name="adieresis" unicode="&#xe4;" 
d="M92 348h-43c0 77 0 158 115 158c102 0 102 -79 102 -110v-338c0 -17 15 -18 30 -18v-40c-44 0 -63 6 -72 39c-22 -17 -50 -39 -97 -39c-71 0 -99 56 -99 118c0 96 59 131 111 158c51 27 58 30 84 50v58c0 45 -5 82 -64 82c-67 0 -67 -51 -67 -118zM224 88v191
c-16 -11 -20 -13 -60 -35c-51 -29 -93 -53 -93 -127c0 -40 18 -77 65 -77c44 0 68 26 88 48zM91 662h48v-77h-48v77zM190 662h48v-77h-48v77z" />
    <glyph glyph-name="agrave" unicode="&#xe0;" 
d="M92 348h-43c0 77 0 158 115 158c102 0 102 -79 102 -110v-338c0 -17 15 -18 30 -18v-40c-44 0 -63 6 -72 39c-22 -17 -50 -39 -97 -39c-71 0 -99 56 -99 118c0 96 59 131 111 158c51 27 58 30 84 50v58c0 45 -5 82 -64 82c-67 0 -67 -51 -67 -118zM224 88v191
c-16 -11 -20 -13 -60 -35c-51 -29 -93 -53 -93 -127c0 -40 18 -77 65 -77c44 0 68 26 88 48zM40 678h97l87 -109h-33z" />
    <glyph glyph-name="aring" unicode="&#xe5;" 
d="M92 348h-43c0 77 0 158 115 158c102 0 102 -79 102 -110v-338c0 -17 15 -18 30 -18v-40c-44 0 -63 6 -72 39c-22 -17 -50 -39 -97 -39c-71 0 -99 56 -99 118c0 96 59 131 111 158c51 27 58 30 84 50v58c0 45 -5 82 -64 82c-67 0 -67 -51 -67 -118zM224 88v191
c-16 -11 -20 -13 -60 -35c-51 -29 -93 -53 -93 -127c0 -40 18 -77 65 -77c44 0 68 26 88 48zM118 568c-5 5 -19 22 -19 47c0 37 30 67 66 67s66 -30 66 -67c0 -36 -30 -66 -66 -66c-25 0 -42 14 -47 19zM121 615c0 -23 20 -44 44 -44s44 21 44 44c0 24 -20 45 -44 45
s-44 -21 -44 -45z" />
    <glyph glyph-name="atilde" unicode="&#xe3;" 
d="M92 348h-43c0 77 0 158 115 158c102 0 102 -79 102 -110v-338c0 -17 15 -18 30 -18v-40c-44 0 -63 6 -72 39c-22 -17 -50 -39 -97 -39c-71 0 -99 56 -99 118c0 96 59 131 111 158c51 27 58 30 84 50v58c0 45 -5 82 -64 82c-67 0 -67 -51 -67 -118zM224 88v191
c-16 -11 -20 -13 -60 -35c-51 -29 -93 -53 -93 -127c0 -40 18 -77 65 -77c44 0 68 26 88 48zM262 654c5 -4 12 -9 16 -13c-24 -37 -42 -62 -74 -62c-13 0 -72 25 -87 25c-21 0 -33 -14 -43 -26c-5 3 -12 9 -16 13c16 23 38 55 74 55c13 0 27 -4 40 -9c31 -14 35 -15 44 -15
c18 0 27 10 46 32z" />
    <glyph glyph-name="eacute" unicode="&#xe9;" 
d="M43 122v263c0 77 41 121 113 121c117 0 117 -96 117 -158v-101h-188v-124c0 -65 33 -85 74 -85c11 0 50 0 65 42c7 17 7 22 7 94h42v-56c0 -76 -42 -119 -116 -119c-24 0 -53 4 -79 28c-28 24 -35 53 -35 95zM230 282v93c0 16 0 93 -72 93c-73 0 -73 -73 -73 -97v-89h145
zM94 567l84 109h95l-143 -109h-36z" />
    <glyph glyph-name="ecircumflex" unicode="&#xea;" 
d="M43 122v263c0 77 41 121 113 121c117 0 117 -96 117 -158v-101h-188v-124c0 -65 33 -85 74 -85c11 0 50 0 65 42c7 17 7 22 7 94h42v-56c0 -76 -42 -119 -116 -119c-24 0 -53 4 -79 28c-28 24 -35 53 -35 95zM230 282v93c0 16 0 93 -72 93c-73 0 -73 -73 -73 -97v-89h145
zM131 677h50l72 -108h-39l-58 68l-61 -68h-41z" />
    <glyph glyph-name="edieresis" unicode="&#xeb;" 
d="M43 122v263c0 77 41 121 113 121c117 0 117 -96 117 -158v-101h-188v-124c0 -65 33 -85 74 -85c11 0 50 0 65 42c7 17 7 22 7 94h42v-56c0 -76 -42 -119 -116 -119c-24 0 -53 4 -79 28c-28 24 -35 53 -35 95zM230 282v93c0 16 0 93 -72 93c-73 0 -73 -73 -73 -97v-89h145
zM80 662h48v-77h-48v77zM179 662h48v-77h-48v77z" />
    <glyph glyph-name="egrave" unicode="&#xe8;" 
d="M43 122v263c0 77 41 121 113 121c117 0 117 -96 117 -158v-101h-188v-124c0 -65 33 -85 74 -85c11 0 50 0 65 42c7 17 7 22 7 94h42v-56c0 -76 -42 -119 -116 -119c-24 0 -53 4 -79 28c-28 24 -35 53 -35 95zM230 282v93c0 16 0 93 -72 93c-73 0 -73 -73 -73 -97v-89h145
zM29 678h97l87 -109h-33z" />
    <glyph glyph-name="iacute" unicode="&#xed;" horiz-adv-x="146" 
d="M52 0v504h43v-504h-43zM11 567l84 109h95l-143 -109h-36z" />
    <glyph glyph-name="icircumflex" unicode="&#xee;" horiz-adv-x="146" 
d="M52 0v504h43v-504h-43zM48 677h50l72 -108h-39l-58 68l-61 -68h-41z" />
    <glyph glyph-name="idieresis" unicode="&#xef;" horiz-adv-x="146" 
d="M52 0v504h43v-504h-43zM-3 662h48v-77h-48v77zM96 662h48v-77h-48v77z" />
    <glyph glyph-name="igrave" unicode="&#xec;" horiz-adv-x="146" 
d="M52 0v504h43v-504h-43zM-54 678h97l87 -109h-33z" />
    <glyph glyph-name="ntilde" unicode="&#xf1;" horiz-adv-x="333" 
d="M97 504v-49c7 12 15 25 35 38c16 10 36 16 58 16c14 0 34 -3 52 -13c43 -25 43 -72 43 -92v-404h-42v403c0 53 -34 69 -62 69c-25 0 -50 -12 -66 -30c-10 -12 -14 -22 -18 -33v-409h-42v504h42zM262 654c5 -4 12 -9 16 -13c-24 -37 -42 -62 -74 -62c-13 0 -72 25 -87 25
c-21 0 -33 -14 -43 -26c-5 3 -12 9 -16 13c16 23 38 55 74 55c13 0 27 -4 40 -9c31 -14 35 -15 44 -15c18 0 27 10 46 32z" />
    <glyph glyph-name="oacute" unicode="&#xf3;" 
d="M39 121v264c0 101 75 121 120 121c115 0 115 -93 115 -124v-239c0 -40 -3 -70 -22 -98c-32 -47 -86 -47 -97 -47c-9 0 -38 0 -67 17c-43 24 -49 63 -49 106zM231 126v251c0 19 0 87 -71 87c-78 0 -78 -66 -78 -99v-243c0 -17 0 -83 72 -83c41 0 77 21 77 87zM94 567
l84 109h95l-143 -109h-36z" />
    <glyph glyph-name="ocircumflex" unicode="&#xf4;" 
d="M39 121v264c0 101 75 121 120 121c115 0 115 -93 115 -124v-239c0 -40 -3 -70 -22 -98c-32 -47 -86 -47 -97 -47c-9 0 -38 0 -67 17c-43 24 -49 63 -49 106zM231 126v251c0 19 0 87 -71 87c-78 0 -78 -66 -78 -99v-243c0 -17 0 -83 72 -83c41 0 77 21 77 87zM131 677h50
l72 -108h-39l-58 68l-61 -68h-41z" />
    <glyph glyph-name="odieresis" unicode="&#xf6;" 
d="M39 121v264c0 101 75 121 120 121c115 0 115 -93 115 -124v-239c0 -40 -3 -70 -22 -98c-32 -47 -86 -47 -97 -47c-9 0 -38 0 -67 17c-43 24 -49 63 -49 106zM231 126v251c0 19 0 87 -71 87c-78 0 -78 -66 -78 -99v-243c0 -17 0 -83 72 -83c41 0 77 21 77 87zM83 662h48
v-77h-48v77zM182 662h48v-77h-48v77z" />
    <glyph glyph-name="ograve" unicode="&#xf2;" 
d="M39 121v264c0 101 75 121 120 121c115 0 115 -93 115 -124v-239c0 -40 -3 -70 -22 -98c-32 -47 -86 -47 -97 -47c-9 0 -38 0 -67 17c-43 24 -49 63 -49 106zM231 126v251c0 19 0 87 -71 87c-78 0 -78 -66 -78 -99v-243c0 -17 0 -83 72 -83c41 0 77 21 77 87zM29 678h97
l87 -109h-33z" />
    <glyph glyph-name="otilde" unicode="&#xf5;" 
d="M39 121v264c0 101 75 121 120 121c115 0 115 -93 115 -124v-239c0 -40 -3 -70 -22 -98c-32 -47 -86 -47 -97 -47c-9 0 -38 0 -67 17c-43 24 -49 63 -49 106zM231 126v251c0 19 0 87 -71 87c-78 0 -78 -66 -78 -99v-243c0 -17 0 -83 72 -83c41 0 77 21 77 87zM251 654
c5 -4 12 -9 16 -13c-24 -37 -42 -62 -74 -62c-13 0 -72 25 -87 25c-21 0 -33 -14 -43 -26c-5 3 -12 9 -16 13c16 23 38 55 74 55c13 0 27 -4 40 -9c31 -14 35 -15 44 -15c18 0 27 10 46 32z" />
    <glyph glyph-name="scaron" unicode="&#x161;" horiz-adv-x="292" 
d="M70 177v-44c0 -31 0 -94 78 -94c39 0 74 16 74 84c0 53 -12 63 -84 124c-57 48 -91 78 -91 150c0 43 11 108 106 108c105 0 105 -81 105 -120v-35h-43c0 77 0 115 -62 115c-63 0 -63 -43 -63 -65c0 -45 2 -59 99 -139c48 -39 76 -63 76 -137c0 -38 -8 -76 -36 -100
c-16 -13 -41 -25 -81 -25c-63 0 -86 26 -93 34c-27 29 -27 67 -27 144h42zM55 679h39l58 -67l61 68h41l-77 -109h-50z" />
    <glyph glyph-name="uacute" unicode="&#xfa;" horiz-adv-x="333" 
d="M50 116v388h42v-378c0 -31 4 -92 66 -92c51 0 69 43 78 65v405h43v-503h-43v47c-13 -17 -39 -50 -91 -50c-21 0 -40 6 -55 16c-40 27 -40 76 -40 102zM105 567l84 109h95l-143 -109h-36z" />
    <glyph glyph-name="ucircumflex" unicode="&#xfb;" horiz-adv-x="333" 
d="M50 116v388h42v-378c0 -31 4 -92 66 -92c51 0 69 43 78 65v405h43v-503h-43v47c-13 -17 -39 -50 -91 -50c-21 0 -40 6 -55 16c-40 27 -40 76 -40 102zM142 677h50l72 -108h-39l-58 68l-61 -68h-41z" />
    <glyph glyph-name="udieresis" unicode="&#xfc;" horiz-adv-x="333" 
d="M50 116v388h42v-378c0 -31 4 -92 66 -92c51 0 69 43 78 65v405h43v-503h-43v47c-13 -17 -39 -50 -91 -50c-21 0 -40 6 -55 16c-40 27 -40 76 -40 102zM91 662h48v-77h-48v77zM190 662h48v-77h-48v77z" />
    <glyph glyph-name="ugrave" unicode="&#xf9;" horiz-adv-x="333" 
d="M50 116v388h42v-378c0 -31 4 -92 66 -92c51 0 69 43 78 65v405h43v-503h-43v47c-13 -17 -39 -50 -91 -50c-21 0 -40 6 -55 16c-40 27 -40 76 -40 102zM40 678h97l87 -109h-33z" />
    <glyph glyph-name="yacute" unicode="&#xfd;" horiz-adv-x="292" 
d="M124 4l-109 500h43l88 -418l89 418h45l-129 -560c-24 -102 -78 -107 -142 -107v42c8 -1 14 -2 22 -2c66 0 78 54 81 69zM85 567l84 109h95l-143 -109h-36z" />
    <glyph glyph-name="ydieresis" unicode="&#xff;" horiz-adv-x="292" 
d="M124 4l-109 500h43l88 -418l89 418h45l-129 -560c-24 -102 -78 -107 -142 -107v42c8 -1 14 -2 22 -2c66 0 78 54 81 69zM81 662h48v-77h-48v77zM180 662h48v-77h-48v77z" />
    <glyph glyph-name="zcaron" unicode="&#x17e;" horiz-adv-x="292" 
d="M50 461v42h209v-34l-174 -427h174v-42h-223v37l172 424h-158zM60 679h39l58 -67l61 68h41l-77 -109h-50z" />
  </font>
</defs>
</svg>
