<?xml version="1.0" standalone="no"?>
<!DOCTYPE svg PUBLIC "-//W3C//DTD SVG 1.1//EN" "http://www.w3.org/Graphics/SVG/1.1/DTD/svg11.dtd" >
<svg xmlns="http://www.w3.org/2000/svg" width="100%" height="100%">
<metadata>
Created by FontXChange 20110222 at Fri Jun  1 16:54:46 2018
 By Suzi Rubino
Copyright (c) 1991 Adobe Systems Incorporated.  All Rights Reserved.Berthold Akzidenz Grotesk is a registered trademark of H. Berthold AG.
</metadata>
<defs>
<font id="AkzidenzGroteskBE-XBdCn" horiz-adv-x="500" >
  <font-face 
    font-family="AkzidenzGroteskBE"
    font-weight="700"
    font-stretch="normal"
    units-per-em="1000"
    panose-1="2 0 8 3 0 0 0 0 0 0"
    ascent="800"
    descent="-200"
    x-height="531"
    cap-height="706"
    bbox="-95 -250 1102 927"
    underline-thickness="50"
    underline-position="-100"
    stemh="102"
    stemv="158"
    unicode-range="U+0020-FB02"
  />
    <missing-glyph />
    <glyph glyph-name="space" unicode=" " horiz-adv-x="271" 
 />
    <glyph glyph-name="exclam" unicode="!" horiz-adv-x="292" 
d="M239 0h-148v154h148v-154zM210 229h-92c-8 120 -10 140 -14 201c-10 125 -11 143 -11 191v85h147v-85c0 -31 0 -48 -7 -140c-6 -70 -17 -182 -23 -252z" />
    <glyph glyph-name="quotedbl" unicode="&#x22;" horiz-adv-x="396" 
d="M372 670l-53 -262h-31l-55 250c-1 7 -2 14 -2 21c0 59 52 70 75 70c34 0 68 -20 68 -64c0 -5 -1 -10 -2 -15zM163 670l-53 -262h-31l-54 250c-2 7 -3 14 -3 21c0 60 55 70 76 70c29 0 67 -16 67 -65c0 -5 -1 -10 -2 -14z" />
    <glyph glyph-name="numbersign" unicode="#" horiz-adv-x="583" 
d="M559 310v-124h-116l-26 -186h-126l27 186h-99l-26 -186h-124l25 186h-94v124h112l13 95h-100v124h117l25 176h124l-24 -176h99l24 176h125l-24 -176h92v-124h-109l-13 -95h98zM236 310h99l13 95h-98z" />
    <glyph glyph-name="dollar" unicode="$" 
d="M209 834h83v-117c147 -12 171 -57 168 -227h-162v51c0 34 -3 58 -52 58c-44 0 -45 -32 -45 -70c0 -29 2 -39 22 -56c13 -11 25 -19 84 -57c144 -95 170 -111 170 -224c0 -148 -60 -186 -185 -201v-128h-83v128c-54 6 -137 14 -169 90c-15 35 -15 85 -14 145h169v-49
c0 -32 3 -64 53 -64c58 0 58 31 58 63c0 46 -6 49 -93 109c-159 110 -178 123 -178 235c0 151 58 187 174 197v117z" />
    <glyph glyph-name="percent" unicode="%" horiz-adv-x="792" 
d="M482 118v203c0 77 19 131 144 131c130 0 138 -66 138 -115v-207c0 -53 -4 -134 -134 -134c-132 0 -148 63 -148 122zM474 706h71l-233 -706h-71zM661 110v229c0 27 -8 35 -38 35c-34 0 -34 -22 -34 -34v-231c0 -19 4 -31 35 -31c32 0 37 14 37 32zM205 375v229
c0 26 -8 34 -38 34c-34 0 -34 -22 -34 -34v-229c0 -20 4 -32 35 -32c32 0 37 14 37 32zM27 383v202c0 77 19 131 144 131c130 0 138 -66 138 -115v-205c0 -52 -3 -135 -134 -135c-133 0 -148 63 -148 122z" />
    <glyph glyph-name="ampersand" unicode="&#x26;" horiz-adv-x="604" 
d="M593 0h-114c-52 0 -64 8 -90 30c-29 -18 -67 -42 -145 -42c-145 0 -223 79 -223 191c0 67 31 102 46 118c19 21 23 24 111 90c-46 72 -66 104 -66 157c0 74 57 152 181 152c101 0 184 -50 184 -151c0 -87 -72 -138 -126 -178l73 -123c10 50 12 62 11 110h119
c-5 -125 -14 -162 -57 -234c17 -29 33 -32 96 -31v-89zM295 464c29 19 70 47 70 86c0 31 -29 53 -60 53c-32 0 -48 -26 -48 -51c0 -29 21 -62 38 -88zM330 126l-91 156c-28 -17 -73 -44 -73 -90c0 -31 33 -97 87 -97c32 0 58 18 77 31z" />
    <glyph glyph-name="quoteright" unicode="&#x2019;" horiz-adv-x="250" 
d="M51 554v152h147v-152l-79 -152h-68l46 152h-46z" />
    <glyph glyph-name="parenleft" unicode="(" horiz-adv-x="354" 
d="M84 49v426c0 71 10 118 45 157c60 68 141 73 202 77v-61c-91 -9 -101 -39 -101 -110v-567c0 -84 28 -104 101 -106v-61c-49 2 -122 4 -182 56c-64 56 -65 132 -65 189z" />
    <glyph glyph-name="parenright" unicode=")" horiz-adv-x="354" 
d="M270 464v-427c0 -70 -10 -117 -45 -156c-60 -68 -141 -73 -202 -77v61c91 9 101 39 101 110v567c0 84 -28 104 -101 106v61c49 -2 122 -4 182 -56c64 -56 65 -132 65 -189z" />
    <glyph glyph-name="asterisk" unicode="*" horiz-adv-x="417" 
d="M153 598l46 117h9l49 -120l123 -6c1 -3 3 -7 3 -9l-92 -90l33 -119l-8 -7l-108 70l-105 -70c-3 2 -7 5 -9 7l28 127l-99 79c0 2 1 6 2 8z" />
    <glyph glyph-name="plus" unicode="+" 
d="M467 356v-128h-154v-156h-127v156h-152v128h152v154h127v-154h154z" />
    <glyph glyph-name="comma" unicode="," horiz-adv-x="250" 
d="M52 153h147v-153l-85 -152h-69l54 152h-47v153z" />
    <glyph glyph-name="hyphen" unicode="-" horiz-adv-x="333" 
d="M28 415h274v-121h-274v121z" />
    <glyph glyph-name="period" unicode="." horiz-adv-x="250" 
d="M51 0v152h148v-152h-148z" />
    <glyph glyph-name="slash" unicode="/" horiz-adv-x="313" 
d="M9 0l172 706h124l-174 -706h-122z" />
    <glyph glyph-name="zero" unicode="0" 
d="M33 181v335c0 65 6 203 209 203c68 0 136 -11 183 -63c41 -45 41 -92 41 -159v-304c0 -95 -19 -204 -212 -204c-129 0 -221 35 -221 192zM303 171v361c0 17 0 57 -54 57s-54 -38 -54 -56v-360c0 -36 5 -65 54 -65c53 0 54 37 54 63z" />
    <glyph glyph-name="one" unicode="1" 
d="M85 469v143c61 9 96 28 128 94h130v-706h-151v519c-51 -30 -65 -36 -107 -50z" />
    <glyph glyph-name="two" unicode="2" 
d="M44 435v91c0 56 2 115 68 159c36 23 84 34 141 34c94 0 140 -32 163 -55c44 -41 44 -79 44 -151c0 -118 -12 -129 -116 -224c-98 -90 -110 -100 -127 -155h241v-134h-420c0 161 2 195 155 331c93 83 110 98 110 152v53c0 16 0 63 -54 63c-57 0 -57 -48 -57 -64v-100h-148
z" />
    <glyph glyph-name="three" unicode="3" 
d="M47 488v68c0 34 0 87 53 126c52 37 123 37 149 37c51 0 101 -7 144 -33c61 -39 61 -90 61 -166c0 -75 -7 -104 -80 -147c85 -32 85 -74 85 -178c0 -107 0 -208 -210 -208c-196 0 -208 79 -208 172v85h155v-74c0 -24 0 -67 54 -67c56 0 56 45 56 93c0 92 0 113 -59 113
h-67v120c115 0 127 3 127 67c0 78 -3 107 -57 107s-54 -40 -54 -56v-59h-149z" />
    <glyph glyph-name="four" unicode="4" 
d="M236 706h169v-427h74v-125h-74v-154h-143v154h-228v130zM262 279v262l-125 -262h125z" />
    <glyph glyph-name="five" unicode="5" 
d="M45 323v384h396v-126h-250v-150c17 21 42 52 110 52c55 0 101 -20 127 -55c30 -41 30 -99 30 -150v-85c0 -77 -2 -114 -45 -154c-23 -20 -63 -50 -162 -50c-69 0 -142 8 -185 61c-29 37 -29 72 -29 181h154v-56c0 -24 0 -65 55 -65c53 0 54 40 54 68v126
c0 35 -6 70 -57 70c-50 0 -52 -36 -52 -51h-146z" />
    <glyph glyph-name="six" unicode="6" 
d="M454 542v-48h-147c0 11 0 54 -2 62c-8 36 -41 36 -48 36c-60 0 -60 -48 -60 -68v-131c20 21 46 47 106 47c31 0 78 -5 115 -37c36 -31 40 -68 40 -105v-116c0 -59 0 -106 -52 -148c-25 -20 -69 -46 -156 -46c-59 0 -119 14 -161 55c-43 42 -45 101 -45 157v321
c0 62 0 197 202 197c208 0 208 -125 208 -176zM252 343c-56 0 -56 -35 -56 -118c0 -28 0 -69 4 -82c10 -30 39 -31 52 -31c56 0 56 39 56 95c0 102 0 136 -56 136z" />
    <glyph glyph-name="seven" unicode="7" 
d="M27 490v216h436v-128c-23 -37 -57 -94 -101 -218c-77 -215 -79 -286 -80 -360h-169c3 43 10 130 66 279c39 104 90 205 140 305h-152v-94h-140z" />
    <glyph glyph-name="eight" unicode="8" 
d="M458 241v-82c0 -45 -2 -91 -52 -128c-45 -34 -102 -41 -158 -41c-33 0 -130 0 -181 69c-28 37 -28 69 -28 175c0 89 10 115 89 145c-52 14 -81 32 -81 152c0 58 0 189 205 189c53 0 102 -11 140 -37c61 -42 61 -106 61 -139c0 -95 -2 -136 -81 -165
c73 -30 86 -55 86 -138zM251 598c-57 0 -57 -35 -57 -88c0 -58 0 -89 50 -89c19 0 33 3 44 11c16 14 16 23 16 99c0 36 -4 67 -53 67zM249 320c-56 0 -56 -32 -56 -87c0 -34 0 -89 5 -103c8 -21 26 -27 48 -27c56 0 56 31 56 116c0 70 0 101 -53 101z" />
    <glyph glyph-name="nine" unicode="9" 
d="M451 515v-317c0 -67 -6 -117 -46 -154c-32 -31 -87 -54 -161 -54c-104 0 -151 37 -166 52c-46 42 -45 89 -44 172h152v-49c0 -19 0 -59 55 -59c49 0 58 24 58 62v147c-24 -22 -48 -43 -105 -43c-58 0 -107 26 -131 67c-22 36 -26 87 -26 143c0 106 12 150 50 186
c15 14 59 52 160 52c204 0 204 -149 204 -205zM243 602c-56 0 -56 -47 -56 -89c0 -20 0 -92 3 -106c8 -31 33 -40 53 -40c18 0 35 7 45 20c10 14 13 22 13 97c0 73 0 118 -58 118z" />
    <glyph glyph-name="colon" unicode=":" horiz-adv-x="292" 
d="M91 387v152h147v-152h-147zM91 0v152h147v-152h-147z" />
    <glyph glyph-name="semicolon" unicode=";" horiz-adv-x="292" 
d="M88 387v152h147v-152h-147zM88 0v152h147v-152l-84 -152h-69l51 152h-45z" />
    <glyph glyph-name="less" unicode="&#x3c;" 
d="M500 207v-138l-499 220v124l499 225v-139l-328 -148z" />
    <glyph glyph-name="equal" unicode="=" 
d="M500 250v-127h-500v127h500zM500 458v-127h-500v127h500z" />
    <glyph glyph-name="greater" unicode="&#x3e;" 
d="M500 289l-500 -220v138l329 144l-329 148v138l500 -224v-124z" />
    <glyph glyph-name="question" unicode="?" 
d="M290 151v-151h-148v151h148zM290 229h-147v49c0 50 3 81 57 132l75 72c26 25 35 34 35 74c0 12 0 53 -41 53c-44 0 -44 -33 -44 -60v-48h-143v54c0 81 5 164 180 164c186 0 197 -79 197 -172c0 -60 -7 -68 -106 -160c-61 -56 -63 -58 -63 -103v-55z" />
    <glyph glyph-name="at" unicode="@" horiz-adv-x="896" 
d="M779 101l47 -61c-68 -62 -180 -164 -368 -164c-153 0 -389 81 -389 361c0 258 199 475 458 475c214 0 300 -151 300 -290c0 -188 -118 -356 -237 -356c-22 0 -42 6 -58 16c-26 17 -30 36 -34 53c-16 -19 -56 -68 -127 -68c-62 0 -137 42 -137 170c0 138 89 287 218 287
c63 0 88 -37 104 -60l10 39h90l-33 -159c-8 -37 -29 -136 -29 -166c0 -14 6 -20 14 -26c16 0 37 0 76 59c39 60 59 137 59 208c0 158 -117 214 -225 214c-187 0 -368 -175 -368 -397c0 -209 168 -281 304 -281c169 0 276 100 325 146zM523 350c0 49 -27 84 -68 84
c-71 0 -118 -109 -118 -194c0 -57 32 -84 64 -84c61 0 122 96 122 194z" />
    <glyph glyph-name="A" unicode="A" horiz-adv-x="521" 
d="M4 0l143 706h228l143 -706h-167l-24 161h-131l-25 -161h-167zM310 280l-47 314l-48 -314h95z" />
    <glyph glyph-name="B" unicode="B" horiz-adv-x="521" 
d="M50 0v706h233c50 0 100 -3 142 -30c45 -30 54 -73 54 -129c0 -102 -7 -142 -95 -174c34 -10 71 -21 90 -66c11 -23 14 -49 14 -113c0 -37 -1 -90 -26 -132c-36 -61 -98 -62 -150 -62h-262zM276 581h-65v-151h70c42 0 47 25 47 77c0 55 -10 74 -52 74zM276 305h-65v-178
h65c55 0 55 38 55 86c0 66 -3 92 -55 92z" />
    <glyph glyph-name="C" unicode="C" horiz-adv-x="521" 
d="M490 529v-84h-168v88c0 39 -6 63 -59 63c-48 0 -53 -30 -53 -64v-351c0 -45 6 -70 57 -70c55 0 55 35 55 70v88h172v-63c0 -134 -31 -215 -231 -215c-188 0 -223 71 -223 182v348c0 50 5 92 35 129c53 65 142 69 192 69c61 0 123 -9 169 -47c51 -41 54 -99 54 -143z" />
    <glyph glyph-name="D" unicode="D" horiz-adv-x="542" 
d="M51 0v707h257c62 0 100 -10 124 -24c71 -39 71 -111 71 -152v-353c0 -43 0 -93 -34 -131c-38 -43 -98 -47 -154 -47h-264zM268 584h-52v-462h53c47 0 63 12 63 60v338c0 45 -15 64 -64 64z" />
    <glyph glyph-name="E" unicode="E" horiz-adv-x="437" 
d="M51 707h365v-125h-194v-162h183v-125h-183v-170h194v-125h-365v707z" />
    <glyph glyph-name="F" unicode="F" horiz-adv-x="396" 
d="M49 706h348v-121h-176v-158h161v-124h-161v-303h-172v706z" />
    <glyph glyph-name="G" unicode="G" horiz-adv-x="521" 
d="M483 528v-63h-164v66c0 26 0 65 -55 65c-53 0 -53 -35 -53 -67v-352c0 -25 0 -68 54 -68s54 41 54 67v80h-66v117h230v-373h-164v65c-48 -64 -95 -67 -130 -67c-149 0 -149 141 -149 232v263c0 163 49 226 219 226c24 0 99 0 150 -27c74 -39 74 -105 74 -164z" />
    <glyph glyph-name="H" unicode="H" horiz-adv-x="562" 
d="M50 0v706h171v-285h119v285h171v-706h-171v296h-119v-296h-171z" />
    <glyph glyph-name="I" unicode="I" horiz-adv-x="271" 
d="M49 706h171v-706h-171v706z" />
    <glyph glyph-name="J" unicode="J" horiz-adv-x="333" 
d="M121 176v530h171v-521c0 -57 0 -97 -25 -132c-37 -53 -102 -53 -149 -53h-102v122h57c40 0 48 15 48 54z" />
    <glyph glyph-name="K" unicode="K" horiz-adv-x="521" 
d="M349 706h174l-143 -334l161 -372h-179l-143 345v-345h-169v706h169v-320z" />
    <glyph glyph-name="L" unicode="L" horiz-adv-x="417" 
d="M50 0v707h172v-582h176v-125h-348z" />
    <glyph glyph-name="M" unicode="M" horiz-adv-x="771" 
d="M490 706h231v-706h-152v449c0 32 0 38 2 69l-111 -518h-150l-112 521c1 -40 3 -99 3 -127v-394h-150v706h228l69 -329c21 -100 23 -111 39 -209c4 32 10 78 19 127z" />
    <glyph glyph-name="N" unicode="N" horiz-adv-x="562" 
d="M366 248v458h146v-706h-172l-147 460v-460h-144v706h169z" />
    <glyph glyph-name="O" unicode="O" horiz-adv-x="542" 
d="M40 215v292c0 56 7 110 50 155c54 56 133 58 184 58c225 0 225 -152 225 -229v-270c0 -56 0 -124 -52 -176c-50 -51 -127 -54 -178 -54c-225 0 -229 142 -229 224zM211 537v-362c0 -32 0 -60 59 -60c46 0 59 19 59 60v361c0 46 -16 58 -62 58c-42 0 -56 -15 -56 -57z" />
    <glyph glyph-name="P" unicode="P" horiz-adv-x="521" 
d="M50 0v707h285c124 0 166 -41 166 -145v-145c0 -135 -55 -160 -157 -160h-123v-257h-171zM221 382h57c63 -1 63 18 63 108c0 67 0 81 -21 91c-12 5 -78 5 -99 5v-204z" />
    <glyph glyph-name="Q" unicode="Q" horiz-adv-x="542" 
d="M40 216v291c0 56 7 110 50 155c54 56 133 58 184 58c225 0 225 -152 225 -229v-269c0 -87 -4 -199 -162 -227c0 -17 0 -46 1 -51c5 -22 26 -22 43 -22h72v-107h-138c-79 0 -118 23 -118 114v67c-32 7 -75 17 -114 59c-36 42 -43 92 -43 161zM211 537v-362
c0 -31 0 -59 59 -59c46 -1 59 18 59 59v361c0 46 -16 58 -62 58c-42 0 -56 -15 -56 -57z" />
    <glyph glyph-name="R" unicode="R" horiz-adv-x="521" 
d="M50 0v707h240c45 0 109 -2 149 -46c31 -36 34 -85 34 -135c0 -105 -35 -128 -89 -157c84 -20 91 -55 91 -141v-150c0 -47 9 -61 24 -78h-157c-12 23 -24 44 -24 102c0 17 2 102 2 122c0 78 -15 78 -110 77v-301h-160zM261 584h-51v-161c51 0 66 0 74 2c34 7 37 33 37 87
c0 61 -9 72 -60 72z" />
    <glyph glyph-name="S" unicode="S" horiz-adv-x="479" 
d="M228 268l-103 74c-72 52 -98 72 -98 173c0 145 45 204 221 204c185 0 202 -74 198 -229h-162v49c0 36 -3 59 -47 59c-43 0 -43 -33 -43 -62c0 -38 2 -52 32 -72l146 -101c65 -45 91 -66 91 -174c0 -77 -15 -114 -45 -145c-29 -30 -74 -54 -177 -54c-79 0 -137 14 -174 44
c-51 43 -50 107 -48 192h169v-55c0 -17 0 -57 50 -57c53 0 54 33 54 50c0 54 -1 59 -64 104z" />
    <glyph glyph-name="T" unicode="T" horiz-adv-x="479" 
d="M13 583v124h454v-124h-141v-583h-173v583h-140z" />
    <glyph glyph-name="U" unicode="U" horiz-adv-x="542" 
d="M48 706h171v-532c0 -22 0 -63 53 -63c50 0 50 37 50 60v535h171v-508c0 -87 -2 -209 -214 -209c-231 0 -231 122 -231 204v513z" />
    <glyph glyph-name="V" unicode="V" 
d="M-3 706h173l75 -547h8l73 547h172l-126 -706h-243z" />
    <glyph glyph-name="W" unicode="W" horiz-adv-x="812" 
d="M92 0l-90 707h162l51 -546h8l82 546h197l97 -546h6l39 546h164l-85 -707h-221l-96 552l-92 -552h-222z" />
    <glyph glyph-name="X" unicode="X" horiz-adv-x="479" 
d="M126 374l-127 332h172l70 -227l68 227h170l-125 -332l125 -374h-174l-64 271l-65 -271h-172z" />
    <glyph glyph-name="Y" unicode="Y" horiz-adv-x="521" 
d="M259 394l86 312h170l-176 -457v-249h-166v249l-169 457h169z" />
    <glyph glyph-name="Z" unicode="Z" horiz-adv-x="437" 
d="M30 582v125h391v-140l-245 -442h251v-125h-428v138l245 444h-214z" />
    <glyph glyph-name="bracketleft" unicode="[" horiz-adv-x="354" 
d="M87 707h253v-67h-106v-781h106v-67h-253v915z" />
    <glyph glyph-name="backslash" unicode="\" horiz-adv-x="313" 
d="M305 0h-124l-172 706h122z" />
    <glyph glyph-name="bracketright" unicode="]" horiz-adv-x="354" 
d="M14 640v67h253v-915h-253v67h106v781h-106z" />
    <glyph glyph-name="asciicircum" unicode="^" horiz-adv-x="729" 
d="M421 706l194 -395h-138l-110 231l-116 -231h-137l203 395h104z" />
    <glyph glyph-name="underscore" unicode="_" 
d="M510 -75v-50h-520v50h520z" />
    <glyph glyph-name="quoteleft" unicode="&#x2018;" horiz-adv-x="250" 
d="M55 554l80 153h67l-46 -153h46v-152h-147v152z" />
    <glyph glyph-name="a" unicode="a" 
d="M450 383v-300c0 -49 5 -61 23 -83h-182v45c-34 -30 -69 -60 -133 -60c-127 0 -127 103 -127 138c0 126 50 147 126 177c81 30 90 34 134 55c0 47 0 48 -3 57c-10 26 -34 26 -44 26c-45 0 -45 -30 -45 -83h-153c-2 74 -4 191 194 191c44 0 101 -6 142 -27
c68 -36 68 -101 68 -136zM291 156v111c-24 -13 -61 -32 -70 -38c-23 -17 -26 -36 -26 -81c0 -32 0 -61 40 -61c52 0 56 34 56 69z" />
    <glyph glyph-name="b" unicode="b" 
d="M45 706h159v-218c19 21 54 58 123 58c133 0 133 -110 133 -169v-226c0 -38 0 -97 -46 -136c-24 -20 -53 -29 -82 -29c-64 0 -105 38 -128 59v-45h-159v706zM302 160v217c0 20 0 58 -46 58c-52 0 -52 -37 -52 -58v-218c0 -23 0 -66 47 -66c51 0 51 41 51 67z" />
    <glyph glyph-name="c" unicode="c" horiz-adv-x="458" 
d="M439 379v-51h-157v60c0 14 0 50 -41 50c-46 0 -46 -37 -46 -50v-251c0 -23 6 -49 47 -49c40 0 40 30 40 49v50h157v-48c0 -37 -2 -73 -38 -106c-28 -26 -73 -48 -153 -48c-211 0 -211 110 -211 163v220c0 60 0 177 203 177c96 0 140 -32 156 -46c43 -35 43 -80 43 -120z
" />
    <glyph glyph-name="d" unicode="d" 
d="M295 474v232h159v-706h-159v57c-17 -26 -47 -72 -128 -72c-128 0 -130 116 -130 179v213c0 45 0 169 125 169c82 0 114 -46 133 -72zM295 166v214c0 34 -14 56 -52 56c-48 0 -48 -39 -48 -57v-217c0 -24 0 -60 52 -60c48 0 48 39 48 64z" />
    <glyph glyph-name="e" unicode="e" horiz-adv-x="479" 
d="M440 364v-134h-242v-87c0 -16 0 -51 44 -51c16 0 31 3 42 16c9 12 9 18 9 68h153c0 -50 0 -90 -25 -124c-47 -67 -149 -67 -181 -67c-45 0 -120 9 -163 54c-31 33 -40 74 -40 156v144c0 154 55 207 203 207c200 0 200 -110 200 -182zM198 386v-55h92v55c0 20 0 58 -44 58
c-48 0 -48 -40 -48 -58z" />
    <glyph glyph-name="f" unicode="f" horiz-adv-x="313" 
d="M200 706h104v-100c-45 0 -50 0 -59 -7c-12 -9 -12 -15 -12 -68h71v-99h-71v-432h-158v432h-70v99h70v60c0 95 41 115 125 115z" />
    <glyph glyph-name="g" unicode="g" 
d="M37 141v236c0 60 7 101 29 127c9 11 40 43 107 43c81 0 106 -42 120 -65v50h161v-577c0 -88 -3 -198 -209 -198c-81 0 -133 13 -166 42c-46 41 -44 99 -42 145h159c0 -48 0 -62 13 -75c6 -7 17 -12 33 -12c51 0 51 42 51 61v127c-15 -25 -37 -59 -117 -59
c-133 0 -139 105 -139 155zM293 154v224c0 16 0 57 -47 57c-50 0 -50 -45 -50 -61v-231c0 -10 0 -51 47 -51c50 0 50 49 50 62z" />
    <glyph glyph-name="h" unicode="h" 
d="M45 706h157v-223c20 27 47 64 115 64c137 0 137 -116 137 -163v-384h-159v367c0 19 0 64 -45 64c-48 0 -48 -46 -48 -60v-371h-157v706z" />
    <glyph glyph-name="i" unicode="i" horiz-adv-x="250" 
d="M45 584v122h159v-122h-159zM45 0v531h159v-531h-159z" />
    <glyph glyph-name="j" unicode="j" horiz-adv-x="250" 
d="M41 706h159v-122h-159v122zM42 531h158v-596c0 -101 -48 -125 -139 -125h-91v106c66 -3 72 13 72 51v564z" />
    <glyph glyph-name="k" unicode="k" 
d="M45 706h158v-376l111 201h178l-143 -228l153 -303h-177l-122 271v-271h-158v706z" />
    <glyph glyph-name="l" unicode="l" horiz-adv-x="250" 
d="M45 706h160v-706h-160v706z" />
    <glyph glyph-name="m" unicode="m" horiz-adv-x="750" 
d="M701 385v-385h-159v383c0 17 0 53 -43 53c-46 0 -46 -33 -46 -51v-385h-159v384c0 14 -1 53 -45 53c-45 0 -44 -37 -44 -52v-385h-159v531h158v-56c14 23 43 71 121 71c81 0 111 -50 123 -71c31 46 60 71 125 71c128 0 128 -114 128 -161z" />
    <glyph glyph-name="n" unicode="n" 
d="M456 384v-384h-157v378c0 15 0 58 -46 58c-48 0 -48 -41 -48 -55v-381h-160v531h160v-50c18 22 53 64 119 64c56 0 89 -27 106 -52c25 -35 26 -72 26 -109z" />
    <glyph glyph-name="o" unicode="o" horiz-adv-x="479" 
d="M36 174v183c0 67 0 188 202 188c204 0 204 -122 204 -176v-202c0 -58 0 -183 -202 -183c-57 0 -109 11 -148 40c-53 38 -56 89 -56 150zM285 157v219c0 22 0 60 -46 60s-46 -44 -46 -63v-224c0 -19 0 -52 46 -52s46 42 46 60z" />
    <glyph glyph-name="p" unicode="p" 
d="M465 405v-241c0 -104 -26 -178 -132 -178c-80 0 -109 38 -128 63v-236h-159v718h159v-57c21 31 49 72 131 72c16 0 66 -1 100 -42c7 -9 29 -35 29 -99zM205 369v-204c0 -21 0 -66 51 -66s51 48 51 66v202c0 18 0 61 -50 61c-52 0 -52 -40 -52 -59z" />
    <glyph glyph-name="q" unicode="q" 
d="M37 166v189c0 54 2 103 29 141c24 34 66 49 107 49c39 0 64 -11 80 -21c26 -16 36 -33 42 -46v53h159v-718h-159v234c-17 -22 -45 -61 -118 -61c-71 0 -100 36 -110 50c-17 22 -30 50 -30 130zM295 167v204c0 25 -3 62 -51 62c-49 0 -49 -43 -49 -64v-204
c0 -19 0 -64 50 -64s50 41 50 66z" />
    <glyph glyph-name="r" unicode="r" horiz-adv-x="354" 
d="M206 531v-78c30 60 56 83 146 90v-138c-69 0 -72 0 -86 -3c-58 -12 -60 -62 -60 -97v-305h-160v531h160z" />
    <glyph glyph-name="s" unicode="s" horiz-adv-x="437" 
d="M216 187l-75 40c-84 45 -115 66 -115 160c0 61 13 97 55 124c47 32 103 35 140 35c195 0 195 -115 195 -172h-152c1 13 1 29 -4 42s-16 23 -38 23c-27 0 -43 -17 -43 -44c0 -29 17 -38 67 -63l92 -46c78 -40 84 -75 84 -125c0 -58 -7 -96 -45 -129
c-43 -36 -102 -46 -159 -46c-197 0 -197 113 -197 178h153c-1 -7 -1 -13 -1 -19c0 -16 0 -51 45 -51c31 0 43 20 43 39c0 29 -22 41 -45 54z" />
    <glyph glyph-name="t" unicode="t" horiz-adv-x="313" 
d="M71 706h158v-175h71v-99h-71v-276c0 -48 19 -50 71 -50v-106h-90c-117 0 -139 50 -139 131v301h-71v99h71v175z" />
    <glyph glyph-name="u" unicode="u" 
d="M296 532h158v-532h-158v58c-18 -29 -46 -72 -121 -72c-133 0 -133 123 -133 166v380h158v-371c0 -17 0 -53 47 -53c49 0 49 37 49 54v370z" />
    <glyph glyph-name="v" unicode="v" horiz-adv-x="437" 
d="M4 531h155l58 -396h11l48 396h158l-109 -531h-211z" />
    <glyph glyph-name="w" unicode="w" horiz-adv-x="708" 
d="M552 531h160l-112 -531h-164l-80 368l-80 -368h-165l-111 531h162l40 -386l66 386h178l64 -386z" />
    <glyph glyph-name="x" unicode="x" horiz-adv-x="437" 
d="M265 531h162l-114 -255l124 -276h-166l-50 163l-58 -163h-164l125 276l-118 255h166l49 -156z" />
    <glyph glyph-name="y" unicode="y" horiz-adv-x="437" 
d="M136 -35l-138 566h156l64 -418l59 418h159l-127 -546c-15 -64 -27 -106 -62 -135c-43 -38 -102 -40 -163 -40h-77v103h70c43 0 55 13 59 52z" />
    <glyph glyph-name="z" unicode="z" horiz-adv-x="396" 
d="M46 532h339v-102l-197 -328h181v-102h-359v102l196 328h-160v102z" />
    <glyph glyph-name="braceleft" unicode="{" horiz-adv-x="354" 
d="M31 219v75c76 11 81 64 81 156v48c0 85 0 125 36 164c41 45 96 46 182 47v-70c-85 1 -85 -42 -85 -113v-66c0 -93 0 -185 -110 -201v-5c110 -16 110 -109 110 -199v-67c0 -71 0 -116 85 -114v-70c-85 1 -141 1 -182 47c-36 39 -36 86 -36 149v72c0 59 0 141 -81 147z" />
    <glyph glyph-name="bar" unicode="|" horiz-adv-x="229" 
d="M178 750v-1000h-127v1000h127z" />
    <glyph glyph-name="braceright" unicode="}" horiz-adv-x="354" 
d="M323 294v-75c-76 -11 -81 -64 -81 -156v-48c0 -85 0 -125 -36 -164c-41 -45 -96 -46 -182 -47v70c85 -1 85 42 85 113v66c0 93 0 185 110 201v5c-110 16 -110 108 -110 199v67c0 71 0 116 -85 114v70c85 -1 140 -1 182 -47c36 -39 36 -86 36 -149v-72
c0 -60 0 -141 81 -147z" />
    <glyph glyph-name="asciitilde" unicode="~" horiz-adv-x="729" 
d="M574 387l52 -104c-38 -44 -98 -84 -156 -84c-20 0 -48 3 -108 33c-49 25 -72 36 -100 36c-42 0 -58 -18 -104 -70l-55 103c22 31 68 94 155 94c38 0 50 -6 140 -47c24 -11 49 -22 76 -22c40 0 76 33 100 61z" />
    <glyph glyph-name="exclamdown" unicode="&#xa1;" horiz-adv-x="292" 
d="M49 706h148v-152h-148v152zM79 479h92c9 -120 10 -140 15 -201c10 -125 11 -143 11 -191v-87h-148v87c0 30 0 48 8 140c6 70 16 182 22 252z" />
    <glyph glyph-name="cent" unicode="&#xa2;" horiz-adv-x="458" 
d="M281 651v-108c42 -5 83 -17 115 -43c43 -36 43 -81 43 -121v-51h-157v60c0 14 0 50 -41 50c-46 0 -46 -37 -46 -50v-250c0 -24 6 -50 47 -50c40 0 40 30 40 49v50h157v-48c0 -39 0 -137 -158 -152v-129h-83v130c-141 17 -162 81 -161 161v219c0 56 0 160 161 176v107h83z
" />
    <glyph glyph-name="sterling" unicode="&#xa3;" horiz-adv-x="583" 
d="M32 397h98c-20 50 -34 85 -34 144c0 63 5 179 225 179c200 0 197 -115 194 -233h-139c1 71 2 122 -62 122c-45 0 -64 -23 -64 -67c0 -54 23 -109 38 -145h162v-81h-131c13 -37 25 -72 25 -110c0 -34 -8 -55 -15 -75c18 -8 39 -17 59 -17c40 0 40 32 40 53v69h137
c0 -77 0 -108 -5 -139c-4 -27 -16 -106 -121 -106c-46 0 -85 15 -167 52c-24 -22 -60 -55 -129 -55c-80 0 -115 48 -115 102c0 66 49 98 105 98c28 0 55 -8 81 -16c-1 50 -7 72 -45 144h-137v81zM197 95c-14 10 -28 21 -46 21c-17 0 -25 -12 -25 -24c0 -20 18 -26 29 -26
c23 0 34 17 42 29z" />
    <glyph glyph-name="fraction" unicode="&#x2044;" horiz-adv-x="125" 
d="M145 706h73l-240 -706h-73z" />
    <glyph glyph-name="yen" unicode="&#xa5;" horiz-adv-x="521" 
d="M515 707l-125 -325h88v-87h-121l-17 -42v-12h138v-87h-139v-154h-166v154h-138v87h137v12l-16 42h-121v87h90l-121 325h169l86 -310l86 310h170z" />
    <glyph glyph-name="florin" unicode="&#x192;" horiz-adv-x="354" 
d="M267 706h103l-12 -100c-44 0 -49 0 -59 -7c-14 -9 -14 -15 -21 -68h71l-12 -99h-71l-59 -486c-11 -95 -55 -115 -139 -115h-103l12 100c55 0 70 0 75 41l56 460h-70l12 99h70l7 60c12 96 57 115 140 115z" />
    <glyph glyph-name="section" unicode="&#xa7;" horiz-adv-x="437" 
d="M4 53l63 108c44 -27 103 -63 143 -63c30 0 41 21 41 36c0 21 -4 23 -89 71c-86 48 -131 73 -131 148c0 64 40 94 75 118c-27 19 -66 47 -66 109c0 16 4 140 176 140c89 0 150 -28 203 -52l-58 -108c-62 30 -109 53 -136 53s-35 -20 -35 -32c0 -15 10 -24 19 -31
c11 -8 49 -28 71 -39c72 -38 135 -70 135 -151c0 -59 -35 -94 -64 -123c21 -15 56 -40 56 -98c0 -71 -65 -150 -198 -150c-87 0 -141 29 -205 64zM172 432c-13 -9 -31 -22 -31 -48s17 -36 32 -45c35 -21 74 -42 112 -63c14 11 30 24 30 48c0 20 -12 30 -23 37
c-9 7 -36 22 -120 71z" />
    <glyph glyph-name="currency" unicode="&#xa4;" horiz-adv-x="667" 
d="M661 571l-81 -80c24 -45 42 -79 42 -151c0 -76 -19 -110 -43 -153l81 -82l-96 -95l-80 82c-45 -23 -80 -42 -152 -42c-71 0 -110 22 -150 43l-81 -81l-94 95l81 81c-18 30 -43 71 -43 156c0 70 18 103 42 146l-79 81l94 95l80 -80c42 23 79 43 152 43
c74 0 105 -18 151 -43l80 80zM497 340c0 108 -88 165 -164 165c-72 0 -163 -51 -163 -169c0 -96 80 -162 167 -162c90 0 160 74 160 166z" />
    <glyph glyph-name="quotesingle" unicode="'" horiz-adv-x="208" 
d="M175 670l-54 -262h-31l-55 250c-1 7 -2 13 -2 20c0 13 2 23 6 31c10 24 39 40 69 40c11 0 68 -2 68 -67c0 -4 -1 -8 -1 -12z" />
    <glyph glyph-name="quotedblleft" unicode="&#x201c;" horiz-adv-x="437" 
d="M246 552l87 155h69l-55 -155h44v-151h-145v151zM137 707h69l-56 -155h43v-151h-145v151z" />
    <glyph glyph-name="guillemotleft" unicode="&#xab;" horiz-adv-x="396" 
d="M212 374l142 117v-128l-59 -48l59 -52v-125l-142 116v120zM31 374l142 116v-127l-58 -47l58 -51v-127l-142 115v121z" />
    <glyph glyph-name="guilsinglleft" unicode="&#x2039;" horiz-adv-x="208" 
d="M27 374l142 116v-127l-58 -47l58 -51v-127l-142 115v121z" />
    <glyph glyph-name="guilsinglright" unicode="&#x203a;" horiz-adv-x="208" 
d="M39 366v126l141 -117v-119l-141 -117v128l57 47z" />
    <glyph glyph-name="fi" unicode="&#xfb01;" horiz-adv-x="562" 
d="M200 706h104v-100c-45 0 -50 0 -59 -7c-12 -9 -12 -15 -12 -68h71v-99h-71v-432h-158v432h-70v99h70v60c0 95 41 115 125 115zM358 584v122h159v-122h-159zM358 0v531h159v-531h-159z" />
    <glyph glyph-name="fl" unicode="&#xfb02;" horiz-adv-x="562" 
d="M200 706h104v-100c-45 0 -50 0 -59 -7c-12 -9 -12 -15 -12 -68h71v-99h-71v-432h-158v432h-70v99h70v60c0 95 41 115 125 115zM358 706h160v-706h-160v706z" />
    <glyph glyph-name="endash" unicode="&#x2013;" 
d="M33 414h437v-118h-437v118z" />
    <glyph glyph-name="dagger" unicode="&#x2020;" horiz-adv-x="542" 
d="M194 538v168h156v-168h153v-132h-153v-406h-156v406h-154v132h154z" />
    <glyph glyph-name="daggerdbl" unicode="&#x2021;" horiz-adv-x="542" 
d="M194 578v127h156v-127h154v-124h-154v-173h154v-122h-154v-160h-156v160h-153v122h153v173h-153v124h153z" />
    <glyph glyph-name="periodcentered" unicode="&#xb7;" horiz-adv-x="250" 
d="M51 280v152h148v-152h-148z" />
    <glyph glyph-name="paragraph" unicode="&#xb6;" horiz-adv-x="667" 
d="M308 706h250v-78h-36v-795h-84v795h-118v-795h-84v459c-29 8 -72 19 -110 65c-32 37 -45 86 -45 135c0 53 17 106 52 146c59 65 130 68 175 68z" />
    <glyph glyph-name="bullet" unicode="&#x2022;" horiz-adv-x="333" 
d="M322 352c0 -65 -41 -155 -154 -155c-94 0 -156 76 -156 157c0 80 67 154 157 154c83 0 153 -62 153 -156z" />
    <glyph glyph-name="quotesinglbase" unicode="&#x201a;" horiz-adv-x="250" 
d="M52 0v152h146v-152l-89 -152h-68l56 152h-45z" />
    <glyph glyph-name="quotedblbase" unicode="&#x201e;" horiz-adv-x="437" 
d="M45 152h146v-152l-86 -152h-69l56 152h-47v152zM244 0v152h146v-152l-89 -152h-68l56 152h-45z" />
    <glyph glyph-name="quotedblright" unicode="&#x201d;" horiz-adv-x="437" 
d="M46 706h146v-150l-87 -153h-69l57 153h-47v150zM244 556v150h146v-150l-89 -153h-68l56 153h-45z" />
    <glyph glyph-name="guillemotright" unicode="&#xbb;" horiz-adv-x="396" 
d="M222 364v128l142 -117v-118l-142 -116v125l57 47zM42 366v126l141 -117v-119l-141 -117v128l57 47z" />
    <glyph glyph-name="ellipsis" unicode="&#x2026;" horiz-adv-x="1000" 
d="M92 0v152h148v-152h-148zM425 0v152h148v-152h-148zM758 0v152h148v-152h-148z" />
    <glyph glyph-name="perthousand" unicode="&#x2030;" horiz-adv-x="1125" 
d="M26 411v160c0 89 23 141 141 141c143 0 143 -68 143 -141v-178c0 -98 -39 -137 -142 -137c-142 0 -142 85 -142 155zM204 378v221c0 20 -2 36 -38 36c-32 0 -34 -20 -34 -36v-221c0 -25 3 -39 35 -39c37 0 37 17 37 39zM479 706h72l-240 -707h-72zM484 146v160
c0 89 23 141 141 141c143 0 143 -68 143 -141v-178c0 -99 -40 -137 -142 -137c-142 0 -142 85 -142 155zM662 113v221c0 20 -2 36 -38 36c-32 0 -34 -20 -34 -36v-221c0 -25 3 -39 35 -39c37 0 37 17 37 39zM817 146v160c0 89 23 141 142 141c143 0 143 -68 143 -141v-178
c0 -99 -40 -137 -142 -137c-143 0 -143 85 -143 155zM996 113v221c0 20 -3 36 -38 36c-33 0 -35 -20 -35 -36v-221c0 -25 3 -39 36 -39c37 0 37 17 37 39z" />
    <glyph glyph-name="questiondown" unicode="&#xbf;" 
d="M208 555v151h148v-151h-148zM208 479h147v-50c0 -50 -3 -80 -57 -132l-75 -72c-26 -25 -35 -34 -35 -74c0 -12 0 -53 42 -53c44 0 44 33 44 60v48h143v-54c0 -81 -5 -164 -180 -164c-187 0 -198 79 -198 172c0 61 7 69 106 160c61 56 63 58 63 103v56z" />
    <glyph glyph-name="grave" unicode="`" horiz-adv-x="271" 
d="M1 736h173l95 -127h-128z" />
    <glyph glyph-name="acute" unicode="&#xb4;" horiz-adv-x="271" 
d="M8 609l87 126h167l-137 -126h-117z" />
    <glyph glyph-name="circumflex" unicode="&#x2c6;" horiz-adv-x="271" 
d="M72 737h126l101 -125h-118l-45 59l-43 -59h-120z" />
    <glyph glyph-name="tilde" unicode="&#x2dc;" horiz-adv-x="271" 
d="M22 621h-50c4 41 12 121 105 121c23 0 29 -2 86 -22c34 -12 38 -13 49 -13c32 0 36 22 38 32h50c-4 -37 -15 -122 -105 -122c-30 0 -47 6 -96 25c-29 11 -32 12 -43 12c-31 0 -33 -19 -34 -33z" />
    <glyph glyph-name="macron" unicode="&#xaf;" horiz-adv-x="271" 
d="M-20 699h312v-90h-312v90z" />
    <glyph glyph-name="breve" unicode="&#x2d8;" horiz-adv-x="271" 
d="M219 733h63c-3 -28 -17 -128 -148 -128c-88 0 -145 49 -145 128h63c7 -35 43 -50 84 -50c39 0 72 12 83 50z" />
    <glyph glyph-name="dotaccent" unicode="&#x2d9;" horiz-adv-x="271" 
d="M63 733h144v-124h-144v124z" />
    <glyph glyph-name="dieresis" unicode="&#xa8;" horiz-adv-x="271" 
d="M175 733h143v-124h-143v124zM-47 733h143v-124h-143v124z" />
    <glyph glyph-name="ring" unicode="&#x2da;" horiz-adv-x="271" 
d="M172 665c0 20 -17 37 -37 37s-37 -17 -37 -37s17 -37 37 -37s37 17 37 37zM65 595c-8 8 -29 33 -29 70c0 54 44 99 99 99c54 0 99 -45 99 -99c0 -52 -43 -99 -100 -99c-36 0 -61 22 -69 29z" />
    <glyph glyph-name="cedilla" unicode="&#xb8;" horiz-adv-x="271" 
d="M124 20h87l-66 -77c28 -4 91 -11 91 -78c0 -39 -35 -99 -141 -99c-11 0 -22 1 -33 1l-17 48c10 -1 20 -2 30 -2c44 0 58 28 58 46c0 35 -33 35 -42 35c-18 0 -29 -6 -41 -12l-16 36z" />
    <glyph glyph-name="hungarumlaut" unicode="&#x2dd;" horiz-adv-x="271" 
d="M-93 609l86 126h168l-137 -126h-117zM110 609l86 126h168l-137 -126h-117z" />
    <glyph glyph-name="ogonek" unicode="&#x2db;" horiz-adv-x="271" 
d="M92 0h99c-39 -30 -42 -53 -42 -61c0 -28 29 -35 52 -35c11 0 17 1 25 3v-97c-12 -1 -25 -3 -44 -3c-59 0 -137 19 -137 96c0 48 25 74 47 97z" />
    <glyph glyph-name="caron" unicode="&#x2c7;" horiz-adv-x="271" 
d="M179 736h120l-98 -125h-126l-102 125h118l46 -59z" />
    <glyph glyph-name="emdash" unicode="&#x2014;" horiz-adv-x="583" 
d="M36 294v121h514v-121h-514z" />
    <glyph glyph-name="AE" unicode="&#xc6;" horiz-adv-x="771" 
d="M275 706h473v-127h-188v-157h175v-126h-175v-170h188v-126h-358v191h-146l-65 -191h-177zM390 311v268h-12l-92 -268h104z" />
    <glyph glyph-name="ordfeminine" unicode="&#xaa;" horiz-adv-x="354" 
d="M141 591h-99c0 40 0 50 6 65c16 41 67 56 122 56c140 0 140 -60 140 -121v-158c0 -41 5 -49 15 -62h-118v24c-17 -12 -49 -34 -94 -34c-78 0 -80 61 -80 86c0 57 17 82 50 98c17 9 105 38 124 46c0 37 0 50 -33 50s-33 -12 -33 -50zM207 468v64c-64 -23 -68 -24 -68 -68
c0 -15 0 -38 30 -38c37 0 38 27 38 42z" />
    <glyph glyph-name="Lslash" unicode="&#x141;" horiz-adv-x="417" 
d="M222 707v-248l117 87v-98l-117 -87v-236h176v-125h-348v236l-50 -37v96l50 37v375h172z" />
    <glyph glyph-name="Oslash" unicode="&#xd8;" horiz-adv-x="542" 
d="M204 537v-220l129 190c0 62 0 86 -61 86s-68 -25 -68 -56zM333 165v225l-129 -189c0 -69 0 -99 60 -99c47 0 69 4 69 63zM533 687l-53 -78c11 -28 18 -48 18 -120v-269c0 -56 0 -124 -52 -177c-51 -51 -127 -54 -178 -54c-109 0 -143 28 -172 51l-39 -56l-52 35l52 79
c-15 38 -18 56 -18 116v291c0 56 7 110 50 156c54 56 134 58 184 58c107 0 145 -32 168 -52l39 55z" />
    <glyph glyph-name="OE" unicode="&#x152;" horiz-adv-x="708" 
d="M42 215v283c0 71 7 221 162 221c69 0 102 -28 122 -46v34h359v-126h-189v-158h174v-125h-174v-172h189v-126h-359v31c-24 -16 -59 -41 -120 -41c-164 0 -164 173 -164 225zM212 547v-375c0 -21 0 -66 56 -66c58 0 58 43 58 65v376c0 12 0 58 -56 58
c-58 0 -58 -45 -58 -58z" />
    <glyph glyph-name="ordmasculine" unicode="&#xba;" horiz-adv-x="333" 
d="M302 484c0 -52 0 -126 -132 -126c-79 0 -109 29 -119 44c-19 25 -19 48 -19 157c0 55 0 86 15 109c15 22 49 43 114 43c29 0 97 -3 125 -45c13 -18 16 -25 16 -182zM200 473v129c0 17 0 39 -33 39c-26 0 -33 -13 -33 -39v-129c0 -17 0 -41 33 -41s33 20 33 41z" />
    <glyph glyph-name="ae" unicode="&#xe6;" horiz-adv-x="729" 
d="M692 334v-100h-248v-100c0 -23 5 -48 45 -48c10 0 26 0 37 12c9 11 9 16 9 77h157c1 -71 -1 -101 -29 -130c-37 -39 -105 -60 -175 -60c-130 0 -169 53 -187 78c-35 -42 -67 -79 -142 -79c-115 0 -127 77 -127 157c0 59 10 112 111 155c40 17 104 43 144 61
c0 20 0 53 -2 60c-5 19 -22 25 -41 25c-6 0 -20 0 -31 -9c-13 -11 -13 -18 -13 -77h-151c0 67 0 130 77 167c43 21 95 23 111 23c78 0 107 -22 130 -40c19 16 52 42 133 42c192 0 192 -126 192 -214zM444 397v-67h91v67c0 16 0 46 -43 46c-48 0 -48 -29 -48 -46zM287 144
v122c-88 -46 -94 -57 -94 -105c0 -33 0 -68 46 -68c29 0 48 10 48 51z" />
    <glyph glyph-name="dotlessi" unicode="&#x131;" horiz-adv-x="250" 
d="M45 0v531h159v-531h-159z" />
    <glyph glyph-name="lslash" unicode="&#x142;" horiz-adv-x="250" 
d="M205 706v-200l45 43v-79l-45 -44v-426h-160v268l-45 -44v83l45 44v355h160z" />
    <glyph glyph-name="oslash" unicode="&#xf8;" horiz-adv-x="479" 
d="M372 518l32 44l51 -36l-35 -50c11 -21 23 -41 23 -97v-194c0 -65 0 -199 -203 -199c-49 0 -99 8 -140 34l-30 -42l-52 36l38 55c-12 23 -21 42 -21 105v198c0 45 6 112 75 149c29 15 79 27 129 27c73 0 106 -17 133 -30zM187 372v-119l103 148c-2 12 -7 40 -50 40
c-53 0 -53 -47 -53 -69zM290 154v137l-103 -151c3 -19 6 -46 50 -46c53 0 53 42 53 60z" />
    <glyph glyph-name="oe" unicode="&#x153;" horiz-adv-x="729" 
d="M692 358v-127h-248v-91c0 -26 2 -55 49 -55c48 0 48 28 48 85h154c0 -64 0 -108 -50 -146c-36 -28 -84 -38 -144 -38c-86 0 -116 21 -134 34c-34 -19 -65 -35 -132 -35c-200 0 -200 120 -200 209v172c0 40 0 101 53 141c49 37 130 38 148 38c79 0 107 -20 131 -38
c23 20 44 38 127 38c75 0 117 -20 143 -40c51 -37 55 -84 55 -147zM285 139v256c0 18 0 51 -46 51c-34 0 -47 -14 -47 -47v-263c0 -16 0 -52 45 -52c48 0 48 35 48 55zM444 390v-63h95v62c0 20 0 51 -48 51c-47 0 -47 -34 -47 -50z" />
    <glyph glyph-name="germandbls" unicode="&#xdf;" horiz-adv-x="521" 
d="M45 0v543c0 59 0 175 206 175c215 0 215 -123 215 -186c0 -90 -5 -116 -66 -142c79 -29 86 -57 86 -195c0 -89 0 -122 -27 -153c-30 -35 -80 -42 -127 -42c-29 0 -58 3 -87 7v77c11 -3 20 -6 34 -6c45 0 45 34 45 53v169c0 50 -27 52 -77 50v96c7 0 14 -1 21 -1
c42 0 42 29 42 45v61c0 22 0 62 -55 62c-52 0 -53 -37 -53 -63v-550h-157z" />
    <glyph glyph-name="brokenbar" unicode="&#xa6;" horiz-adv-x="229" 
d="M51 -175v350h127v-350h-127zM178 325h-127v350h127v-350z" />
    <glyph glyph-name="Ograve" unicode="&#xd2;" horiz-adv-x="542" 
d="M40 215v292c0 56 7 110 50 155c54 56 133 58 184 58c225 0 225 -152 225 -229v-270c0 -56 0 -124 -52 -176c-50 -51 -127 -54 -178 -54c-225 0 -229 142 -229 224zM211 537v-362c0 -32 0 -60 59 -60c46 0 59 19 59 60v361c0 46 -16 58 -62 58c-42 0 -56 -15 -56 -57z
M239 766l-150 142h162l97 -142h-109z" />
    <glyph glyph-name="Ccedilla" unicode="&#xc7;" horiz-adv-x="521" 
d="M494 269v-63c0 -117 -21 -201 -185 -213l-43 -50c28 -3 91 -10 91 -78c0 -39 -34 -99 -141 -99c-11 0 -22 1 -33 1l-18 48c10 -1 21 -2 31 -2c44 0 58 28 58 46c0 35 -33 35 -43 35c-18 0 -29 -6 -40 -12l-17 36l66 74c-48 4 -96 10 -136 47c-37 34 -44 75 -44 134v348
c0 50 5 92 35 129c53 65 141 69 192 69c61 0 123 -9 169 -47c51 -41 54 -99 54 -143v-84h-168v88c0 39 -6 63 -59 63c-48 0 -53 -30 -53 -64v-351c0 -45 6 -70 57 -70c55 0 55 35 55 70v88h172z" />
    <glyph glyph-name="multiply" unicode="&#xd7;" 
d="M340 291l124 -123l-90 -91l-124 123l-124 -123l-90 91l124 123l-124 125l90 89l124 -124l124 124l90 -89z" />
    <glyph glyph-name="Ntilde" unicode="&#xd1;" horiz-adv-x="562" 
d="M366 248v458h146v-706h-172l-147 460v-460h-144v706h169zM166 781h-50c4 41 12 121 105 121c23 0 29 -2 86 -22c34 -12 38 -13 49 -13c32 0 36 22 38 32h50c-4 -37 -15 -122 -105 -122c-30 0 -47 6 -96 25c-29 11 -32 12 -43 12c-31 0 -33 -19 -34 -33z" />
    <glyph glyph-name="Otilde" unicode="&#xd5;" horiz-adv-x="542" 
d="M40 215v292c0 56 7 110 50 155c54 56 133 58 184 58c225 0 225 -152 225 -229v-270c0 -56 0 -124 -52 -176c-50 -51 -127 -54 -178 -54c-225 0 -229 142 -229 224zM211 537v-362c0 -32 0 -60 59 -60c46 0 59 19 59 60v361c0 46 -16 58 -62 58c-42 0 -56 -15 -56 -57z
M156 781h-50c4 41 12 121 105 121c23 0 29 -2 86 -22c34 -12 38 -13 49 -13c32 0 36 22 38 32h50c-4 -37 -15 -122 -105 -122c-30 0 -47 6 -96 25c-29 11 -32 12 -43 12c-31 0 -33 -19 -34 -33z" />
    <glyph glyph-name="mu" unicode="&#x3bc;" 
d="M296 0v58c-12 -30 -27 -64 -58 -64c-15 0 -32 10 -38 14v-195h-158v719h158v-371c0 -17 0 -53 47 -53c49 0 49 37 49 54v370h158v-532h-158z" />
    <glyph glyph-name="Oacute" unicode="&#xd3;" horiz-adv-x="542" 
d="M40 215v292c0 56 7 110 50 155c54 56 133 58 184 58c225 0 225 -152 225 -229v-270c0 -56 0 -124 -52 -176c-50 -51 -127 -54 -178 -54c-225 0 -229 142 -229 224zM211 537v-362c0 -32 0 -60 59 -60c46 0 59 19 59 60v361c0 46 -16 58 -62 58c-42 0 -56 -15 -56 -57z
M205 768l93 142h163l-150 -142h-106z" />
    <glyph glyph-name="thorn" unicode="&#xfe;" 
d="M465 406v-242c0 -104 -26 -178 -132 -178c-80 0 -109 38 -128 63v-236h-159v893h159v-231c21 30 49 71 131 71c16 0 66 0 100 -42c7 -8 29 -34 29 -98zM307 165v202c0 21 0 62 -50 62c-52 0 -52 -41 -52 -59v-205c0 -21 0 -66 51 -66s51 44 51 66z" />
    <glyph glyph-name="eth" unicode="&#xf0;" horiz-adv-x="479" 
d="M426 649l-51 -14c57 -69 67 -183 67 -266v-202c0 -58 0 -183 -202 -183c-55 0 -109 10 -148 40c-53 38 -56 89 -56 150v183c0 45 0 92 29 132c39 56 96 56 111 56c58 0 81 -28 104 -62c-6 29 -13 63 -46 111l-122 -32l-21 56l100 26c-14 14 -21 20 -58 47l147 39
c21 -13 50 -41 56 -47l67 19zM285 157v219c0 22 0 60 -46 60s-46 -44 -46 -63v-224c0 -19 0 -52 46 -52s46 42 46 60z" />
    <glyph glyph-name="Igrave" unicode="&#xcc;" horiz-adv-x="271" 
d="M49 706h171v-706h-171v706zM103 766l-150 142h162l97 -142h-109z" />
    <glyph glyph-name="Ocircumflex" unicode="&#xd4;" horiz-adv-x="542" 
d="M40 215v292c0 56 7 110 50 155c54 56 133 58 184 58c225 0 225 -152 225 -229v-270c0 -56 0 -124 -52 -176c-50 -51 -127 -54 -178 -54c-225 0 -229 142 -229 224zM211 537v-362c0 -32 0 -60 59 -60c46 0 59 19 59 60v361c0 46 -16 58 -62 58c-42 0 -56 -15 -56 -57z
M92 765l96 142h167l106 -142h-130l-60 83l-58 -83h-121z" />
    <glyph glyph-name="Eacute" unicode="&#xc9;" horiz-adv-x="437" 
d="M51 707h365v-125h-194v-162h183v-125h-183v-170h194v-125h-365v707zM163 768l93 142h163l-150 -142h-106z" />
    <glyph glyph-name="Edieresis" unicode="&#xcb;" horiz-adv-x="437" 
d="M51 707h365v-125h-194v-162h183v-125h-183v-170h194v-125h-365v707zM257 784v113h135v-113h-135zM65 897h135v-113h-135v113z" />
    <glyph glyph-name="Aacute" unicode="&#xc1;" horiz-adv-x="521" 
d="M4 0l143 706h228l143 -706h-167l-24 161h-131l-25 -161h-167zM310 280l-47 314l-48 -314h95zM194 768l93 142h163l-150 -142h-106z" />
    <glyph glyph-name="Zcaron" unicode="&#x17d;" horiz-adv-x="437" 
d="M30 582v125h391v-140l-245 -442h251v-125h-428v138l245 444h-214zM39 909h130l59 -82l58 82h122l-96 -141h-166z" />
    <glyph glyph-name="ccedilla" unicode="&#xe7;" horiz-adv-x="458" 
d="M439 187v-48c0 -40 0 -140 -168 -152l-37 -44c28 -3 91 -10 91 -78c0 -39 -34 -99 -140 -99c-11 0 -22 1 -33 1l-18 48c10 -1 21 -2 31 -2c43 0 57 28 57 46c0 35 -32 35 -42 35c-18 0 -29 -6 -40 -12l-16 36l63 72c-143 19 -150 98 -150 159v219c0 60 0 177 203 177
c99 0 143 -35 156 -46c43 -35 43 -80 43 -120v-51h-157v60c0 14 0 50 -41 50c-46 0 -46 -37 -46 -50v-250c0 -23 6 -50 47 -50c40 0 40 31 40 50v49h157z" />
    <glyph glyph-name="logicalnot" unicode="&#xac;" horiz-adv-x="667" 
d="M539 0v227h-539v127h666v-354h-127z" />
    <glyph glyph-name="Atilde" unicode="&#xc3;" horiz-adv-x="521" 
d="M4 0l143 706h228l143 -706h-167l-24 161h-131l-25 -161h-167zM310 280l-47 314l-48 -314h95zM145 781h-50c4 41 12 121 105 121c23 0 29 -2 86 -22c34 -12 38 -13 49 -13c32 0 36 22 38 32h50c-4 -37 -15 -122 -105 -122c-30 0 -47 6 -96 25c-29 11 -32 12 -43 12
c-31 0 -33 -19 -34 -33z" />
    <glyph glyph-name="Thorn" unicode="&#xde;" horiz-adv-x="521" 
d="M50 0v707h171v-118h114c123 0 166 -40 166 -144v-145c0 -135 -55 -160 -157 -160h-123v-140h-171zM276 468h-55v-204h57c63 0 63 19 63 108c0 86 0 96 -65 96z" />
    <glyph glyph-name="onequarter" unicode="&#xbc;" horiz-adv-x="792" 
d="M63 549v95c41 7 66 22 82 61h82v-442h-98v317c-28 -19 -34 -21 -66 -31zM478 706h73l-241 -706h-72zM479 177l124 264h123v-264h45v-85h-45v-92h-95v92h-152v85zM552 177h79v168z" />
    <glyph glyph-name="Acircumflex" unicode="&#xc2;" horiz-adv-x="521" 
d="M4 0l143 706h228l143 -706h-167l-24 161h-131l-25 -161h-167zM310 280l-47 314l-48 -314h95zM81 765l96 142h167l106 -142h-130l-60 83l-58 -83h-121z" />
    <glyph glyph-name="Odieresis" unicode="&#xd6;" horiz-adv-x="542" 
d="M40 215v292c0 56 7 110 50 155c54 56 133 58 184 58c225 0 225 -152 225 -229v-270c0 -56 0 -124 -52 -176c-50 -51 -127 -54 -178 -54c-225 0 -229 142 -229 224zM211 537v-362c0 -32 0 -60 59 -60c46 0 59 19 59 60v361c0 46 -16 58 -62 58c-42 0 -56 -15 -56 -57z
M298 788v113h135v-113h-135zM106 901h135v-113h-135v113z" />
    <glyph glyph-name="threequarters" unicode="&#xbe;" horiz-adv-x="792" 
d="M125 566h-99c0 65 0 69 4 84c18 57 82 62 123 62c126 0 143 -46 143 -100c0 -65 0 -93 -46 -115c49 -19 49 -46 49 -128c0 -83 -37 -111 -140 -111c-75 0 -122 12 -131 74c-2 14 -2 20 -2 90h99v-37c0 -25 0 -51 37 -51s37 15 37 84c0 37 -10 37 -90 36v81
c74 -2 90 -2 90 34c0 61 0 67 -43 67c-31 0 -31 -13 -31 -70zM496 706h73l-241 -706h-72zM479 177l124 264h123v-264h45v-85h-45v-92h-95v92h-152v85zM552 177h79v169z" />
    <glyph glyph-name="Ucircumflex" unicode="&#xdb;" horiz-adv-x="542" 
d="M48 706h171v-532c0 -22 0 -63 53 -63c50 0 50 37 50 60v535h171v-508c0 -87 -2 -209 -214 -209c-231 0 -231 122 -231 204v513zM92 765l96 142h167l106 -142h-130l-60 83l-58 -83h-121z" />
    <glyph glyph-name="Ugrave" unicode="&#xd9;" horiz-adv-x="542" 
d="M48 706h171v-532c0 -22 0 -63 53 -63c50 0 50 37 50 60v535h171v-508c0 -87 -2 -209 -214 -209c-231 0 -231 122 -231 204v513zM239 766l-150 142h162l97 -142h-109z" />
    <glyph glyph-name="Udieresis" unicode="&#xdc;" horiz-adv-x="542" 
d="M48 706h171v-532c0 -22 0 -63 53 -63c50 0 50 37 50 60v535h171v-508c0 -87 -2 -209 -214 -209c-231 0 -231 122 -231 204v513zM298 785v113h135v-113h-135zM106 898h135v-113h-135v113z" />
    <glyph glyph-name="Iacute" unicode="&#xcd;" horiz-adv-x="271" 
d="M49 706h171v-706h-171v706zM69 768l93 142h163l-150 -142h-106z" />
    <glyph glyph-name="Agrave" unicode="&#xc0;" horiz-adv-x="521" 
d="M4 0l143 706h228l143 -706h-167l-24 161h-131l-25 -161h-167zM310 280l-47 314l-48 -314h95zM228 766l-150 142h162l97 -142h-109z" />
    <glyph glyph-name="degree" unicode="&#xb0;" horiz-adv-x="354" 
d="M177 745c99 0 172 -80 172 -173s-76 -172 -172 -172c-95 0 -172 78 -172 172c0 93 73 173 172 173zM178 630c-30 0 -56 -24 -56 -56c0 -30 25 -55 56 -55c30 0 55 24 55 55c0 33 -26 56 -55 56z" />
    <glyph glyph-name="onehalf" unicode="&#xbd;" horiz-adv-x="792" 
d="M63 549v95c41 7 66 22 82 61h82v-441h-98v316c-28 -19 -34 -21 -66 -31zM455 706h73l-241 -706h-73zM586 268h-99c0 79 0 96 8 117c20 53 85 63 125 63c25 0 55 -3 81 -14c61 -25 62 -71 62 -114c0 -77 -14 -89 -61 -130c-45 -41 -73 -66 -93 -103h152v-88h-274
c0 120 2 132 153 258c18 15 22 20 22 60c0 24 0 53 -37 53c-39 0 -39 -27 -39 -43v-59z" />
    <glyph glyph-name="minus" unicode="&#x2212;" 
d="M500 354v-127h-500v127h500z" />
    <glyph glyph-name="Yacute" unicode="&#xdd;" horiz-adv-x="521" 
d="M259 394l86 312h170l-176 -457v-249h-166v249l-169 457h169zM194 768l93 142h163l-150 -142h-106z" />
    <glyph glyph-name="twosuperior" unicode="&#xb2;" horiz-adv-x="333" 
d="M128 533h-99c0 79 0 96 8 117c20 53 85 63 125 63c24 0 54 -3 80 -14c61 -25 62 -71 62 -114c0 -77 -14 -89 -61 -130c-45 -41 -73 -66 -93 -103h152v-88h-273c0 120 2 132 152 258c18 15 22 20 22 60c0 24 0 53 -37 53c-38 0 -38 -27 -38 -43v-59z" />
    <glyph glyph-name="Uacute" unicode="&#xda;" horiz-adv-x="542" 
d="M48 706h171v-532c0 -22 0 -63 53 -63c50 0 50 37 50 60v535h171v-508c0 -87 -2 -209 -214 -209c-231 0 -231 122 -231 204v513zM205 768l93 142h163l-150 -142h-106z" />
    <glyph glyph-name="registered" unicode="&#xae;" horiz-adv-x="833" 
d="M250 586h163c51 0 82 -2 108 -11c59 -18 81 -71 81 -113c0 -67 -49 -91 -80 -105c27 -17 41 -29 51 -86c9 -59 16 -100 39 -143h-126c-13 27 -16 46 -25 99c-14 90 -14 93 -101 93v-192h-110v458zM360 502v-95h48c42 0 84 0 84 49c0 41 -36 45 -45 45c-9 1 -17 1 -87 1z
M773 352c0 -190 -151 -355 -358 -355c-184 0 -354 145 -354 356c0 205 164 356 355 356c200 0 357 -155 357 -357zM741 352c0 180 -139 325 -325 325c-176 0 -323 -142 -323 -324c0 -183 146 -324 323 -324c188 0 325 150 325 323z" />
    <glyph glyph-name="copyright" unicode="&#xa9;" horiz-adv-x="833" 
d="M534 271l87 -81c-31 -31 -85 -85 -191 -85c-182 0 -255 129 -255 247c0 136 92 252 250 252c111 0 166 -56 196 -86l-87 -83c-19 18 -52 49 -108 49c-79 0 -127 -53 -127 -129c0 -79 50 -130 129 -130c52 0 77 21 106 46zM773 351c0 -186 -146 -354 -356 -354
c-187 0 -356 145 -356 357c0 199 159 355 357 355c200 0 355 -157 355 -358zM741 351c0 181 -139 326 -322 326c-184 0 -326 -147 -326 -324c0 -186 150 -324 321 -324c200 0 327 157 327 322z" />
    <glyph glyph-name="Ecircumflex" unicode="&#xca;" horiz-adv-x="437" 
d="M51 707h365v-125h-194v-162h183v-125h-183v-170h194v-125h-365v707zM50 765l96 142h167l106 -142h-130l-60 83l-58 -83h-121z" />
    <glyph glyph-name="trademark" unicode="&#x2122;" horiz-adv-x="688" 
d="M674 706v-332h-82l4 177l5 67l-13 -53l-57 -191h-74l-59 192l-14 51l6 -66l5 -177h-81v332h106l76 -240l71 240h107zM187 639v-265h-84v265h-102v67h286v-67h-100z" />
    <glyph glyph-name="plusminus" unicode="&#xb1;" 
d="M469 127v-127h-437v127h437zM315 340v-156h-127v156h-156v127h156v155h127v-155h154v-127h-154z" />
    <glyph glyph-name="Eth" unicode="&#xd0;" horiz-adv-x="542" 
d="M2 435h49v272h257c63 0 100 -10 124 -24c71 -39 71 -111 71 -152v-353c0 -43 0 -93 -34 -131c-38 -43 -99 -47 -154 -47h-264v333h-49v102zM216 584v-149h64v-102h-64v-211h53c47 0 63 12 63 60v338c0 45 -15 64 -64 64h-52z" />
    <glyph glyph-name="Adieresis" unicode="&#xc4;" horiz-adv-x="521" 
d="M4 0l143 706h228l143 -706h-167l-24 161h-131l-25 -161h-167zM310 280l-47 314l-48 -314h95zM288 786v113h135v-113h-135zM96 899h135v-113h-135v113z" />
    <glyph glyph-name="Aring" unicode="&#xc5;" horiz-adv-x="521" 
d="M4 0l143 706h228l143 -706h-167l-24 161h-131l-25 -161h-167zM310 280l-47 314l-48 -314h95zM296 828c0 20 -17 37 -37 37s-37 -17 -37 -37s17 -37 37 -37s37 17 37 37zM189 758c-8 8 -29 33 -29 70c0 54 45 99 99 99s99 -45 99 -99c0 -52 -43 -99 -100 -99
c-36 0 -61 22 -69 29z" />
    <glyph glyph-name="Ydieresis" unicode="&#x178;" horiz-adv-x="521" 
d="M259 394l86 312h170l-176 -457v-249h-166v249l-169 457h169zM288 784v113h135v-113h-135zM96 897h135v-113h-135v113z" />
    <glyph glyph-name="divide" unicode="&#xf7;" 
d="M331 109c0 -37 -31 -78 -81 -78c-42 0 -80 33 -80 79c0 44 34 82 81 82c46 0 80 -39 80 -83zM500 354v-127h-499v127h499zM331 468c0 -47 -39 -79 -82 -79c-40 0 -79 33 -79 79c0 48 39 82 80 82c46 0 81 -37 81 -82z" />
    <glyph glyph-name="onesuperior" unicode="&#xb9;" horiz-adv-x="333" 
d="M63 550v94c41 7 66 22 82 61h82v-441h-98v316c-28 -18 -34 -20 -66 -30z" />
    <glyph glyph-name="threesuperior" unicode="&#xb3;" horiz-adv-x="333" 
d="M125 566h-99c0 65 0 69 4 84c18 57 82 62 123 62c126 0 143 -46 143 -100c0 -65 0 -93 -46 -115c49 -19 49 -46 49 -128c0 -83 -37 -111 -140 -111c-75 0 -122 12 -131 74c-2 14 -2 20 -2 90h99v-37c0 -25 0 -51 37 -51s37 15 37 84c0 37 -10 37 -90 36v81
c74 -2 90 -2 90 34c0 61 0 67 -43 67c-31 0 -31 -13 -31 -70z" />
    <glyph glyph-name="Egrave" unicode="&#xc8;" horiz-adv-x="437" 
d="M51 707h365v-125h-194v-162h183v-125h-183v-170h194v-125h-365v707zM197 766l-150 142h162l97 -142h-109z" />
    <glyph glyph-name="Idieresis" unicode="&#xcf;" horiz-adv-x="271" 
d="M49 706h171v-706h-171v706zM163 784v113h135v-113h-135zM-29 897h135v-113h-135v113z" />
    <glyph glyph-name="Scaron" unicode="&#x160;" horiz-adv-x="479" 
d="M228 268l-103 74c-72 52 -98 72 -98 173c0 145 45 204 221 204c185 0 202 -74 198 -229h-162v49c0 36 -3 59 -47 59c-43 0 -43 -33 -43 -62c0 -38 2 -52 32 -72l146 -101c65 -45 91 -66 91 -174c0 -77 -15 -114 -45 -145c-29 -30 -74 -54 -177 -54c-79 0 -137 14 -174 44
c-51 43 -50 107 -48 192h169v-55c0 -17 0 -57 50 -57c53 0 54 33 54 50c0 54 -1 59 -64 104zM49 909h130l59 -82l58 82h122l-96 -141h-166z" />
    <glyph glyph-name="Icircumflex" unicode="&#xce;" horiz-adv-x="271" 
d="M49 706h171v-706h-171v706zM-44 765l96 142h167l106 -142h-130l-60 83l-58 -83h-121z" />
    <glyph glyph-name="aacute" unicode="&#xe1;" 
d="M450 383v-300c0 -49 5 -61 23 -83h-182v45c-34 -30 -69 -60 -133 -60c-127 0 -127 103 -127 138c0 126 50 147 126 177c81 30 90 34 134 55c0 47 0 48 -3 57c-10 26 -34 26 -44 26c-45 0 -45 -30 -45 -83h-153c-2 74 -4 191 194 191c44 0 101 -6 142 -27
c68 -36 68 -101 68 -136zM291 156v111c-24 -13 -61 -32 -70 -38c-23 -17 -26 -36 -26 -81c0 -32 0 -61 40 -61c52 0 56 34 56 69zM151 609l87 126h167l-137 -126h-117z" />
    <glyph glyph-name="acircumflex" unicode="&#xe2;" 
d="M450 383v-300c0 -49 5 -61 23 -83h-182v45c-34 -30 -69 -60 -133 -60c-127 0 -127 103 -127 138c0 126 50 147 126 177c81 30 90 34 134 55c0 47 0 48 -3 57c-10 26 -34 26 -44 26c-45 0 -45 -30 -45 -83h-153c-2 74 -4 191 194 191c44 0 101 -6 142 -27
c68 -36 68 -101 68 -136zM291 156v111c-24 -13 -61 -32 -70 -38c-23 -17 -26 -36 -26 -81c0 -32 0 -61 40 -61c52 0 56 34 56 69zM187 737h126l101 -125h-118l-45 59l-43 -59h-120z" />
    <glyph glyph-name="adieresis" unicode="&#xe4;" 
d="M450 383v-300c0 -49 5 -61 23 -83h-182v45c-34 -30 -69 -60 -133 -60c-127 0 -127 103 -127 138c0 126 50 147 126 177c81 30 90 34 134 55c0 47 0 48 -3 57c-10 26 -34 26 -44 26c-45 0 -45 -30 -45 -83h-153c-2 74 -4 191 194 191c44 0 101 -6 142 -27
c68 -36 68 -101 68 -136zM291 156v111c-24 -13 -61 -32 -70 -38c-23 -17 -26 -36 -26 -81c0 -32 0 -61 40 -61c52 0 56 34 56 69zM299 733h143v-124h-143v124zM77 733h143v-124h-143v124z" />
    <glyph glyph-name="agrave" unicode="&#xe0;" 
d="M450 383v-300c0 -49 5 -61 23 -83h-182v45c-34 -30 -69 -60 -133 -60c-127 0 -127 103 -127 138c0 126 50 147 126 177c81 30 90 34 134 55c0 47 0 48 -3 57c-10 26 -34 26 -44 26c-45 0 -45 -30 -45 -83h-153c-2 74 -4 191 194 191c44 0 101 -6 142 -27
c68 -36 68 -101 68 -136zM291 156v111c-24 -13 -61 -32 -70 -38c-23 -17 -26 -36 -26 -81c0 -32 0 -61 40 -61c52 0 56 34 56 69zM93 736h173l95 -127h-128z" />
    <glyph glyph-name="aring" unicode="&#xe5;" 
d="M450 383v-300c0 -49 5 -61 23 -83h-182v45c-34 -30 -69 -60 -133 -60c-127 0 -127 103 -127 138c0 126 50 147 126 177c81 30 90 34 134 55c0 47 0 48 -3 57c-10 26 -34 26 -44 26c-45 0 -45 -30 -45 -83h-153c-2 74 -4 191 194 191c44 0 101 -6 142 -27
c68 -36 68 -101 68 -136zM291 156v111c-24 -13 -61 -32 -70 -38c-23 -17 -26 -36 -26 -81c0 -32 0 -61 40 -61c52 0 56 34 56 69zM296 665c0 20 -17 37 -37 37s-37 -17 -37 -37s17 -37 37 -37s37 17 37 37zM189 595c-8 8 -29 33 -29 70c0 54 44 99 99 99c54 0 99 -45 99 -99
c0 -52 -43 -99 -100 -99c-36 0 -61 22 -69 29z" />
    <glyph glyph-name="atilde" unicode="&#xe3;" 
d="M450 383v-300c0 -49 5 -61 23 -83h-182v45c-34 -30 -69 -60 -133 -60c-127 0 -127 103 -127 138c0 126 50 147 126 177c81 30 90 34 134 55c0 47 0 48 -3 57c-10 26 -34 26 -44 26c-45 0 -45 -30 -45 -83h-153c-2 74 -4 191 194 191c44 0 101 -6 142 -27
c68 -36 68 -101 68 -136zM291 156v111c-24 -13 -61 -32 -70 -38c-23 -17 -26 -36 -26 -81c0 -32 0 -61 40 -61c52 0 56 34 56 69zM136 621h-50c4 41 12 121 105 121c23 0 29 -2 86 -22c34 -12 38 -13 49 -13c32 0 36 22 38 32h50c-4 -37 -15 -122 -105 -122
c-30 0 -47 6 -96 25c-29 11 -32 12 -43 12c-31 0 -33 -19 -34 -33z" />
    <glyph glyph-name="eacute" unicode="&#xe9;" horiz-adv-x="479" 
d="M440 364v-134h-242v-87c0 -16 0 -51 44 -51c16 0 31 3 42 16c9 12 9 18 9 68h153c0 -50 0 -90 -25 -124c-47 -67 -149 -67 -181 -67c-45 0 -120 9 -163 54c-31 33 -40 74 -40 156v144c0 154 55 207 203 207c200 0 200 -110 200 -182zM198 386v-55h92v55c0 20 0 58 -44 58
c-48 0 -48 -40 -48 -58zM150 609l87 126h167l-137 -126h-117z" />
    <glyph glyph-name="ecircumflex" unicode="&#xea;" horiz-adv-x="479" 
d="M440 364v-134h-242v-87c0 -16 0 -51 44 -51c16 0 31 3 42 16c9 12 9 18 9 68h153c0 -50 0 -90 -25 -124c-47 -67 -149 -67 -181 -67c-45 0 -120 9 -163 54c-31 33 -40 74 -40 156v144c0 154 55 207 203 207c200 0 200 -110 200 -182zM198 386v-55h92v55c0 20 0 58 -44 58
c-48 0 -48 -40 -48 -58zM175 737h126l101 -125h-118l-45 59l-43 -59h-120z" />
    <glyph glyph-name="edieresis" unicode="&#xeb;" horiz-adv-x="479" 
d="M440 364v-134h-242v-87c0 -16 0 -51 44 -51c16 0 31 3 42 16c9 12 9 18 9 68h153c0 -50 0 -90 -25 -124c-47 -67 -149 -67 -181 -67c-45 0 -120 9 -163 54c-31 33 -40 74 -40 156v144c0 154 55 207 203 207c200 0 200 -110 200 -182zM198 386v-55h92v55c0 20 0 58 -44 58
c-48 0 -48 -40 -48 -58zM277 733h143v-124h-143v124zM55 733h143v-124h-143v124z" />
    <glyph glyph-name="egrave" unicode="&#xe8;" horiz-adv-x="479" 
d="M440 364v-134h-242v-87c0 -16 0 -51 44 -51c16 0 31 3 42 16c9 12 9 18 9 68h153c0 -50 0 -90 -25 -124c-47 -67 -149 -67 -181 -67c-45 0 -120 9 -163 54c-31 33 -40 74 -40 156v144c0 154 55 207 203 207c200 0 200 -110 200 -182zM198 386v-55h92v55c0 20 0 58 -44 58
c-48 0 -48 -40 -48 -58zM71 736h173l95 -127h-128z" />
    <glyph glyph-name="iacute" unicode="&#xed;" horiz-adv-x="250" 
d="M45 0v531h159v-531h-159zM25 609l87 126h167l-137 -126h-117z" />
    <glyph glyph-name="icircumflex" unicode="&#xee;" horiz-adv-x="250" 
d="M45 0v531h159v-531h-159zM61 737h126l101 -125h-118l-45 59l-43 -59h-120z" />
    <glyph glyph-name="idieresis" unicode="&#xef;" horiz-adv-x="250" 
d="M45 0v531h159v-531h-159zM163 733h143v-124h-143v124zM-59 733h143v-124h-143v124z" />
    <glyph glyph-name="igrave" unicode="&#xec;" horiz-adv-x="250" 
d="M45 0v531h159v-531h-159zM-33 736h173l95 -127h-128z" />
    <glyph glyph-name="ntilde" unicode="&#xf1;" 
d="M456 384v-384h-157v378c0 15 0 58 -46 58c-48 0 -48 -41 -48 -55v-381h-160v531h160v-50c18 22 53 64 119 64c56 0 89 -27 106 -52c25 -35 26 -72 26 -109zM136 621h-50c4 41 12 121 105 121c23 0 29 -2 86 -22c34 -12 38 -13 49 -13c32 0 36 22 38 32h50
c-4 -37 -15 -122 -105 -122c-30 0 -47 6 -96 25c-29 11 -32 12 -43 12c-31 0 -33 -19 -34 -33z" />
    <glyph glyph-name="oacute" unicode="&#xf3;" horiz-adv-x="479" 
d="M36 174v183c0 67 0 188 202 188c204 0 204 -122 204 -176v-202c0 -58 0 -183 -202 -183c-57 0 -109 11 -148 40c-53 38 -56 89 -56 150zM285 157v219c0 22 0 60 -46 60s-46 -44 -46 -63v-224c0 -19 0 -52 46 -52s46 42 46 60zM139 609l87 126h167l-137 -126h-117z" />
    <glyph glyph-name="ocircumflex" unicode="&#xf4;" horiz-adv-x="479" 
d="M36 174v183c0 67 0 188 202 188c204 0 204 -122 204 -176v-202c0 -58 0 -183 -202 -183c-57 0 -109 11 -148 40c-53 38 -56 89 -56 150zM285 157v219c0 22 0 60 -46 60s-46 -44 -46 -63v-224c0 -19 0 -52 46 -52s46 42 46 60zM175 737h126l101 -125h-118l-45 59l-43 -59
h-120z" />
    <glyph glyph-name="odieresis" unicode="&#xf6;" horiz-adv-x="479" 
d="M36 174v183c0 67 0 188 202 188c204 0 204 -122 204 -176v-202c0 -58 0 -183 -202 -183c-57 0 -109 11 -148 40c-53 38 -56 89 -56 150zM285 157v219c0 22 0 60 -46 60s-46 -44 -46 -63v-224c0 -19 0 -52 46 -52s46 42 46 60zM278 736h143v-124h-143v124zM56 736h143
v-124h-143v124z" />
    <glyph glyph-name="ograve" unicode="&#xf2;" horiz-adv-x="479" 
d="M36 174v183c0 67 0 188 202 188c204 0 204 -122 204 -176v-202c0 -58 0 -183 -202 -183c-57 0 -109 11 -148 40c-53 38 -56 89 -56 150zM285 157v219c0 22 0 60 -46 60s-46 -44 -46 -63v-224c0 -19 0 -52 46 -52s46 42 46 60zM81 736h173l95 -127h-128z" />
    <glyph glyph-name="otilde" unicode="&#xf5;" horiz-adv-x="479" 
d="M36 174v183c0 67 0 188 202 188c204 0 204 -122 204 -176v-202c0 -58 0 -183 -202 -183c-57 0 -109 11 -148 40c-53 38 -56 89 -56 150zM285 157v219c0 22 0 60 -46 60s-46 -44 -46 -63v-224c0 -19 0 -52 46 -52s46 42 46 60zM124 621h-50c4 41 12 121 105 121
c23 0 29 -2 86 -22c34 -12 38 -13 49 -13c32 0 36 22 38 32h50c-4 -37 -15 -122 -105 -122c-30 0 -47 6 -96 25c-29 11 -32 12 -43 12c-31 0 -33 -19 -34 -33z" />
    <glyph glyph-name="scaron" unicode="&#x161;" horiz-adv-x="437" 
d="M216 187l-75 40c-84 45 -115 66 -115 160c0 61 13 97 55 124c47 32 103 35 140 35c195 0 195 -115 195 -172h-152c1 13 1 29 -4 42s-16 23 -38 23c-27 0 -43 -17 -43 -44c0 -29 17 -38 67 -63l92 -46c78 -40 84 -75 84 -125c0 -58 -7 -96 -45 -129
c-43 -36 -102 -46 -159 -46c-197 0 -197 113 -197 178h153c-1 -7 -1 -13 -1 -19c0 -16 0 -51 45 -51c31 0 43 20 43 39c0 29 -22 41 -45 54zM262 736h120l-98 -125h-126l-102 125h118l46 -59z" />
    <glyph glyph-name="uacute" unicode="&#xfa;" 
d="M296 532h158v-532h-158v58c-18 -29 -46 -72 -121 -72c-133 0 -133 123 -133 166v380h158v-371c0 -17 0 -53 47 -53c49 0 49 37 49 54v370zM151 609l87 126h167l-137 -126h-117z" />
    <glyph glyph-name="ucircumflex" unicode="&#xfb;" 
d="M296 532h158v-532h-158v58c-18 -29 -46 -72 -121 -72c-133 0 -133 123 -133 166v380h158v-371c0 -17 0 -53 47 -53c49 0 49 37 49 54v370zM187 737h126l101 -125h-118l-45 59l-43 -59h-120z" />
    <glyph glyph-name="udieresis" unicode="&#xfc;" 
d="M296 532h158v-532h-158v58c-18 -29 -46 -72 -121 -72c-133 0 -133 123 -133 166v380h158v-371c0 -17 0 -53 47 -53c49 0 49 37 49 54v370zM284 735h143v-124h-143v124zM62 735h143v-124h-143v124z" />
    <glyph glyph-name="ugrave" unicode="&#xf9;" 
d="M296 532h158v-532h-158v58c-18 -29 -46 -72 -121 -72c-133 0 -133 123 -133 166v380h158v-371c0 -17 0 -53 47 -53c49 0 49 37 49 54v370zM93 736h173l95 -127h-128z" />
    <glyph glyph-name="yacute" unicode="&#xfd;" horiz-adv-x="437" 
d="M136 -35l-138 566h156l64 -418l59 418h159l-127 -546c-15 -64 -27 -106 -62 -135c-43 -38 -102 -40 -163 -40h-77v103h70c43 0 55 13 59 52zM119 609l87 126h167l-137 -126h-117z" />
    <glyph glyph-name="ydieresis" unicode="&#xff;" horiz-adv-x="437" 
d="M136 -35l-138 566h156l64 -418l59 418h159l-127 -546c-15 -64 -27 -106 -62 -135c-43 -38 -102 -40 -163 -40h-77v103h70c43 0 55 13 59 52zM257 733h143v-124h-143v124zM35 733h143v-124h-143v124z" />
    <glyph glyph-name="zcaron" unicode="&#x17e;" horiz-adv-x="396" 
d="M46 532h339v-102l-197 -328h181v-102h-359v102l196 328h-160v102zM257 736h120l-98 -125h-126l-102 125h118l46 -59z" />
  </font>
</defs>
</svg>
