<?xml version="1.0" standalone="no"?>
<!DOCTYPE svg PUBLIC "-//W3C//DTD SVG 1.1//EN" "http://www.w3.org/Graphics/SVG/1.1/DTD/svg11.dtd" >
<svg xmlns="http://www.w3.org/2000/svg" width="100%" height="100%">
<metadata>
Created by FontXChange 20110222 at Fri Jun  1 16:54:45 2018
 By Suzi Rubino
Copyright (c) 1991 Adobe Systems Incorporated.  All Rights Reserved.Berthold Akzidenz Grotesk is a registered trademark of H. Berthold AG.
</metadata>
<defs>
<font id="AkzidenzGroteskBE-MdCn" horiz-adv-x="313" >
  <font-face 
    font-family="AkzidenzGroteskBE"
    font-weight="500"
    font-stretch="normal"
    units-per-em="1000"
    panose-1="2 0 6 3 0 0 0 0 0 0"
    ascent="800"
    descent="-200"
    x-height="535"
    cap-height="706"
    bbox="-115 -250 872 897"
    underline-thickness="50"
    underline-position="-100"
    stemh="87"
    stemv="79"
    unicode-range="U+0020-FB02"
  />
    <missing-glyph />
    <glyph glyph-name="space" unicode=" " horiz-adv-x="208" 
 />
    <glyph glyph-name="exclam" unicode="!" horiz-adv-x="187" 
d="M71 451v248h79v-272l-17 -206h-44zM71 0v129h80v-129h-80z" />
    <glyph glyph-name="quotedbl" unicode="&#x22;" horiz-adv-x="396" 
d="M343 690l-41 -256h-23l-38 244c-1 6 -2 12 -2 17c0 42 34 54 55 54c28 0 55 -20 49 -59zM156 690l-41 -256h-23l-38 244c-1 6 -2 12 -2 17c0 42 34 54 55 54c28 0 55 -20 49 -59z" />
    <glyph glyph-name="numbersign" unicode="#" horiz-adv-x="583" 
d="M559 307v-77h-150l-33 -230h-80l33 230h-111l-32 -230h-81l33 230h-138v77h149l16 107h-141v77h151l31 215h80l-30 -215h110l31 215h78l-29 -215h138v-77h-149l-16 -107h140zM229 307h111l15 107h-111z" />
    <glyph glyph-name="dollar" unicode="$" horiz-adv-x="333" 
d="M140 713v59h46v-57c96 -18 111 -82 111 -180c0 -15 -1 -29 -1 -44h-78c0 62 0 88 -5 107c-6 28 -22 43 -45 43c-35 0 -51 -32 -51 -74c0 -59 30 -99 68 -152l43 -57c70 -95 82 -149 82 -207c0 -82 -35 -146 -123 -156v-70h-46v70c-109 26 -111 99 -111 257h83
c1 -87 1 -108 6 -134c2 -15 9 -51 50 -51c56 0 56 67 56 83c0 56 -19 92 -48 131l-46 59c-83 108 -98 173 -98 227c0 71 35 131 107 146z" />
    <glyph glyph-name="percent" unicode="%" horiz-adv-x="583" 
d="M114 -5l309 736l49 -20l-309 -736zM379 99v253c0 26 0 97 91 97c86 0 94 -62 94 -103v-233c0 -51 0 -118 -93 -118c-92 0 -92 68 -92 104zM507 82v272c0 23 -2 48 -35 48c-36 0 -36 -23 -36 -44v-267c0 -20 0 -46 36 -46c35 0 35 24 35 37zM22 362v254c0 25 0 96 90 96
c86 0 94 -62 94 -102v-234c0 -50 0 -118 -93 -118c-91 0 -91 68 -91 104zM149 345v272c0 23 -2 48 -35 48c-35 0 -35 -23 -35 -44v-267c0 -20 0 -46 35 -46s35 24 35 37z" />
    <glyph glyph-name="ampersand" unicode="&#x26;" horiz-adv-x="437" 
d="M437 84v-90c-34 5 -81 13 -127 55c-28 -32 -61 -57 -121 -57c-87 0 -160 66 -160 191c0 91 41 142 76 188c-13 24 -42 82 -42 161c0 99 56 164 136 164c79 0 115 -60 115 -121c0 -85 -63 -161 -107 -212c29 -63 40 -84 88 -163c15 47 19 74 21 154h80
c-1 -57 -2 -152 -44 -229c35 -30 56 -38 85 -41zM167 443c37 47 66 87 66 134c0 35 -17 49 -37 49c-38 0 -51 -40 -51 -77c0 -45 12 -77 22 -106zM147 289c-17 -25 -35 -52 -35 -101c0 -59 31 -113 78 -113c34 0 52 27 58 35c-50 78 -61 98 -101 179z" />
    <glyph glyph-name="quoteright" unicode="&#x2019;" horiz-adv-x="146" 
d="M32 577v129h80v-107c0 -94 -15 -121 -76 -157v22c29 21 36 41 36 113h-40z" />
    <glyph glyph-name="parenleft" unicode="(" horiz-adv-x="250" 
d="M233 -151v-59c-39 30 -101 79 -148 195c-38 92 -54 198 -54 282c0 82 12 163 40 240c51 143 131 199 163 221v-59c-55 -51 -80 -124 -94 -198c-20 -101 -20 -174 -20 -206c0 -113 8 -305 113 -416z" />
    <glyph glyph-name="parenright" unicode=")" horiz-adv-x="250" 
d="M17 668v60c39 -31 101 -80 149 -195c37 -91 53 -197 53 -283c0 -81 -12 -163 -40 -240c-51 -142 -131 -198 -163 -220v58c55 51 80 125 94 198c20 101 20 174 20 207c0 113 -8 304 -113 415z" />
    <glyph glyph-name="asterisk" unicode="*" horiz-adv-x="396" 
d="M159 632v75h72v-75l-14 -52l57 25l69 19l20 -71l-76 -19h-61l48 -34l44 -66l-61 -40l-45 65l-16 62l-12 -62l-45 -65l-62 37l40 63l47 39l-56 -1l-75 22l20 75l73 -28l50 -28z" />
    <glyph glyph-name="plus" unicode="+" horiz-adv-x="500" 
d="M468 331v-80h-179v-179h-80v179h-178v80h178v179h80v-179h179z" />
    <glyph glyph-name="comma" unicode="," horiz-adv-x="146" 
d="M31 0v129h80v-107c0 -94 -15 -120 -76 -157v22c29 21 36 41 36 113h-40z" />
    <glyph glyph-name="hyphen" unicode="-" horiz-adv-x="229" 
d="M29 284v84h177v-84h-177z" />
    <glyph glyph-name="period" unicode="." horiz-adv-x="146" 
d="M30 0v132h82v-132h-82z" />
    <glyph glyph-name="slash" unicode="/" horiz-adv-x="250" 
d="M9 0l153 706h77l-152 -706h-78z" />
    <glyph glyph-name="zero" unicode="0" horiz-adv-x="354" 
d="M32 162v407c0 42 6 79 35 107c38 39 93 39 113 39c142 0 142 -108 142 -150v-413c0 -53 0 -159 -145 -159s-145 101 -145 169zM236 129v443c0 30 -1 75 -58 75c-60 0 -60 -45 -60 -63v-449c0 -28 0 -70 58 -70c60 0 60 45 60 64z" />
    <glyph glyph-name="one" unicode="1" horiz-adv-x="354" 
d="M67 533v69c57 6 91 35 106 100h61v-702h-89v533h-78z" />
    <glyph glyph-name="two" unicode="2" horiz-adv-x="354" 
d="M36 472v107c0 44 0 133 140 133c30 0 74 -3 106 -31c35 -31 35 -70 35 -144c0 -121 0 -129 -88 -257c-46 -66 -85 -122 -98 -201h190v-79h-281c0 129 16 189 132 347c44 61 58 80 58 156v70c0 24 0 70 -53 70c-55 0 -55 -37 -55 -59v-112h-86z" />
    <glyph glyph-name="three" unicode="3" horiz-adv-x="354" 
d="M33 533v63c0 27 0 119 135 119c129 0 129 -75 129 -114v-107c0 -66 -19 -84 -69 -95c68 -13 84 -49 84 -128v-122c0 -65 0 -155 -140 -155c-139 0 -139 91 -139 121v99h85v-90c0 -20 0 -59 53 -59c54 0 55 40 55 62v134c0 82 -37 87 -126 84v83c79 -4 112 14 112 70v103
c0 19 -2 47 -46 47c-48 0 -48 -34 -48 -52v-63h-85z" />
    <glyph glyph-name="four" unicode="4" horiz-adv-x="354" 
d="M8 236l149 466h129v-464h50v-75h-50v-163h-84v163h-194v73zM202 238v370l-114 -370h114z" />
    <glyph glyph-name="five" unicode="5" horiz-adv-x="354" 
d="M46 347v355h253v-81h-174v-152c12 10 35 29 81 29c110 0 113 -81 113 -114v-261c0 -35 0 -133 -138 -133c-28 0 -65 3 -97 24c-40 27 -43 65 -43 99v104h85v-95c0 -22 0 -60 52 -60c55 0 55 44 55 75v228c0 42 -19 59 -55 59c-57 0 -57 -38 -57 -77h-75z" />
    <glyph glyph-name="six" unicode="6" horiz-adv-x="354" 
d="M41 143v419c0 45 0 87 37 120c32 29 75 33 107 33c134 0 134 -100 134 -143v-71h-82v77c0 61 -36 64 -56 64c-55 0 -55 -43 -55 -74v-178c29 37 62 42 87 42c109 0 109 -95 109 -139v-163c0 -23 -1 -56 -19 -84c-7 -9 -35 -53 -123 -53c-32 0 -63 6 -89 24
c-50 34 -50 85 -50 126zM238 126v164c0 26 0 67 -55 67c-57 0 -57 -46 -57 -68v-158c0 -23 0 -69 57 -69c55 0 55 45 55 64z" />
    <glyph glyph-name="seven" unicode="7" horiz-adv-x="354" 
d="M42 619v80h265v-76c-23 -51 -59 -134 -89 -285c-31 -154 -34 -263 -36 -338h-102c16 230 41 388 149 619h-187z" />
    <glyph glyph-name="eight" unicode="8" horiz-adv-x="354" 
d="M42 466v104c0 33 0 138 137 138s137 -97 137 -151v-55c0 -71 -9 -112 -75 -133c76 -15 78 -65 78 -116v-125c0 -39 -6 -80 -45 -109c-28 -21 -62 -28 -100 -28c-142 0 -142 113 -142 147v85c0 98 12 129 81 146c-57 22 -71 44 -71 97zM127 577v-114c0 -20 0 -57 49 -57
c54 0 55 41 55 70v91c0 34 -1 73 -51 73c-53 0 -53 -41 -53 -63zM234 153v113c0 35 -6 64 -58 64c-59 0 -59 -41 -59 -93v-106c0 -20 0 -69 58 -69c59 0 59 45 59 91z" />
    <glyph glyph-name="nine" unicode="9" horiz-adv-x="354" 
d="M314 565v-419c0 -58 0 -152 -145 -152c-134 0 -134 99 -134 142v72h82v-78c0 -60 36 -63 56 -63c55 0 56 42 56 74v177c-30 -37 -62 -42 -88 -42c-109 0 -109 94 -109 139v164c0 32 0 137 142 137c22 0 60 -3 90 -24c50 -34 50 -85 50 -127zM116 583v-165
c0 -26 0 -67 55 -67c58 0 58 46 58 68v158c0 27 0 70 -57 70c-56 0 -56 -41 -56 -64z" />
    <glyph glyph-name="colon" unicode=":" horiz-adv-x="187" 
d="M72 323v129h82v-129h-82zM72 0v132h82v-132h-82z" />
    <glyph glyph-name="semicolon" unicode=";" horiz-adv-x="187" 
d="M70 324v129h82v-129h-82zM70 0v132h81v-121c0 -89 -28 -120 -78 -146v23c31 23 36 40 36 112h-39z" />
    <glyph glyph-name="less" unicode="&#x3c;" horiz-adv-x="500" 
d="M500 155v-87l-500 242v86l500 242v-87l-401 -198z" />
    <glyph glyph-name="equal" unicode="=" horiz-adv-x="500" 
d="M500 238v-78h-500v78h500zM500 419v-78h-500v78h500z" />
    <glyph glyph-name="greater" unicode="&#x3e;" horiz-adv-x="500" 
d="M500 310l-500 -242v87l401 198l-401 198v87l500 -242v-86z" />
    <glyph glyph-name="question" unicode="?" horiz-adv-x="333" 
d="M130 503h-76c-1 62 -2 90 8 121c15 49 54 79 118 79c95 0 131 -73 131 -143s-29 -127 -53 -173c-56 -105 -58 -110 -59 -166h-71c0 58 4 83 33 144c59 128 65 141 65 192c0 41 -6 73 -47 73c-49 0 -49 -39 -49 -127zM125 129h80v-129h-80v129z" />
    <glyph glyph-name="at" unicode="@" horiz-adv-x="896" 
d="M787 76l33 -40c-100 -96 -228 -160 -366 -160c-153 0 -385 84 -385 359c0 248 192 477 461 477c178 0 297 -111 297 -289c0 -180 -113 -353 -230 -353c-77 0 -82 59 -84 85c-62 -84 -128 -84 -144 -84c-10 0 -130 0 -130 165c0 143 100 282 212 282c58 0 92 -34 114 -85
l15 62h68l-33 -150c-15 -73 -28 -131 -28 -175c0 -22 7 -28 21 -39h10c58 0 151 135 151 289c0 159 -105 238 -248 238c-204 0 -396 -186 -396 -426c0 -210 167 -301 326 -301c129 0 244 57 336 145zM541 348c0 82 -50 105 -82 105c-90 0 -141 -126 -141 -215
c0 -103 72 -103 78 -103c80 0 145 109 145 213z" />
    <glyph glyph-name="A" unicode="A" horiz-adv-x="333" 
d="M106 706h113l109 -706h-91l-18 130h-106l-16 -130h-90zM166 573h-8c-3 -92 -3 -102 -5 -114l-30 -243h84l-35 245c-4 27 -5 54 -6 112z" />
    <glyph glyph-name="B" unicode="B" horiz-adv-x="354" 
d="M42 0v706h165c108 0 110 -41 110 -176c0 -108 0 -151 -71 -154v-5c23 -2 59 -5 68 -52c2 -12 3 -17 3 -143c0 -142 -8 -176 -132 -176h-143zM132 622v-212c68 0 78 0 86 19c7 15 7 73 7 96c0 13 -1 32 -2 50c-2 29 -4 38 -12 43c-7 4 -10 4 -79 4zM184 333h-52v-246h48
c27 0 36 2 41 14c6 12 6 91 6 110c0 109 -4 122 -43 122z" />
    <glyph glyph-name="C" unicode="C" horiz-adv-x="375" 
d="M40 170v341c0 62 0 202 158 202c146 0 146 -123 146 -173v-90h-93v109c0 23 0 73 -58 73c-59 0 -59 -52 -59 -88v-390c0 -40 0 -82 57 -82c59 0 59 46 59 89v131h94v-119c0 -80 -21 -182 -155 -182c-52 0 -101 20 -127 63c-22 36 -22 79 -22 116z" />
    <glyph glyph-name="D" unicode="D" horiz-adv-x="354" 
d="M39 0v706h171c100 0 108 -57 108 -114v-470c0 -93 -24 -122 -100 -122h-179zM186 620h-54v-533h62c27 0 30 16 30 39v445c0 27 -1 49 -38 49z" />
    <glyph glyph-name="E" unicode="E" horiz-adv-x="292" 
d="M42 0v706h233v-89h-138v-206h124v-87h-124v-235h139v-89h-234z" />
    <glyph glyph-name="F" unicode="F" horiz-adv-x="292" 
d="M42 0v707h242v-88h-149v-205h135v-86h-134v-328h-94z" />
    <glyph glyph-name="G" unicode="G" horiz-adv-x="354" 
d="M40 165v349c0 61 0 102 26 142c33 53 86 58 116 58c126 0 126 -103 126 -155v-74h-86v79c0 40 -2 72 -43 72c-47 0 -47 -43 -47 -78v-406c0 -46 0 -85 46 -85c47 0 47 42 47 63v160h-57v86h149v-376h-56l-8 33c-13 -16 -33 -44 -85 -44c-128 0 -128 125 -128 176z" />
    <glyph glyph-name="H" unicode="H" horiz-adv-x="354" 
d="M39 706h93v-287h87v287h93v-706h-94v328h-86v-328h-93v706z" />
    <glyph glyph-name="I" unicode="I" horiz-adv-x="167" 
d="M37 706h92v-706h-92v706z" />
    <glyph glyph-name="J" unicode="J" horiz-adv-x="292" 
d="M160 197v509h93v-490c0 -80 0 -126 -20 -162c-33 -59 -101 -59 -127 -59c-45 0 -78 6 -98 9v85c36 -12 72 -14 87 -14c65 0 65 25 65 122z" />
    <glyph glyph-name="K" unicode="K" horiz-adv-x="354" 
d="M149 436l84 270h94l-116 -350l138 -356h-95l-104 276c-3 8 -15 45 -18 54v-330h-93v706h94v-280c0 -23 -1 -35 -1 -53c6 27 14 54 17 63z" />
    <glyph glyph-name="L" unicode="L" horiz-adv-x="292" 
d="M42 707h94v-621h154v-86h-248v707z" />
    <glyph glyph-name="M" unicode="M" horiz-adv-x="500" 
d="M43 706h132l58 -357c11 -67 12 -91 13 -154h8c1 42 2 93 11 152l53 359h137v-706h-86v475c0 33 1 68 2 102h-8c-2 -18 -11 -107 -14 -127l-62 -450h-78l-62 436c-9 58 -12 104 -15 141h-9c3 -50 6 -112 6 -161v-416h-86v706z" />
    <glyph glyph-name="N" unicode="N" horiz-adv-x="375" 
d="M41 706h100l105 -452c6 -27 10 -47 15 -70h6c-4 33 -8 66 -10 100l-4 66l-4 356h87v-706h-103l-116 529h-6l5 -61l4 -61l8 -407h-87v706z" />
    <glyph glyph-name="O" unicode="O" horiz-adv-x="375" 
d="M39 162v353c0 64 3 110 35 147c29 33 72 49 116 49c39 0 77 -9 106 -40c39 -41 39 -90 39 -177v-335c0 -52 -2 -166 -154 -166c-19 0 -91 0 -125 69c-17 32 -17 66 -17 100zM243 166v356c0 61 0 108 -54 108c-7 0 -40 0 -52 -34c-5 -14 -5 -29 -5 -73v-379
c0 -35 3 -74 54 -74c55 0 57 46 57 96z" />
    <glyph glyph-name="P" unicode="P" horiz-adv-x="333" 
d="M41 0v706h181c90 0 97 -45 97 -121v-134c0 -99 -8 -131 -94 -131h-93v-320h-91zM190 620h-57v-216h59c22 0 33 5 33 32v148c0 25 -4 36 -35 36z" />
    <glyph glyph-name="Q" unicode="Q" horiz-adv-x="375" 
d="M39 151v350c0 77 3 116 29 152c42 58 106 58 126 58c33 0 65 -6 95 -33c42 -38 47 -86 47 -164v-331c0 -81 -3 -168 -113 -186c0 -32 1 -53 45 -53c22 0 31 1 45 2v-86c-119 -2 -167 5 -172 138c-51 16 -102 38 -102 153zM244 169v375c0 45 -3 86 -55 86
c-40 0 -57 -26 -57 -64v-416c0 -41 0 -80 54 -80c53 0 58 32 58 99z" />
    <glyph glyph-name="R" unicode="R" horiz-adv-x="354" 
d="M41 0v706h152c114 0 127 -31 127 -171c0 -124 -3 -175 -79 -174v-4c67 -8 76 -46 76 -140v-77c0 -85 2 -98 18 -140h-97c-8 41 -15 76 -15 148v50c0 27 -1 83 -12 106c-11 21 -22 21 -77 21v-325h-93zM183 621h-48v-218h44c47 0 49 21 49 138c0 78 -5 80 -45 80z" />
    <glyph glyph-name="S" unicode="S" horiz-adv-x="333" 
d="M118 258v-129c0 -24 0 -68 48 -68c44 0 45 45 45 82c0 66 -12 96 -76 190c-56 81 -97 141 -97 232c0 38 8 70 24 97c28 45 71 58 119 58c88 0 119 -48 119 -121v-126h-85v125c0 22 -3 48 -37 48c-43 0 -47 -36 -47 -71c0 -72 22 -105 91 -205c45 -67 84 -124 84 -215
c0 -47 -12 -92 -33 -121c-33 -44 -80 -47 -106 -47c-135 0 -135 117 -135 153v118h86z" />
    <glyph glyph-name="T" unicode="T" horiz-adv-x="333" 
d="M11 623v83h312v-83h-110v-623h-95v623h-107z" />
    <glyph glyph-name="U" unicode="U" horiz-adv-x="375" 
d="M40 154v552h91v-546c0 -47 0 -94 57 -94c56 0 56 47 56 100v540h92v-535c0 -49 0 -182 -151 -182c-145 0 -145 127 -145 165z" />
    <glyph glyph-name="V" unicode="V" horiz-adv-x="333" 
d="M190 307l50 400h92l-108 -707h-109l-109 707h93l53 -407c10 -80 12 -89 14 -157h10c1 65 1 68 14 164z" />
    <glyph glyph-name="W" unicode="W" horiz-adv-x="479" 
d="M193 706h84l47 -433c7 -62 7 -87 8 -132h7c0 75 2 100 7 159l34 406h93l-82 -706h-108l-39 384c-4 40 -4 79 -4 123h-9c0 -38 0 -90 -2 -112l-38 -395h-106l-79 706h91l36 -443c5 -53 5 -79 6 -123h6c0 64 1 95 5 133z" />
    <glyph glyph-name="X" unicode="X" horiz-adv-x="333" 
d="M6 706h93l52 -162c6 -21 7 -44 8 -66h9c2 33 3 52 12 82l45 146h93l-104 -341l114 -365h-94l-59 196c-3 10 -5 34 -7 63h-8c-5 -55 -5 -59 -7 -66l-56 -193h-92l108 364z" />
    <glyph glyph-name="Y" unicode="Y" horiz-adv-x="333" 
d="M3 706h96l41 -164c13 -53 16 -94 20 -136h7c2 23 6 78 24 144l44 156h94l-117 -410v-296h-101v295z" />
    <glyph glyph-name="Z" unicode="Z" horiz-adv-x="292" 
d="M55 707h225v-61l-165 -561h151v-85h-251v62l167 562h-127v83z" />
    <glyph glyph-name="bracketleft" unicode="[" horiz-adv-x="271" 
d="M227 -148v-48h-167v929h169v-48h-86v-833h84z" />
    <glyph glyph-name="backslash" unicode="\" horiz-adv-x="250" 
d="M239 0h-77l-153 706h78z" />
    <glyph glyph-name="bracketright" unicode="]" horiz-adv-x="271" 
d="M46 685v48h167v-929h-169v48h86v833h-84z" />
    <glyph glyph-name="asciicircum" unicode="^" horiz-adv-x="729" 
d="M407 706l180 -369h-97l-124 259l-128 -259h-96l188 369h77z" />
    <glyph glyph-name="underscore" unicode="_" horiz-adv-x="500" 
d="M510 -75v-50h-520v50h520z" />
    <glyph glyph-name="quoteleft" unicode="&#x2018;" horiz-adv-x="146" 
d="M113 569v-129h-80v107c0 94 15 121 76 157v-22c-29 -21 -36 -41 -36 -113h40z" />
    <glyph glyph-name="a" unicode="a" 
d="M40 364v65c0 30 0 116 116 116s116 -80 116 -115v-339c0 -33 1 -62 15 -91h-86c-8 19 -9 23 -14 43c-15 -23 -33 -49 -77 -49c-76 0 -76 64 -76 90v95c0 39 0 69 49 100l77 48c17 11 32 26 32 31v80c0 18 -3 41 -35 41c-35 0 -35 -25 -35 -40v-75h-82zM192 140v126
c-8 -7 -32 -24 -49 -35c-23 -16 -29 -32 -29 -55v-54c0 -28 0 -64 32 -64c46 0 46 69 46 82z" />
    <glyph glyph-name="b" unicode="b" 
d="M39 0v706h80v-208c7 12 27 45 77 45c30 0 54 -13 67 -33c12 -19 14 -42 14 -59v-338c0 -20 0 -122 -98 -122c-55 0 -70 36 -77 54c-11 -19 -13 -24 -18 -45h-45zM196 110v317c0 16 0 45 -35 45c-39 0 -42 -38 -42 -52v-299c0 -27 0 -57 38 -57c26 0 39 19 39 46z" />
    <glyph glyph-name="c" unicode="c" horiz-adv-x="292" 
d="M36 105v317c0 25 0 123 120 123s121 -92 121 -129v-73h-81v91c0 24 -6 43 -40 43c-41 0 -41 -29 -41 -53v-325c0 -11 0 -42 39 -42c42 0 42 32 42 56v99h80v-97c0 -29 0 -125 -120 -125c-112 0 -120 68 -120 115z" />
    <glyph glyph-name="d" unicode="d" 
d="M195 503v204h81v-707h-81v37c-13 -18 -31 -45 -74 -45c-81 0 -81 73 -81 96v356c0 55 20 99 82 99c35 0 55 -21 73 -40zM195 127v292c0 17 -1 51 -37 51c-39 0 -39 -35 -39 -55v-308c0 -14 0 -43 36 -43c40 0 40 45 40 63z" />
    <glyph glyph-name="e" unicode="e" 
d="M39 102v287c0 38 0 67 10 90c16 43 60 65 110 65c118 0 118 -96 118 -120v-174h-159v-150c0 -15 0 -44 38 -44c39 0 40 33 40 49v94h81v-76c0 -32 0 -132 -122 -132c-17 0 -33 2 -48 7c-68 22 -68 80 -68 104zM196 317v112c0 22 0 49 -37 49c-41 0 -41 -33 -41 -58v-103
h78z" />
    <glyph glyph-name="f" unicode="f" horiz-adv-x="187" 
d="M54 534v94c0 46 6 79 72 79c16 0 33 -1 54 -3v-69c-28 1 -44 1 -44 -31v-70h47v-66h-48v-468h-82v468h-44v66h45z" />
    <glyph glyph-name="g" unicode="g" 
d="M37 86v360c0 20 0 51 23 76c16 16 34 23 58 23c50 0 70 -36 76 -47v38h80v-554c0 -41 -9 -86 -56 -111c-22 -11 -46 -14 -65 -14c-37 0 -120 15 -116 110h80c-1 -7 -3 -43 39 -43c37 0 37 34 37 44v69c-20 -28 -42 -42 -74 -42c-34 0 -82 12 -82 91zM194 127v277
c0 34 -3 68 -41 68s-38 -29 -38 -84v-264c0 -29 1 -57 37 -57c40 0 42 36 42 60z" />
    <glyph glyph-name="h" unicode="h" 
d="M40 707h80v-207c13 19 33 44 76 44c82 0 82 -80 82 -115v-429h-81v421c0 26 -5 49 -37 49c-40 0 -40 -37 -40 -55v-415h-80v707z" />
    <glyph glyph-name="i" unicode="i" horiz-adv-x="167" 
d="M45 704h79v-107h-79v107zM43 0v535h80v-535h-80z" />
    <glyph glyph-name="j" unicode="j" horiz-adv-x="167" 
d="M46 703h81v-107h-81v107zM46 -34v569h81v-543c0 -71 -8 -132 -114 -132c-13 0 -21 1 -31 2v69c9 -1 18 -2 27 -2c19 0 37 6 37 37z" />
    <glyph glyph-name="k" unicode="k" horiz-adv-x="292" 
d="M41 706h80v-384l81 213h86l-93 -204l90 -331h-85l-62 246l-17 -42v-204h-80v706z" />
    <glyph glyph-name="l" unicode="l" horiz-adv-x="167" 
d="M43 0v706h81v-706h-81z" />
    <glyph glyph-name="m" unicode="m" horiz-adv-x="479" 
d="M121 536v-37c14 21 30 45 75 45c54 0 69 -35 77 -53c10 17 30 53 82 53c83 0 84 -73 84 -115v-429h-81v422c0 24 -1 49 -37 49c-41 0 -40 -32 -40 -56v-415h-81v420c0 24 -1 52 -36 52c-41 0 -41 -40 -41 -56v-416h-81v536h79z" />
    <glyph glyph-name="n" unicode="n" 
d="M118 535v-34c14 17 35 44 79 44c81 0 81 -75 81 -111v-434h-82v419c0 23 0 52 -35 52c-42 0 -42 -39 -42 -66v-405h-80v535h79z" />
    <glyph glyph-name="o" unicode="o" 
d="M38 144v247c0 52 0 153 122 153c118 0 118 -85 118 -125v-301c0 -36 -2 -127 -122 -127c-118 0 -118 90 -118 153zM199 111v316c0 25 -1 51 -39 51c-42 0 -42 -34 -42 -58v-315c0 -21 0 -48 39 -48c40 0 42 30 42 54z" />
    <glyph glyph-name="p" unicode="p" 
d="M118 536v-37c13 17 33 45 77 45c62 0 80 -44 80 -100v-341c0 -22 0 -110 -82 -110c-44 0 -64 30 -75 45v-183h-80v681h80zM195 117v303c0 33 -7 53 -36 53c-41 0 -41 -40 -41 -65v-293c0 -15 0 -49 39 -49c28 0 38 21 38 51z" />
    <glyph glyph-name="q" unicode="q" 
d="M36 86v338c0 46 0 121 81 121c51 0 73 -37 83 -53c12 18 15 23 22 44h51v-680h-81v183c-13 -16 -35 -44 -80 -44c-76 0 -76 66 -76 91zM193 136v266c0 36 -1 69 -40 69c-37 0 -38 -29 -38 -46v-313c0 -19 0 -46 34 -46c41 0 44 39 44 70z" />
    <glyph glyph-name="r" unicode="r" horiz-adv-x="229" 
d="M121 536v-62c15 31 32 68 82 68c8 0 15 -1 22 -2v-93c-10 7 -24 16 -48 16c-57 0 -58 -67 -58 -104v-359h-80v536h82z" />
    <glyph glyph-name="s" unicode="s" horiz-adv-x="292" 
d="M146 222l-43 43c-56 58 -71 87 -71 146c0 73 31 132 119 132c111 0 112 -86 113 -168h-75c0 67 -5 94 -43 94s-39 -34 -39 -51c0 -31 7 -50 43 -85l37 -36c42 -41 81 -81 81 -162c0 -101 -55 -145 -124 -145c-43 0 -91 16 -110 70c-10 28 -10 48 -10 137h76
c0 -70 0 -88 3 -103c8 -30 27 -33 43 -33c43 0 43 42 43 69c0 30 -4 52 -43 92z" />
    <glyph glyph-name="t" unicode="t" horiz-adv-x="187" 
d="M56 650h80v-116h46v-66h-46v-370c0 -36 12 -40 52 -38v-61c-14 -2 -28 -5 -46 -5c-81 0 -87 31 -87 88v386h-48v66h49v116z" />
    <glyph glyph-name="u" unicode="u" 
d="M197 0v34c-14 -18 -35 -44 -79 -44c-81 0 -81 75 -81 111v434h82v-419c0 -23 0 -52 35 -52c42 0 42 39 42 66v405h80v-535h-79z" />
    <glyph glyph-name="v" unicode="v" horiz-adv-x="271" 
d="M183 535h82l-83 -535h-96l-79 535h82l33 -273c7 -61 8 -106 10 -157h8c1 30 2 91 7 132z" />
    <glyph glyph-name="w" unicode="w" horiz-adv-x="396" 
d="M8 535h77l20 -267c4 -55 4 -106 4 -154h6c3 33 6 69 14 133l38 288h58l35 -294c2 -12 7 -75 12 -128h7c0 83 0 98 6 173l21 249h79l-67 -535h-90l-20 170c-9 69 -9 111 -9 170h-8c0 -69 -4 -116 -5 -127l-26 -213h-89z" />
    <glyph glyph-name="x" unicode="x" horiz-adv-x="292" 
d="M18 537h80l21 -78c16 -59 18 -64 25 -117h6c6 35 11 69 25 120l19 73h80l-83 -245l91 -290h-83l-39 162c-6 26 -7 34 -10 55h-6c-6 -25 -11 -50 -18 -73l-44 -144h-78l97 288z" />
    <glyph glyph-name="y" unicode="y" horiz-adv-x="271" 
d="M4 535h82l35 -318c2 -19 8 -88 10 -107h8c2 99 5 121 15 199l28 225h83l-102 -596c-10 -63 -47 -81 -98 -81c-10 0 -13 0 -43 2v78c26 -1 65 -2 64 50c0 8 -1 16 -2 24z" />
    <glyph glyph-name="z" unicode="z" horiz-adv-x="271" 
d="M46 461v74h215v-76l-163 -383h159v-76h-246v76l163 385h-128z" />
    <glyph glyph-name="braceleft" unicode="{" horiz-adv-x="354" 
d="M71 231v55c61 16 72 39 72 158v76c0 68 0 121 35 162c37 42 92 44 136 46v-53c-90 -11 -90 -50 -90 -191c0 -136 0 -202 -82 -223v-4c82 -22 82 -88 82 -224c0 -141 0 -180 87 -191v-53c-52 4 -99 7 -133 47c-35 41 -35 93 -35 162v71c0 114 -9 149 -72 162z" />
    <glyph glyph-name="bar" unicode="|" horiz-adv-x="229" 
d="M154 750v-1000h-80v1000h80z" />
    <glyph glyph-name="braceright" unicode="}" horiz-adv-x="354" 
d="M283 286v-55c-61 -16 -72 -39 -72 -157v-76c0 -69 0 -121 -35 -162c-37 -42 -92 -44 -136 -46v53c90 11 90 50 90 191c0 135 0 201 82 223v4c-82 22 -82 88 -82 223c0 141 0 180 -87 191v53c52 -4 99 -7 133 -47c35 -41 35 -93 35 -161v-72c0 -114 9 -148 72 -162z" />
    <glyph glyph-name="asciitilde" unicode="~" horiz-adv-x="729" 
d="M567 366l38 -72c-33 -42 -82 -79 -137 -79c-26 0 -49 7 -99 31c-55 27 -80 39 -110 39c-38 0 -52 -16 -95 -67l-40 71c22 31 61 84 133 84c38 0 67 -13 111 -33c53 -25 78 -36 102 -36c41 0 74 33 97 62z" />
    <glyph glyph-name="exclamdown" unicode="&#xa1;" horiz-adv-x="187" 
d="M119 248v-248h-79v272l17 206h44zM119 699v-129h-80v129h80z" />
    <glyph glyph-name="cent" unicode="&#xa2;" 
d="M176 601v-56c98 -12 105 -74 105 -128v-73h-81v91c0 24 -6 43 -40 43c-41 0 -41 -29 -41 -53v-325c0 -11 0 -42 39 -42c42 0 42 32 42 56v99h80v-97c0 -39 -3 -113 -104 -124v-65h-38v65c-75 9 -98 48 -98 114v317c0 29 0 107 98 121v57h38z" />
    <glyph glyph-name="sterling" unicode="&#xa3;" horiz-adv-x="479" 
d="M62 372h80c-16 44 -38 103 -38 172c0 114 71 170 155 170c150 0 148 -126 147 -225h-86c0 97 0 147 -58 147c-47 0 -64 -39 -64 -88c0 -67 19 -117 43 -175h105v-67h-78c5 -26 10 -48 10 -80c0 -56 -12 -85 -27 -120c24 -14 60 -35 79 -35c24 0 29 16 31 23
c7 21 6 79 6 106h81c0 -20 1 -39 1 -60c0 -47 0 -140 -102 -140c-18 0 -60 0 -125 57c-23 -26 -55 -63 -117 -63c-43 0 -85 22 -85 72c0 54 50 80 100 80c29 0 49 -6 72 -12c4 17 7 29 7 48c0 44 -16 83 -32 123h-105v67zM168 82c-18 6 -35 12 -56 12c-20 0 -43 -7 -43 -28
c0 -12 11 -25 31 -25c15 0 46 9 68 41z" />
    <glyph glyph-name="fraction" unicode="&#x2044;" horiz-adv-x="125" 
d="M-115 -5l309 736l49 -20l-309 -736z" />
    <glyph glyph-name="yen" unicode="&#xa5;" horiz-adv-x="333" 
d="M99 706l41 -164c1 -4 14 -59 21 -142h5c7 66 11 101 25 150l44 156h93l-86 -303h70v-63h-88l-12 -46v-9h100v-63h-100v-222h-101v222h-97v63h97v9l-12 46h-85v63h68l-78 303h95z" />
    <glyph glyph-name="florin" unicode="&#x192;" horiz-adv-x="271" 
d="M111 534l10 94c6 48 18 79 81 79c17 0 33 -1 54 -3l-8 -69c-29 1 -44 1 -48 -31l-8 -70h47l-8 -66h-48l-59 -517c-5 -46 -16 -79 -81 -79c-16 0 -33 1 -54 3l8 69c29 -1 44 -1 48 31l57 493h-44l8 66h45z" />
    <glyph glyph-name="section" unicode="&#xa7;" horiz-adv-x="396" 
d="M32 101h86c-1 -27 -2 -47 3 -65c12 -36 45 -46 68 -46c45 0 72 31 72 69c0 22 -8 43 -27 61c-16 15 -23 19 -88 52c-34 17 -112 57 -112 155c0 77 48 112 76 132c-29 28 -65 64 -65 129c0 80 60 146 153 146c53 0 88 -20 108 -41c40 -42 38 -95 36 -139h-76
c2 44 5 114 -67 114c-38 0 -66 -25 -66 -63c0 -65 69 -99 128 -128c35 -18 110 -54 110 -147c0 -41 -13 -90 -74 -146c38 -37 53 -69 53 -113c0 -79 -58 -150 -164 -150c-72 0 -111 33 -129 58c-25 36 -25 77 -25 122zM181 419c-22 -14 -61 -38 -61 -85
c0 -50 42 -72 108 -107c35 22 58 48 58 86c0 57 -51 81 -105 106z" />
    <glyph glyph-name="currency" unicode="&#xa4;" horiz-adv-x="667" 
d="M624 570l-75 -75c28 -45 50 -79 50 -153c0 -81 -23 -116 -51 -159l76 -77l-61 -59l-75 76c-46 -29 -80 -50 -157 -50c-75 0 -114 25 -153 51l-76 -76l-60 60l76 75c-27 42 -51 79 -51 157c0 84 32 129 51 155l-75 75l60 60l75 -75c29 20 75 51 155 51
c77 0 112 -23 155 -51l76 75zM519 340c0 122 -98 188 -182 188c-115 0 -190 -87 -190 -185c0 -125 98 -192 184 -192c109 0 188 82 188 189z" />
    <glyph glyph-name="quotesingle" unicode="'" horiz-adv-x="208" 
d="M156 690l-41 -256h-23l-38 244c-1 6 -2 12 -2 17c0 42 34 54 55 54c28 0 55 -20 49 -59z" />
    <glyph glyph-name="quotedblleft" unicode="&#x201c;" horiz-adv-x="292" 
d="M258 571v-129h-80v107c0 94 15 121 76 157v-22c-29 -21 -36 -41 -36 -113h40zM127 571v-129h-80v107c0 94 15 121 76 157v-22c-29 -21 -36 -41 -36 -113h40z" />
    <glyph glyph-name="guillemotleft" unicode="&#xab;" horiz-adv-x="333" 
d="M27 378l131 119v-100l-78 -72l79 -71v-100l-132 119v105zM174 381l132 116v-100l-79 -71l80 -71v-98l-133 116v108z" />
    <glyph glyph-name="guilsinglleft" unicode="&#x2039;" horiz-adv-x="187" 
d="M28 378l131 119v-100l-78 -72l79 -71v-100l-132 119v105z" />
    <glyph glyph-name="guilsinglright" unicode="&#x203a;" horiz-adv-x="187" 
d="M161 271l-132 -117v100l79 71l-80 71v98l133 -116v-107z" />
    <glyph glyph-name="fi" unicode="&#xfb01;" horiz-adv-x="354" 
d="M54 534v94c0 46 6 79 72 79c16 0 33 -1 54 -3v-69c-28 1 -44 1 -44 -31v-70h46v-66h-47v-468h-82v468h-44v66h45zM232 704h79v-107h-79v107zM230 0v535h80v-535h-80z" />
    <glyph glyph-name="fl" unicode="&#xfb02;" horiz-adv-x="354" 
d="M54 534v94c0 46 6 79 72 79c17 0 33 -1 54 -3v-69c-28 1 -44 1 -44 -31v-70h47v-66h-48v-468h-82v468h-44v66h45zM230 0v707h81v-707h-81z" />
    <glyph glyph-name="endash" unicode="&#x2013;" horiz-adv-x="354" 
d="M30 284v84h296v-84h-296z" />
    <glyph glyph-name="dagger" unicode="&#x2020;" horiz-adv-x="333" 
d="M122 525v182h95v-183h104v-92h-104v-432h-95v433h-105v92h105z" />
    <glyph glyph-name="daggerdbl" unicode="&#x2021;" horiz-adv-x="333" 
d="M120 563v140h93v-140h104v-85h-104v-234h104v-85h-104v-160h-93v160h-104v85h104v234h-104v85h104z" />
    <glyph glyph-name="periodcentered" unicode="&#xb7;" horiz-adv-x="146" 
d="M30 259v132h82v-132h-82z" />
    <glyph glyph-name="paragraph" unicode="&#xb6;" horiz-adv-x="667" 
d="M309 706h230v-54h-34v-818h-58v818h-145v-818h-57v485c-39 8 -72 15 -107 52c-35 36 -51 85 -51 135s20 200 222 200z" />
    <glyph glyph-name="bullet" unicode="&#x2022;" horiz-adv-x="333" 
d="M297 353c0 -82 -60 -130 -127 -130c-78 0 -133 59 -133 130c0 70 57 130 131 130c73 0 129 -54 129 -130z" />
    <glyph glyph-name="quotesinglbase" unicode="&#x201a;" horiz-adv-x="146" 
d="M31 0v129h80v-107c0 -94 -15 -120 -76 -157v22c29 21 36 41 36 113h-40z" />
    <glyph glyph-name="quotedblbase" unicode="&#x201e;" horiz-adv-x="292" 
d="M169 0v129h80v-107c0 -94 -15 -120 -76 -157v22c29 21 36 41 36 113h-40zM38 0v129h80v-107c0 -94 -15 -120 -76 -157v22c29 21 36 41 36 113h-40z" />
    <glyph glyph-name="quotedblright" unicode="&#x201d;" horiz-adv-x="292" 
d="M174 575v131h80v-109c0 -94 -15 -121 -76 -157v22c29 21 36 41 36 113h-40zM41 575v131h80v-109c0 -93 -15 -120 -76 -156v21c29 22 36 42 36 113h-40z" />
    <glyph glyph-name="guillemotright" unicode="&#xbb;" horiz-adv-x="333" 
d="M308 273l-131 -119v100l78 72l-79 71v100l132 -119v-105zM160 271l-132 -117v100l79 71l-80 71v98l133 -116v-107z" />
    <glyph glyph-name="ellipsis" unicode="&#x2026;" horiz-adv-x="1000" 
d="M124 0v132h82v-132h-82zM457 0v132h82v-132h-82zM790 0v132h82v-132h-82z" />
    <glyph glyph-name="perthousand" unicode="&#x2030;" horiz-adv-x="812" 
d="M22 395v195c0 51 0 122 94 122c91 0 91 -70 91 -115v-234c0 -37 0 -104 -92 -104c-93 0 -93 67 -93 136zM149 363v252c0 25 0 49 -34 49s-35 -21 -35 -49v-252c0 -28 0 -54 35 -54c34 0 34 23 34 54zM115 -5l308 736l49 -20l-309 -736zM376 130v195c0 51 0 122 94 122
c91 0 91 -70 91 -115v-234c0 -37 0 -104 -92 -104c-93 0 -93 67 -93 136zM503 98v252c0 25 0 49 -34 49s-35 -21 -35 -49v-252c0 -28 0 -54 35 -54c34 0 34 23 34 54zM605 130v195c0 51 0 122 94 122c91 0 91 -70 91 -115v-234c0 -37 0 -104 -92 -104c-93 0 -93 67 -93 136z
M732 98v252c0 25 0 49 -34 49s-35 -21 -35 -49v-252c0 -28 0 -54 35 -54c34 0 34 23 34 54z" />
    <glyph glyph-name="questiondown" unicode="&#xbf;" horiz-adv-x="333" 
d="M204 196h76c1 -62 2 -90 -8 -121c-24 -79 -101 -79 -118 -79c-96 0 -131 74 -131 143c0 70 29 127 53 173c56 105 58 110 59 166h71c0 -58 -4 -83 -33 -144c-59 -128 -65 -141 -65 -192c0 -41 6 -73 47 -73c49 0 49 39 49 127zM209 570h-80v129h80v-129z" />
    <glyph glyph-name="grave" unicode="`" horiz-adv-x="208" 
d="M17 692h102l72 -120h-48z" />
    <glyph glyph-name="acute" unicode="&#xb4;" horiz-adv-x="208" 
d="M18 571l72 121h99l-125 -121h-46z" />
    <glyph glyph-name="circumflex" unicode="&#x2c6;" horiz-adv-x="208" 
d="M-14 572l91 120h56l89 -121h-57l-60 72l-64 -71h-55z" />
    <glyph glyph-name="tilde" unicode="&#x2dc;" horiz-adv-x="208" 
d="M6 584h-25c15 52 32 95 83 95c19 0 20 -1 70 -19c21 -7 23 -8 29 -8c12 0 25 7 37 30h28c-28 -64 -46 -90 -78 -90c-15 0 -27 5 -38 11c-44 19 -49 21 -61 21c-22 0 -38 -18 -45 -40z" />
    <glyph glyph-name="macron" unicode="&#xaf;" horiz-adv-x="208" 
d="M2 592v62h204v-62h-204z" />
    <glyph glyph-name="breve" unicode="&#x2d8;" horiz-adv-x="208" 
d="M174 691h37c-2 -34 -12 -118 -108 -118c-74 0 -105 47 -106 118h35c6 -40 29 -63 70 -63c59 0 68 46 72 63z" />
    <glyph glyph-name="dotaccent" unicode="&#x2d9;" horiz-adv-x="208" 
d="M68 593v102h72v-102h-72z" />
    <glyph glyph-name="dieresis" unicode="&#xa8;" horiz-adv-x="208" 
d="M2 592v101h73v-101h-73zM133 693h73v-101h-73v101z" />
    <glyph glyph-name="ring" unicode="&#x2da;" horiz-adv-x="208" 
d="M50 592c-6 6 -22 25 -22 54c0 42 34 75 76 75s76 -33 76 -75c0 -41 -32 -76 -76 -76c-29 0 -48 16 -54 22zM69 611c4 -4 17 -14 35 -14c28 0 50 22 50 49s-22 49 -50 49c-27 0 -49 -22 -49 -49c0 -19 10 -31 14 -35z" />
    <glyph glyph-name="cedilla" unicode="&#xb8;" horiz-adv-x="208" 
d="M107 41h47l-43 -78c43 -2 81 -15 81 -56c0 -34 -27 -83 -176 -78v31c94 -5 94 26 94 32c0 26 -36 28 -74 30z" />
    <glyph glyph-name="hungarumlaut" unicode="&#x2dd;" horiz-adv-x="208" 
d="M-46 571l72 121h99l-125 -121h-46zM83 571l72 121h100l-125 -121h-47z" />
    <glyph glyph-name="ogonek" unicode="&#x2db;" horiz-adv-x="208" 
d="M88 0h67c-45 -50 -45 -63 -45 -80c0 -3 7 -21 31 -21c4 0 23 1 27 1v-61c-74 0 -129 0 -129 57c0 39 25 72 49 104z" />
    <glyph glyph-name="caron" unicode="&#x2c7;" horiz-adv-x="208" 
d="M-13 692h57l59 -72l65 72h54l-91 -120h-56z" />
    <glyph glyph-name="emdash" unicode="&#x2014;" horiz-adv-x="500" 
d="M29 284v84h443v-84h-443z" />
    <glyph glyph-name="AE" unicode="&#xc6;" horiz-adv-x="479" 
d="M-10 0l147 707h311v-88h-142v-215h123v-78h-123v-238h155v-88h-245v326h-72l-62 -326h-92zM219 648h-15l-45 -245h57v172c0 32 1 51 3 73z" />
    <glyph glyph-name="ordfeminine" unicode="&#xaa;" horiz-adv-x="187" 
d="M159 643v-169c0 -33 1 -39 7 -55h-49c-2 5 -5 13 -7 18c-9 -10 -19 -21 -40 -21c-43 0 -43 38 -43 58c0 19 0 51 1 58c3 24 10 29 48 53c25 15 28 17 34 27c0 57 0 59 -14 59c-17 0 -17 -3 -16 -60h-49c0 52 0 58 6 71c8 16 26 30 57 30c65 0 65 -48 65 -69zM110 500v55
c-23 -16 -26 -18 -28 -21c-7 -7 -7 -13 -7 -30c0 -32 0 -36 3 -43s34 -15 32 39z" />
    <glyph glyph-name="Lslash" unicode="&#x141;" horiz-adv-x="292" 
d="M136 707v-273l96 110v-87l-96 -109v-262h154v-86h-248v241l-43 -48v86l43 48v380h94z" />
    <glyph glyph-name="Oslash" unicode="&#xd8;" horiz-adv-x="375" 
d="M314 664l25 51l37 -17l-40 -83c3 -22 5 -38 5 -66v-362c0 -69 -2 -121 -46 -161c-25 -22 -56 -34 -100 -34c-77 0 -109 33 -125 51l-28 -57l-35 17l39 83c-7 21 -9 32 -9 68v385c0 48 7 78 22 104c39 70 110 70 133 70c68 0 99 -25 122 -49zM128 261l121 260
c0 45 0 67 -9 84c-3 7 -15 29 -50 29c-61 0 -62 -53 -62 -89v-284zM249 162v265l-122 -262c3 -48 5 -95 61 -95c61 0 61 53 61 92z" />
    <glyph glyph-name="OE" unicode="&#x152;" horiz-adv-x="479" 
d="M39 181v324c0 118 1 205 147 205c9 0 50 -3 55 -3h218v-88h-144v-209h123v-86h-123v-239h150v-85h-236c-1 0 -42 -4 -50 -4c-22 0 -78 0 -114 52c-26 37 -26 78 -26 133zM222 157v396c0 37 0 71 -45 71c-51 0 -51 -46 -51 -65v-384c0 -55 0 -94 49 -94c47 0 47 42 47 76z
" />
    <glyph glyph-name="ordmasculine" unicode="&#xba;" horiz-adv-x="187" 
d="M28 498v142c0 19 0 73 68 73c65 0 65 -50 65 -73v-150c0 -24 0 -74 -65 -74c-68 0 -68 56 -68 82zM112 487v155c0 16 -1 29 -17 29c-19 0 -19 -16 -19 -31v-154c0 -13 0 -28 17 -28c19 0 19 14 19 29z" />
    <glyph glyph-name="ae" unicode="&#xe6;" horiz-adv-x="458" 
d="M34 363v60c0 30 0 122 118 122c44 0 63 -14 76 -23c15 10 35 24 78 23c33 0 56 -8 73 -19c43 -29 43 -67 43 -103v-174h-156v-144c0 -21 0 -48 37 -48c39 0 39 30 39 47v94h80v-80c0 -31 0 -127 -115 -127c-82 0 -102 42 -110 58c-7 -13 -32 -58 -94 -58
c-74 0 -74 59 -74 93v105c0 54 16 68 59 97l84 55c14 9 14 15 14 31v62c0 20 0 44 -34 44c-38 0 -38 -27 -38 -44v-71h-80zM342 316v116c0 19 -1 46 -35 46c-41 0 -41 -30 -41 -47v-115h76zM186 127v138c-8 -7 -40 -29 -51 -36c-19 -13 -27 -22 -27 -62v-64
c0 -16 0 -45 32 -45c46 0 46 51 46 69z" />
    <glyph glyph-name="dotlessi" unicode="&#x131;" horiz-adv-x="167" 
d="M43 0v535h80v-535h-80z" />
    <glyph glyph-name="lslash" unicode="&#x142;" horiz-adv-x="167" 
d="M124 706v-228l43 47v-84l-43 -46v-395h-81v308l-42 -46v82l42 46v316h81z" />
    <glyph glyph-name="oslash" unicode="&#xf8;" 
d="M253 510l19 37l28 -15l-27 -61c2 -13 4 -21 4 -43v-318c0 -94 -61 -120 -120 -120c-54 0 -76 21 -92 36l-18 -37l-28 14l27 59c-5 16 -8 26 -8 50v302c0 40 8 72 30 95c31 34 76 35 95 35c52 0 75 -21 90 -34zM117 216l82 171c0 63 0 67 -8 77c-9 12 -23 13 -31 13
c-43 0 -43 -37 -43 -60v-201zM198 116v196l-81 -172v-42c0 -25 12 -40 39 -40c42 0 42 36 42 58z" />
    <glyph glyph-name="oe" unicode="&#x153;" horiz-adv-x="479" 
d="M37 105v316c0 30 1 71 38 101c30 23 64 25 84 25c37 0 63 -11 82 -25c14 9 36 25 82 25c18 0 56 -2 85 -27c35 -29 35 -67 35 -92v-178h-163v-144c0 -14 0 -48 41 -48s41 35 41 55v85h81v-81c0 -22 0 -127 -119 -127c-53 0 -75 20 -84 28c-10 -8 -36 -28 -84 -28
c-21 0 -55 5 -77 19c-42 28 -42 78 -42 96zM200 109v317c0 24 -1 53 -43 53c-38 0 -41 -31 -41 -56v-317c0 -16 0 -50 41 -50c43 0 43 37 43 53zM363 316v113c0 22 -2 50 -41 50c-41 0 -41 -33 -41 -62v-101h82z" />
    <glyph glyph-name="germandbls" unicode="&#xdf;" 
d="M40 0v591c0 28 0 121 117 121c84 0 115 -47 115 -108c0 -85 0 -93 -36 -115c40 -14 45 -36 45 -86v-295c0 -34 0 -112 -103 -112c-17 0 -26 2 -38 4v71c5 -1 10 -1 15 -1c45 0 46 35 46 62v265c0 46 -11 63 -57 61v61c50 -5 50 26 50 67c0 36 -4 58 -39 58
c-36 0 -36 -28 -36 -48v-596h-79z" />
    <glyph glyph-name="brokenbar" unicode="&#xa6;" horiz-adv-x="229" 
d="M75 -175v350h80v-350h-80zM155 325h-80v350h80v-350z" />
    <glyph glyph-name="Ograve" unicode="&#xd2;" horiz-adv-x="375" 
d="M39 162v353c0 64 3 110 35 147c29 33 72 49 116 49c39 0 77 -9 106 -40c39 -41 39 -90 39 -177v-335c0 -52 -2 -166 -154 -166c-19 0 -91 0 -125 69c-17 32 -17 66 -17 100zM243 166v356c0 61 0 108 -54 108c-7 0 -40 0 -52 -34c-5 -14 -5 -29 -5 -73v-379
c0 -35 3 -74 54 -74c55 0 57 46 57 96zM48 895h102l73 -121h-50z" />
    <glyph glyph-name="Ccedilla" unicode="&#xc7;" horiz-adv-x="375" 
d="M344 292v-132c0 -36 -3 -150 -128 -168l-16 -29c43 -2 81 -15 81 -56c0 -31 -23 -83 -176 -78v31c94 -5 94 26 94 32c0 27 -36 28 -74 30l42 70c-127 17 -127 119 -127 178v340c0 63 0 203 158 203c146 0 146 -123 146 -173v-90h-93v109c0 23 0 73 -58 73
c-59 0 -59 -52 -59 -89v-390c0 -39 0 -82 57 -82c59 0 59 48 59 83v138h94z" />
    <glyph glyph-name="multiply" unicode="&#xd7;" horiz-adv-x="500" 
d="M307 293l150 -152l-56 -56l-150 150l-152 -150l-56 56l152 152l-152 150l56 55l152 -150l150 150l56 -55z" />
    <glyph glyph-name="Ntilde" unicode="&#xd1;" horiz-adv-x="375" 
d="M41 706h100l105 -452c6 -27 10 -47 15 -70h6c-4 33 -8 66 -10 100l-4 66l-4 356h87v-706h-103l-116 529h-6l5 -61l4 -61l8 -407h-87v706zM95 786h-25c15 52 32 95 83 95c19 0 20 -1 70 -19c21 -7 23 -8 29 -8c11 0 25 7 37 30h28c-28 -64 -46 -90 -78 -90
c-15 0 -27 5 -39 11c-43 19 -48 21 -61 21c-21 0 -38 -18 -44 -40z" />
    <glyph glyph-name="Otilde" unicode="&#xd5;" horiz-adv-x="375" 
d="M39 162v353c0 64 3 110 35 147c29 33 72 49 116 49c39 0 77 -9 106 -40c39 -41 39 -90 39 -177v-335c0 -52 -2 -166 -154 -166c-19 0 -91 0 -125 69c-17 32 -17 66 -17 100zM243 166v356c0 61 0 108 -54 108c-7 0 -40 0 -52 -34c-5 -14 -5 -29 -5 -73v-379
c0 -35 3 -74 54 -74c55 0 57 46 57 96zM95 786h-25c15 52 32 95 83 95c19 0 20 -1 70 -19c21 -7 23 -8 29 -8c11 0 25 7 37 30h28c-28 -64 -46 -90 -78 -90c-15 0 -27 5 -39 11c-43 19 -48 21 -61 21c-21 0 -38 -18 -44 -40z" />
    <glyph glyph-name="mu" unicode="&#x3bc;" 
d="M37 -145v680h82v-419c0 -23 0 -52 35 -52c42 0 42 39 42 66v405h80v-535h-79v34c-11 -18 -24 -39 -49 -39c-11 0 -18 4 -29 13v-153h-82z" />
    <glyph glyph-name="Oacute" unicode="&#xd3;" horiz-adv-x="375" 
d="M39 162v353c0 64 3 110 35 147c29 33 72 49 116 49c39 0 77 -9 106 -40c39 -41 39 -90 39 -177v-335c0 -52 -2 -166 -154 -166c-19 0 -91 0 -125 69c-17 32 -17 66 -17 100zM243 166v356c0 61 0 108 -54 108c-7 0 -40 0 -52 -34c-5 -14 -5 -29 -5 -73v-379
c0 -35 3 -74 54 -74c55 0 57 46 57 96zM149 775l71 122h102l-126 -122h-47z" />
    <glyph glyph-name="thorn" unicode="&#xfe;" 
d="M275 444v-341c0 -22 0 -110 -82 -110c-44 0 -64 30 -75 45v-183h-80v852h82v-209c13 29 42 46 75 46c62 0 80 -44 80 -100zM195 117v303c0 33 -7 53 -36 53c-41 0 -41 -40 -41 -65v-293c0 -15 0 -49 39 -49c28 0 38 21 38 51z" />
    <glyph glyph-name="eth" unicode="&#xf0;" 
d="M285 640l-45 -18c10 -15 21 -34 29 -80c6 -32 9 -88 9 -122v-302c0 -36 -2 -127 -122 -127c-118 0 -118 90 -118 153v247c0 63 7 92 30 118c20 23 51 37 80 37c14 0 39 -4 53 -19c-6 33 -10 44 -26 73l-94 -37l-21 43l85 35c-14 16 -18 22 -46 44l63 32
c11 -10 24 -20 36 -34c11 -12 12 -13 16 -17l48 19zM199 111v316c0 25 -1 51 -39 51c-42 0 -42 -34 -42 -58v-315c0 -21 0 -48 39 -48c40 0 42 30 42 54z" />
    <glyph glyph-name="Igrave" unicode="&#xcc;" horiz-adv-x="167" 
d="M37 706h92v-706h-92v706zM-56 895h102l73 -121h-50z" />
    <glyph glyph-name="Ocircumflex" unicode="&#xd4;" horiz-adv-x="375" 
d="M39 162v353c0 64 3 110 35 147c29 33 72 49 116 49c39 0 77 -9 106 -40c39 -41 39 -90 39 -177v-335c0 -52 -2 -166 -154 -166c-19 0 -91 0 -125 69c-17 32 -17 66 -17 100zM243 166v356c0 61 0 108 -54 108c-7 0 -40 0 -52 -34c-5 -14 -5 -29 -5 -73v-379
c0 -35 3 -74 54 -74c55 0 57 46 57 96zM69 775l89 120h57l89 -120h-57l-60 71l-64 -71h-54z" />
    <glyph glyph-name="Eacute" unicode="&#xc9;" horiz-adv-x="292" 
d="M42 0v706h233v-89h-138v-206h124v-87h-124v-235h139v-89h-234zM118 775l71 122h102l-126 -122h-47z" />
    <glyph glyph-name="Edieresis" unicode="&#xcb;" horiz-adv-x="292" 
d="M42 0v706h233v-89h-138v-206h124v-87h-124v-235h139v-89h-234zM49 774v101h73v-101h-73zM180 875h73v-101h-73v101z" />
    <glyph glyph-name="Aacute" unicode="&#xc1;" horiz-adv-x="333" 
d="M106 706h113l109 -706h-91l-18 130h-106l-16 -130h-90zM166 573h-8c-3 -92 -3 -102 -5 -114l-30 -243h84l-35 245c-4 27 -5 54 -6 112zM129 775l71 122h102l-126 -122h-47z" />
    <glyph glyph-name="Zcaron" unicode="&#x17d;" horiz-adv-x="292" 
d="M55 707h225v-61l-165 -561h151v-85h-251v62l167 562h-127v83zM37 895h57l60 -70l64 71h55l-91 -120h-55z" />
    <glyph glyph-name="ccedilla" unicode="&#xe7;" horiz-adv-x="292" 
d="M276 212v-97c0 -34 -1 -112 -102 -124l-15 -28c43 -2 81 -15 81 -56c0 -31 -23 -83 -177 -78v31c95 -5 95 26 95 32c0 27 -37 28 -75 30l42 70c-80 12 -89 68 -89 113v317c0 25 0 123 120 123s121 -92 121 -128v-74h-81v91c0 24 -6 43 -40 43c-41 0 -41 -29 -41 -53v-325
c0 -11 0 -42 39 -42c42 0 42 33 42 56v99h80z" />
    <glyph glyph-name="logicalnot" unicode="&#xac;" horiz-adv-x="667" 
d="M587 0v253h-587v79h667v-332h-80z" />
    <glyph glyph-name="Atilde" unicode="&#xc3;" horiz-adv-x="333" 
d="M106 706h113l109 -706h-91l-18 130h-106l-16 -130h-90zM166 573h-8c-3 -92 -3 -102 -5 -114l-30 -243h84l-35 245c-4 27 -5 54 -6 112zM69 786h-25c15 52 32 95 83 95c19 0 20 -1 70 -19c21 -7 23 -8 29 -8c11 0 25 7 37 30h28c-28 -64 -46 -90 -78 -90
c-15 0 -27 5 -39 11c-43 19 -48 21 -61 21c-21 0 -38 -18 -44 -40z" />
    <glyph glyph-name="Thorn" unicode="&#xde;" horiz-adv-x="333" 
d="M41 0v707h92v-118h89c90 0 97 -45 97 -121v-134c0 -100 -8 -132 -94 -132h-94v-202h-90zM190 503h-57v-217h59c22 0 33 5 33 32v149c0 25 -4 36 -35 36z" />
    <glyph glyph-name="onequarter" unicode="&#xbc;" horiz-adv-x="583" 
d="M48 594v46c42 7 57 26 68 66h40v-442h-59v330h-49zM114 -5l309 736l49 -21l-309 -735zM364 149l96 290h82v-290h31v-50h-31v-99h-53v99h-125v50zM417 149h72v237z" />
    <glyph glyph-name="Acircumflex" unicode="&#xc2;" horiz-adv-x="333" 
d="M106 706h113l109 -706h-91l-18 130h-106l-16 -130h-90zM166 573h-8c-3 -92 -3 -102 -5 -114l-30 -243h84l-35 245c-4 27 -5 54 -6 112zM49 775l89 120h57l89 -120h-57l-60 71l-64 -71h-54z" />
    <glyph glyph-name="Odieresis" unicode="&#xd6;" horiz-adv-x="375" 
d="M39 162v353c0 64 3 110 35 147c29 33 72 49 116 49c39 0 77 -9 106 -40c39 -41 39 -90 39 -177v-335c0 -52 -2 -166 -154 -166c-19 0 -91 0 -125 69c-17 32 -17 66 -17 100zM243 166v356c0 61 0 108 -54 108c-7 0 -40 0 -52 -34c-5 -14 -5 -29 -5 -73v-379
c0 -35 3 -74 54 -74c55 0 57 46 57 96zM86 775v101h73v-101h-73zM217 876h73v-101h-73v101z" />
    <glyph glyph-name="threequarters" unicode="&#xbe;" horiz-adv-x="583" 
d="M81 594h-57c0 68 0 116 85 116s85 -50 85 -74v-56c0 -51 -18 -63 -44 -68c52 -15 52 -39 52 -87v-69c0 -43 0 -99 -88 -99c-28 0 -78 5 -89 55c-2 11 -2 57 -2 86h57v-54c0 -13 0 -38 33 -38c31 0 32 26 32 41v77c0 53 -23 53 -79 53v55c31 0 50 0 62 14c9 11 9 15 9 91
c0 13 0 28 -27 28c-5 0 -15 0 -22 -7s-7 -9 -7 -64zM135 -5l309 736l49 -20l-309 -736zM364 149l96 290h82v-290h31v-50h-31v-99h-53v99h-125v50zM417 149h72v237z" />
    <glyph glyph-name="Ucircumflex" unicode="&#xdb;" horiz-adv-x="375" 
d="M40 154v552h91v-546c0 -47 0 -94 57 -94c56 0 56 47 56 100v540h92v-535c0 -49 0 -182 -151 -182c-145 0 -145 127 -145 165zM69 775l89 120h57l89 -120h-57l-60 71l-64 -71h-54z" />
    <glyph glyph-name="Ugrave" unicode="&#xd9;" horiz-adv-x="375" 
d="M40 154v552h91v-546c0 -47 0 -94 57 -94c56 0 56 47 56 100v540h92v-535c0 -49 0 -182 -151 -182c-145 0 -145 127 -145 165zM48 895h102l73 -121h-50z" />
    <glyph glyph-name="Udieresis" unicode="&#xdc;" horiz-adv-x="375" 
d="M40 154v552h91v-546c0 -47 0 -94 57 -94c56 0 56 47 56 100v540h92v-535c0 -49 0 -182 -151 -182c-145 0 -145 127 -145 165zM85 776v101h73v-101h-73zM216 877h73v-101h-73v101z" />
    <glyph glyph-name="Iacute" unicode="&#xcd;" horiz-adv-x="167" 
d="M37 706h92v-706h-92v706zM45 775l71 122h102l-126 -122h-47z" />
    <glyph glyph-name="Agrave" unicode="&#xc0;" horiz-adv-x="333" 
d="M106 706h113l109 -706h-91l-18 130h-106l-16 -130h-90zM166 573h-8c-3 -92 -3 -102 -5 -114l-30 -243h84l-35 245c-4 27 -5 54 -6 112zM22 895h102l73 -121h-50z" />
    <glyph glyph-name="degree" unicode="&#xb0;" horiz-adv-x="354" 
d="M177 755c89 0 161 -73 161 -161c0 -89 -72 -161 -161 -161c-90 0 -162 72 -162 161s73 161 162 161zM177 675c-43 0 -79 -34 -79 -79c0 -44 35 -79 79 -79s79 35 79 79s-36 79 -79 79z" />
    <glyph glyph-name="onehalf" unicode="&#xbd;" horiz-adv-x="583" 
d="M48 594v46c42 7 57 26 68 66h40v-442h-59v330h-49zM99 -5l309 736l49 -21l-309 -735zM435 292h-57v62c0 34 0 91 87 91c30 0 57 -8 73 -23c19 -20 19 -39 19 -92c0 -44 0 -56 -8 -77c-7 -22 -34 -61 -54 -90c-31 -44 -49 -80 -53 -111h117v-52h-181c0 99 22 131 85 218
c29 41 36 50 36 102c0 63 0 78 -31 78c-33 0 -33 -28 -33 -44v-62z" />
    <glyph glyph-name="minus" unicode="&#x2212;" horiz-adv-x="500" 
d="M500 333v-81h-500v81h500z" />
    <glyph glyph-name="Yacute" unicode="&#xdd;" horiz-adv-x="333" 
d="M3 706h96l41 -164c13 -53 16 -94 20 -136h7c2 23 6 78 24 144l44 156h94l-117 -410v-296h-101v295zM129 775l71 122h102l-126 -122h-47z" />
    <glyph glyph-name="twosuperior" unicode="&#xb2;" horiz-adv-x="229" 
d="M81 557h-57v62c0 34 0 91 87 91c30 0 57 -8 73 -23c19 -20 19 -39 19 -92c0 -44 0 -56 -8 -77c-7 -22 -34 -61 -54 -90c-31 -44 -49 -80 -53 -111h117v-52h-181c0 99 22 131 85 218c29 41 36 50 36 102c0 63 0 78 -31 78c-33 0 -33 -28 -33 -44v-62z" />
    <glyph glyph-name="Uacute" unicode="&#xda;" horiz-adv-x="375" 
d="M40 154v552h91v-546c0 -47 0 -94 57 -94c56 0 56 47 56 100v540h92v-535c0 -49 0 -182 -151 -182c-145 0 -145 127 -145 165zM149 775l71 122h102l-126 -122h-47z" />
    <glyph glyph-name="registered" unicode="&#xae;" horiz-adv-x="833" 
d="M266 580h146c46 0 78 -1 105 -11c49 -17 72 -62 72 -104c0 -31 -12 -86 -92 -106c43 -18 56 -44 64 -94c9 -62 14 -94 34 -134h-91c-13 26 -15 43 -24 98c-15 95 -21 104 -134 104v-202h-80v449zM347 518v-121h66c33 0 96 0 96 62c0 18 -8 42 -32 53c-16 6 -30 6 -79 6
h-51zM773 352c0 -190 -150 -355 -357 -355c-185 0 -355 145 -355 356c0 205 164 356 355 356c200 0 357 -155 357 -357zM741 352c0 180 -138 325 -325 325c-176 0 -323 -142 -323 -324c0 -183 146 -324 324 -324c187 0 324 150 324 323z" />
    <glyph glyph-name="copyright" unicode="&#xa9;" horiz-adv-x="833" 
d="M557 258l56 -49c-21 -25 -79 -91 -188 -91c-147 0 -238 109 -238 234c0 141 103 240 236 240c109 0 160 -57 190 -90l-56 -53c-32 33 -66 68 -133 68c-80 0 -159 -58 -159 -164c0 -98 76 -160 159 -160c74 0 111 41 133 65zM772 352c0 -191 -150 -355 -356 -355
c-188 0 -355 146 -355 357c0 201 160 355 355 355c202 0 356 -156 356 -357zM740 352c0 181 -138 325 -322 325s-325 -147 -325 -323c0 -186 148 -325 324 -325c183 0 323 145 323 323z" />
    <glyph glyph-name="Ecircumflex" unicode="&#xca;" horiz-adv-x="292" 
d="M42 0v706h233v-89h-138v-206h124v-87h-124v-235h139v-89h-234zM38 775l89 120h57l89 -120h-57l-60 71l-64 -71h-54z" />
    <glyph glyph-name="trademark" unicode="&#x2122;" horiz-adv-x="687" 
d="M636 706v-332h-57l2 205l3 68l-84 -273h-52l-84 272l4 -67l2 -205h-56v332h79l83 -262l81 262h79zM181 657v-283h-58v283h-107v49h270v-49h-105z" />
    <glyph glyph-name="plusminus" unicode="&#xb1;" horiz-adv-x="500" 
d="M291 342v-181h-79v181h-181v79h181v179h79v-179h178v-79h-178zM469 79v-79h-438v79h438z" />
    <glyph glyph-name="Eth" unicode="&#xd0;" horiz-adv-x="354" 
d="M39 0v353h-39v68h39v285h171c100 0 108 -57 108 -114v-470c0 -93 -24 -122 -100 -122h-179zM184 353h-52v-266h62c27 0 30 16 30 39v445c0 27 -1 49 -38 49h-54v-199h52v-68z" />
    <glyph glyph-name="Adieresis" unicode="&#xc4;" horiz-adv-x="333" 
d="M106 706h113l109 -706h-91l-18 130h-106l-16 -130h-90zM166 573h-8c-3 -92 -3 -102 -5 -114l-30 -243h84l-35 245c-4 27 -5 54 -6 112zM65 774v101h73v-101h-73zM196 875h73v-101h-73v101z" />
    <glyph glyph-name="Aring" unicode="&#xc5;" horiz-adv-x="333" 
d="M106 706h113l109 -706h-91l-18 130h-106l-16 -130h-90zM166 573h-8c-3 -92 -3 -102 -5 -114l-30 -243h84l-35 245c-4 27 -5 54 -6 112zM113 762c-6 6 -22 25 -22 54c0 41 34 75 75 75s75 -34 75 -75c0 -42 -34 -76 -75 -76c-28 0 -47 16 -53 22zM131 780
c4 -3 16 -14 35 -14c27 0 49 22 49 50c0 27 -22 49 -49 49s-49 -22 -49 -49c0 -19 10 -32 14 -36z" />
    <glyph glyph-name="Ydieresis" unicode="&#x178;" horiz-adv-x="333" 
d="M3 706h96l41 -164c13 -53 16 -94 20 -136h7c2 23 6 78 24 144l44 156h94l-117 -410v-296h-101v295zM65 774v101h73v-101h-73zM196 875h73v-101h-73v101z" />
    <glyph glyph-name="divide" unicode="&#xf7;" horiz-adv-x="500" 
d="M308 145c0 -31 -25 -55 -57 -55s-56 24 -56 56s27 56 57 56c29 0 56 -22 56 -57zM308 434c0 -23 -17 -55 -56 -55c-32 0 -57 24 -57 54c0 32 23 58 57 58s56 -27 56 -57zM500 330v-79h-500v79h500z" />
    <glyph glyph-name="onesuperior" unicode="&#xb9;" horiz-adv-x="229" 
d="M48 594v46c42 7 57 26 68 66h40v-442h-59v330h-49z" />
    <glyph glyph-name="threesuperior" unicode="&#xb3;" horiz-adv-x="229" 
d="M81 594h-57c0 68 0 116 85 116s85 -50 85 -74v-56c0 -51 -18 -63 -44 -68c52 -15 52 -39 52 -87v-69c0 -43 0 -99 -88 -99c-28 0 -78 5 -89 55c-2 11 -2 57 -2 86h57v-54c0 -13 0 -38 33 -38c31 0 32 26 32 41v77c0 53 -23 53 -79 53v55c31 0 50 0 62 14c9 11 9 15 9 91
c0 13 0 28 -27 28c-5 0 -15 0 -22 -7s-7 -9 -7 -64z" />
    <glyph glyph-name="Egrave" unicode="&#xc8;" horiz-adv-x="292" 
d="M42 0v706h233v-89h-138v-206h124v-87h-124v-235h139v-89h-234zM7 895h102l73 -121h-50z" />
    <glyph glyph-name="Idieresis" unicode="&#xcf;" horiz-adv-x="167" 
d="M37 706h92v-706h-92v706zM-19 774v101h73v-101h-73zM112 875h73v-101h-73v101z" />
    <glyph glyph-name="Scaron" unicode="&#x160;" horiz-adv-x="333" 
d="M118 258v-129c0 -24 0 -68 48 -68c44 0 45 45 45 82c0 66 -12 96 -76 190c-56 81 -97 141 -97 232c0 38 8 70 24 97c28 45 71 58 119 58c88 0 119 -48 119 -121v-126h-85v125c0 22 -3 48 -37 48c-43 0 -47 -36 -47 -71c0 -72 22 -105 91 -205c45 -67 84 -124 84 -215
c0 -47 -12 -92 -33 -121c-33 -44 -80 -47 -106 -47c-135 0 -135 117 -135 153v118h86zM53 895h57l60 -70l64 71h55l-91 -120h-55z" />
    <glyph glyph-name="Icircumflex" unicode="&#xce;" horiz-adv-x="167" 
d="M37 706h92v-706h-92v706zM-35 775l89 120h57l89 -120h-57l-60 71l-64 -71h-54z" />
    <glyph glyph-name="aacute" unicode="&#xe1;" 
d="M40 364v65c0 30 0 116 116 116s116 -80 116 -115v-339c0 -33 1 -62 15 -91h-86c-8 19 -9 23 -14 43c-15 -23 -33 -49 -77 -49c-76 0 -76 64 -76 90v95c0 39 0 69 49 100l77 48c17 11 32 26 32 31v80c0 18 -3 41 -35 41c-35 0 -35 -25 -35 -40v-75h-82zM192 140v126
c-8 -7 -32 -24 -49 -35c-23 -16 -29 -32 -29 -55v-54c0 -28 0 -64 32 -64c46 0 46 69 46 82zM122 571l72 121h99l-125 -121h-46z" />
    <glyph glyph-name="acircumflex" unicode="&#xe2;" 
d="M40 364v65c0 30 0 116 116 116s116 -80 116 -115v-339c0 -33 1 -62 15 -91h-86c-8 19 -9 23 -14 43c-15 -23 -33 -49 -77 -49c-76 0 -76 64 -76 90v95c0 39 0 69 49 100l77 48c17 11 32 26 32 31v80c0 18 -3 41 -35 41c-35 0 -35 -25 -35 -40v-75h-82zM192 140v126
c-8 -7 -32 -24 -49 -35c-23 -16 -29 -32 -29 -55v-54c0 -28 0 -64 32 -64c46 0 46 69 46 82zM44 572l91 120h56l89 -121h-57l-60 72l-64 -71h-55z" />
    <glyph glyph-name="adieresis" unicode="&#xe4;" 
d="M40 364v65c0 30 0 116 116 116s116 -80 116 -115v-339c0 -33 1 -62 15 -91h-86c-8 19 -9 23 -14 43c-15 -23 -33 -49 -77 -49c-76 0 -76 64 -76 90v95c0 39 0 69 49 100l77 48c17 11 32 26 32 31v80c0 18 -3 41 -35 41c-35 0 -35 -25 -35 -40v-75h-82zM192 140v126
c-8 -7 -32 -24 -49 -35c-23 -16 -29 -32 -29 -55v-54c0 -28 0 -64 32 -64c46 0 46 69 46 82zM55 594v101h73v-101h-73zM186 695h73v-101h-73v101z" />
    <glyph glyph-name="agrave" unicode="&#xe0;" 
d="M40 364v65c0 30 0 116 116 116s116 -80 116 -115v-339c0 -33 1 -62 15 -91h-86c-8 19 -9 23 -14 43c-15 -23 -33 -49 -77 -49c-76 0 -76 64 -76 90v95c0 39 0 69 49 100l77 48c17 11 32 26 32 31v80c0 18 -3 41 -35 41c-35 0 -35 -25 -35 -40v-75h-82zM192 140v126
c-8 -7 -32 -24 -49 -35c-23 -16 -29 -32 -29 -55v-54c0 -28 0 -64 32 -64c46 0 46 69 46 82zM21 692h102l72 -120h-48z" />
    <glyph glyph-name="aring" unicode="&#xe5;" 
d="M40 364v65c0 30 0 116 116 116s116 -80 116 -115v-339c0 -33 1 -62 15 -91h-86c-8 19 -9 23 -14 43c-15 -23 -33 -49 -77 -49c-76 0 -76 64 -76 90v95c0 39 0 69 49 100l77 48c17 11 32 26 32 31v80c0 18 -3 41 -35 41c-35 0 -35 -25 -35 -40v-75h-82zM192 140v126
c-8 -7 -32 -24 -49 -35c-23 -16 -29 -32 -29 -55v-54c0 -28 0 -64 32 -64c46 0 46 69 46 82zM102 592c-6 6 -22 25 -22 54c0 42 34 75 76 75s76 -33 76 -75c0 -41 -32 -76 -76 -76c-29 0 -48 16 -54 22zM121 611c4 -4 17 -14 35 -14c28 0 50 22 50 49s-22 49 -50 49
c-27 0 -49 -22 -49 -49c0 -19 10 -31 14 -35z" />
    <glyph glyph-name="atilde" unicode="&#xe3;" 
d="M40 364v65c0 30 0 116 116 116s116 -80 116 -115v-339c0 -33 1 -62 15 -91h-86c-8 19 -9 23 -14 43c-15 -23 -33 -49 -77 -49c-76 0 -76 64 -76 90v95c0 39 0 69 49 100l77 48c17 11 32 26 32 31v80c0 18 -3 41 -35 41c-35 0 -35 -25 -35 -40v-75h-82zM192 140v126
c-8 -7 -32 -24 -49 -35c-23 -16 -29 -32 -29 -55v-54c0 -28 0 -64 32 -64c46 0 46 69 46 82zM65 584h-25c15 52 32 95 83 95c19 0 20 -1 70 -19c21 -7 23 -8 29 -8c12 0 25 7 37 30h28c-28 -64 -46 -90 -78 -90c-15 0 -27 5 -38 11c-44 19 -49 21 -61 21
c-22 0 -38 -18 -45 -40z" />
    <glyph glyph-name="eacute" unicode="&#xe9;" 
d="M39 102v287c0 38 0 67 10 90c16 43 60 65 110 65c118 0 118 -96 118 -120v-174h-159v-150c0 -15 0 -44 38 -44c39 0 40 33 40 49v94h81v-76c0 -32 0 -132 -122 -132c-17 0 -33 2 -48 7c-68 22 -68 80 -68 104zM196 317v112c0 22 0 49 -37 49c-41 0 -41 -33 -41 -58v-103
h78zM122 571l72 121h99l-125 -121h-46z" />
    <glyph glyph-name="ecircumflex" unicode="&#xea;" 
d="M39 102v287c0 38 0 67 10 90c16 43 60 65 110 65c118 0 118 -96 118 -120v-174h-159v-150c0 -15 0 -44 38 -44c39 0 40 33 40 49v94h81v-76c0 -32 0 -132 -122 -132c-17 0 -33 2 -48 7c-68 22 -68 80 -68 104zM196 317v112c0 22 0 49 -37 49c-41 0 -41 -33 -41 -58v-103
h78zM44 572l91 120h56l89 -121h-57l-60 72l-64 -71h-55z" />
    <glyph glyph-name="edieresis" unicode="&#xeb;" 
d="M39 102v287c0 38 0 67 10 90c16 43 60 65 110 65c118 0 118 -96 118 -120v-174h-159v-150c0 -15 0 -44 38 -44c39 0 40 33 40 49v94h81v-76c0 -32 0 -132 -122 -132c-17 0 -33 2 -48 7c-68 22 -68 80 -68 104zM196 317v112c0 22 0 49 -37 49c-41 0 -41 -33 -41 -58v-103
h78zM64 592v101h73v-101h-73zM195 693h73v-101h-73v101z" />
    <glyph glyph-name="egrave" unicode="&#xe8;" 
d="M39 102v287c0 38 0 67 10 90c16 43 60 65 110 65c118 0 118 -96 118 -120v-174h-159v-150c0 -15 0 -44 38 -44c39 0 40 33 40 49v94h81v-76c0 -32 0 -132 -122 -132c-17 0 -33 2 -48 7c-68 22 -68 80 -68 104zM196 317v112c0 22 0 49 -37 49c-41 0 -41 -33 -41 -58v-103
h78zM21 692h102l72 -120h-48z" />
    <glyph glyph-name="iacute" unicode="&#xed;" horiz-adv-x="167" 
d="M43 0v535h80v-535h-80zM48 571l72 121h99l-125 -121h-46z" />
    <glyph glyph-name="icircumflex" unicode="&#xee;" horiz-adv-x="167" 
d="M43 0v535h80v-535h-80zM-35 572l91 120h56l89 -121h-57l-60 72l-64 -71h-55z" />
    <glyph glyph-name="idieresis" unicode="&#xef;" horiz-adv-x="167" 
d="M43 0v535h80v-535h-80zM-15 592v101h73v-101h-73zM116 693h73v-101h-73v101z" />
    <glyph glyph-name="igrave" unicode="&#xec;" horiz-adv-x="167" 
d="M43 0v535h80v-535h-80zM-53 692h102l72 -120h-48z" />
    <glyph glyph-name="ntilde" unicode="&#xf1;" 
d="M118 535v-34c14 17 35 44 79 44c81 0 81 -75 81 -111v-434h-82v419c0 23 0 52 -35 52c-42 0 -42 -39 -42 -66v-405h-80v535h79zM60 584h-25c15 52 32 95 83 95c19 0 20 -1 70 -19c21 -7 23 -8 29 -8c12 0 25 7 37 30h28c-28 -64 -46 -90 -78 -90c-15 0 -27 5 -38 11
c-44 19 -49 21 -61 21c-22 0 -38 -18 -45 -40z" />
    <glyph glyph-name="oacute" unicode="&#xf3;" 
d="M38 144v247c0 52 0 153 122 153c118 0 118 -85 118 -125v-301c0 -36 -2 -127 -122 -127c-118 0 -118 90 -118 153zM199 111v316c0 25 -1 51 -39 51c-42 0 -42 -34 -42 -58v-315c0 -21 0 -48 39 -48c40 0 42 30 42 54zM122 571l72 121h99l-125 -121h-46z" />
    <glyph glyph-name="ocircumflex" unicode="&#xf4;" 
d="M38 144v247c0 52 0 153 122 153c118 0 118 -85 118 -125v-301c0 -36 -2 -127 -122 -127c-118 0 -118 90 -118 153zM199 111v316c0 25 -1 51 -39 51c-42 0 -42 -34 -42 -58v-315c0 -21 0 -48 39 -48c40 0 42 30 42 54zM44 572l91 120h56l89 -121h-57l-60 72l-64 -71h-55z
" />
    <glyph glyph-name="odieresis" unicode="&#xf6;" 
d="M38 144v247c0 52 0 153 122 153c118 0 118 -85 118 -125v-301c0 -36 -2 -127 -122 -127c-118 0 -118 90 -118 153zM199 111v316c0 25 -1 51 -39 51c-42 0 -42 -34 -42 -58v-315c0 -21 0 -48 39 -48c40 0 42 30 42 54zM55 594v101h73v-101h-73zM186 695h73v-101h-73v101z
" />
    <glyph glyph-name="ograve" unicode="&#xf2;" 
d="M38 144v247c0 52 0 153 122 153c118 0 118 -85 118 -125v-301c0 -36 -2 -127 -122 -127c-118 0 -118 90 -118 153zM199 111v316c0 25 -1 51 -39 51c-42 0 -42 -34 -42 -58v-315c0 -21 0 -48 39 -48c40 0 42 30 42 54zM21 692h102l72 -120h-48z" />
    <glyph glyph-name="otilde" unicode="&#xf5;" 
d="M38 144v247c0 52 0 153 122 153c118 0 118 -85 118 -125v-301c0 -36 -2 -127 -122 -127c-118 0 -118 90 -118 153zM199 111v316c0 25 -1 51 -39 51c-42 0 -42 -34 -42 -58v-315c0 -21 0 -48 39 -48c40 0 42 30 42 54zM65 584h-25c15 52 32 95 83 95c19 0 20 -1 70 -19
c21 -7 23 -8 29 -8c12 0 25 7 37 30h28c-28 -64 -46 -90 -78 -90c-15 0 -27 5 -38 11c-44 19 -49 21 -61 21c-22 0 -38 -18 -45 -40z" />
    <glyph glyph-name="scaron" unicode="&#x161;" horiz-adv-x="292" 
d="M146 222l-43 43c-56 58 -71 87 -71 146c0 73 31 132 119 132c111 0 112 -86 113 -168h-75c0 67 -5 94 -43 94s-39 -34 -39 -51c0 -31 7 -50 43 -85l37 -36c42 -41 81 -81 81 -162c0 -101 -55 -145 -124 -145c-43 0 -91 16 -110 70c-10 28 -10 48 -10 137h76
c0 -70 0 -88 3 -103c8 -30 27 -33 43 -33c43 0 43 42 43 69c0 30 -4 52 -43 92zM35 692h57l59 -72l65 72h54l-91 -120h-56z" />
    <glyph glyph-name="uacute" unicode="&#xfa;" 
d="M197 0v34c-14 -18 -35 -44 -79 -44c-81 0 -81 75 -81 111v434h82v-419c0 -23 0 -52 35 -52c42 0 42 39 42 66v405h80v-535h-79zM122 571l72 121h99l-125 -121h-46z" />
    <glyph glyph-name="ucircumflex" unicode="&#xfb;" 
d="M197 0v34c-14 -18 -35 -44 -79 -44c-81 0 -81 75 -81 111v434h82v-419c0 -23 0 -52 35 -52c42 0 42 39 42 66v405h80v-535h-79zM39 572l91 120h56l89 -121h-57l-60 72l-64 -71h-55z" />
    <glyph glyph-name="udieresis" unicode="&#xfc;" 
d="M197 0v34c-14 -18 -35 -44 -79 -44c-81 0 -81 75 -81 111v434h82v-419c0 -23 0 -52 35 -52c42 0 42 39 42 66v405h80v-535h-79zM56 594v101h73v-101h-73zM187 695h73v-101h-73v101z" />
    <glyph glyph-name="ugrave" unicode="&#xf9;" 
d="M197 0v34c-14 -18 -35 -44 -79 -44c-81 0 -81 75 -81 111v434h82v-419c0 -23 0 -52 35 -52c42 0 42 39 42 66v405h80v-535h-79zM21 692h102l72 -120h-48z" />
    <glyph glyph-name="yacute" unicode="&#xfd;" horiz-adv-x="271" 
d="M4 535h82l35 -318c2 -19 8 -88 10 -107h8c2 99 5 121 15 199l28 225h83l-102 -596c-10 -63 -47 -81 -98 -81c-10 0 -13 0 -43 2v78c26 -1 65 -2 64 50c0 8 -1 16 -2 24zM101 571l72 121h99l-125 -121h-46z" />
    <glyph glyph-name="ydieresis" unicode="&#xff;" horiz-adv-x="271" 
d="M4 535h82l35 -318c2 -19 8 -88 10 -107h8c2 99 5 121 15 199l28 225h83l-102 -596c-10 -63 -47 -81 -98 -81c-10 0 -13 0 -43 2v78c26 -1 65 -2 64 50c0 8 -1 16 -2 24zM38 592v101h73v-101h-73zM169 693h73v-101h-73v101z" />
    <glyph glyph-name="zcaron" unicode="&#x17e;" horiz-adv-x="271" 
d="M46 461v74h215v-76l-163 -383h159v-76h-246v76l163 385h-128zM31 692h57l59 -72l65 72h54l-91 -120h-56z" />
  </font>
</defs>
</svg>
